ISO-10303-21;
HEADER;
/* Generated by software containing ST-Developer
 * from STEP Tools, Inc. (www.steptools.com) 
 */

FILE_DESCRIPTION(
/* description */ (''),
/* implementation_level */ '2;1');

FILE_NAME(
/* name */ 'glovecase-battery-case.step',
/* time_stamp */ '2026-09-08T19:44:14+01:00',
/* author */ (''),
/* organization */ (''),
/* preprocessor_version */ 'ST-DEVELOPER v20.2',
/* originating_system */ 'Autodesk Translation Framework v15.15.0.0',
/* authorisation */ '');

FILE_SCHEMA (('AUTOMOTIVE_DESIGN { 1 0 10303 214 3 1 1 }'));
ENDSEC;

DATA;
#10=MECHANICAL_DESIGN_GEOMETRIC_PRESENTATION_REPRESENTATION('',(#13,#14),
#2087);
#11=SHAPE_REPRESENTATION_RELATIONSHIP('SRR','None',#2094,#12);
#12=ADVANCED_BREP_SHAPE_REPRESENTATION('',(#15,#16),#2086);
#13=STYLED_ITEM('',(#2103),#15);
#14=STYLED_ITEM('',(#2103),#16);
#15=MANIFOLD_SOLID_BREP('glove_case_body',#1310);
#16=MANIFOLD_SOLID_BREP('battery-case-lid',#1311);
#17=CIRCLE('',#1328,0.793408892939106);
#18=CIRCLE('',#1329,0.793408892939106);
#19=CIRCLE('',#1330,0.793408892939106);
#20=CIRCLE('',#1331,0.793408892939106);
#21=CYLINDRICAL_SURFACE('',#1327,0.793408892939106);
#22=FACE_OUTER_BOUND('',#87,.T.);
#23=FACE_OUTER_BOUND('',#88,.T.);
#24=FACE_OUTER_BOUND('',#89,.T.);
#25=FACE_OUTER_BOUND('',#90,.T.);
#26=FACE_OUTER_BOUND('',#91,.T.);
#27=FACE_OUTER_BOUND('',#92,.T.);
#28=FACE_OUTER_BOUND('',#93,.T.);
#29=FACE_OUTER_BOUND('',#94,.T.);
#30=FACE_OUTER_BOUND('',#95,.T.);
#31=FACE_OUTER_BOUND('',#96,.T.);
#32=FACE_OUTER_BOUND('',#97,.T.);
#33=FACE_OUTER_BOUND('',#98,.T.);
#34=FACE_OUTER_BOUND('',#99,.T.);
#35=FACE_OUTER_BOUND('',#100,.T.);
#36=FACE_OUTER_BOUND('',#101,.T.);
#37=FACE_OUTER_BOUND('',#102,.T.);
#38=FACE_OUTER_BOUND('',#103,.T.);
#39=FACE_OUTER_BOUND('',#104,.T.);
#40=FACE_OUTER_BOUND('',#105,.T.);
#41=FACE_OUTER_BOUND('',#106,.T.);
#42=FACE_OUTER_BOUND('',#107,.T.);
#43=FACE_OUTER_BOUND('',#108,.T.);
#44=FACE_OUTER_BOUND('',#109,.T.);
#45=FACE_OUTER_BOUND('',#110,.T.);
#46=FACE_OUTER_BOUND('',#111,.T.);
#47=FACE_OUTER_BOUND('',#112,.T.);
#48=FACE_OUTER_BOUND('',#113,.T.);
#49=FACE_OUTER_BOUND('',#114,.T.);
#50=FACE_OUTER_BOUND('',#115,.T.);
#51=FACE_OUTER_BOUND('',#116,.T.);
#52=FACE_OUTER_BOUND('',#117,.T.);
#53=FACE_OUTER_BOUND('',#118,.T.);
#54=FACE_OUTER_BOUND('',#119,.T.);
#55=FACE_OUTER_BOUND('',#120,.T.);
#56=FACE_OUTER_BOUND('',#121,.T.);
#57=FACE_OUTER_BOUND('',#122,.T.);
#58=FACE_OUTER_BOUND('',#123,.T.);
#59=FACE_OUTER_BOUND('',#124,.T.);
#60=FACE_OUTER_BOUND('',#125,.T.);
#61=FACE_OUTER_BOUND('',#126,.T.);
#62=FACE_OUTER_BOUND('',#127,.T.);
#63=FACE_OUTER_BOUND('',#128,.T.);
#64=FACE_OUTER_BOUND('',#129,.T.);
#65=FACE_OUTER_BOUND('',#130,.T.);
#66=FACE_OUTER_BOUND('',#131,.T.);
#67=FACE_OUTER_BOUND('',#132,.T.);
#68=FACE_OUTER_BOUND('',#133,.T.);
#69=FACE_OUTER_BOUND('',#134,.T.);
#70=FACE_OUTER_BOUND('',#135,.T.);
#71=FACE_OUTER_BOUND('',#136,.T.);
#72=FACE_OUTER_BOUND('',#137,.T.);
#73=FACE_OUTER_BOUND('',#138,.T.);
#74=FACE_OUTER_BOUND('',#139,.T.);
#75=FACE_OUTER_BOUND('',#140,.T.);
#76=FACE_OUTER_BOUND('',#141,.T.);
#77=FACE_OUTER_BOUND('',#142,.T.);
#78=FACE_OUTER_BOUND('',#143,.T.);
#79=FACE_OUTER_BOUND('',#144,.T.);
#80=FACE_OUTER_BOUND('',#145,.T.);
#81=FACE_OUTER_BOUND('',#146,.T.);
#82=FACE_OUTER_BOUND('',#147,.T.);
#83=FACE_OUTER_BOUND('',#148,.T.);
#84=FACE_OUTER_BOUND('',#149,.T.);
#85=FACE_OUTER_BOUND('',#150,.T.);
#86=FACE_OUTER_BOUND('',#151,.T.);
#87=EDGE_LOOP('',(#815,#816,#817,#818,#819,#820,#821));
#88=EDGE_LOOP('',(#822,#823,#824,#825,#826,#827,#828));
#89=EDGE_LOOP('',(#829,#830,#831,#832,#833,#834,#835,#836));
#90=EDGE_LOOP('',(#837,#838,#839,#840,#841,#842,#843,#844,#845,#846,#847,
#848));
#91=EDGE_LOOP('',(#849,#850,#851,#852,#853,#854));
#92=EDGE_LOOP('',(#855,#856,#857,#858,#859,#860));
#93=EDGE_LOOP('',(#861,#862,#863,#864));
#94=EDGE_LOOP('',(#865,#866,#867,#868));
#95=EDGE_LOOP('',(#869,#870,#871,#872,#873,#874));
#96=EDGE_LOOP('',(#875,#876,#877,#878,#879,#880,#881,#882,#883,#884,#885,
#886,#887,#888,#889,#890));
#97=EDGE_LOOP('',(#891,#892,#893,#894,#895,#896,#897,#898,#899,#900,#901,
#902,#903,#904,#905,#906,#907,#908,#909,#910,#911,#912,#913,#914,#915,#916,
#917,#918,#919,#920,#921,#922));
#98=EDGE_LOOP('',(#923,#924,#925,#926));
#99=EDGE_LOOP('',(#927,#928,#929,#930));
#100=EDGE_LOOP('',(#931,#932,#933,#934));
#101=EDGE_LOOP('',(#935,#936,#937,#938));
#102=EDGE_LOOP('',(#939,#940,#941,#942));
#103=EDGE_LOOP('',(#943,#944,#945,#946));
#104=EDGE_LOOP('',(#947,#948,#949,#950));
#105=EDGE_LOOP('',(#951,#952,#953,#954));
#106=EDGE_LOOP('',(#955,#956,#957,#958));
#107=EDGE_LOOP('',(#959,#960,#961,#962));
#108=EDGE_LOOP('',(#963,#964,#965,#966));
#109=EDGE_LOOP('',(#967,#968,#969,#970));
#110=EDGE_LOOP('',(#971,#972,#973,#974));
#111=EDGE_LOOP('',(#975,#976,#977,#978));
#112=EDGE_LOOP('',(#979,#980,#981,#982));
#113=EDGE_LOOP('',(#983,#984,#985,#986));
#114=EDGE_LOOP('',(#987,#988,#989,#990));
#115=EDGE_LOOP('',(#991,#992,#993,#994));
#116=EDGE_LOOP('',(#995,#996,#997,#998));
#117=EDGE_LOOP('',(#999,#1000,#1001,#1002));
#118=EDGE_LOOP('',(#1003,#1004,#1005,#1006));
#119=EDGE_LOOP('',(#1007,#1008,#1009,#1010));
#120=EDGE_LOOP('',(#1011,#1012,#1013,#1014));
#121=EDGE_LOOP('',(#1015,#1016,#1017,#1018));
#122=EDGE_LOOP('',(#1019,#1020,#1021,#1022));
#123=EDGE_LOOP('',(#1023,#1024,#1025,#1026));
#124=EDGE_LOOP('',(#1027,#1028,#1029,#1030));
#125=EDGE_LOOP('',(#1031,#1032,#1033,#1034,#1035,#1036));
#126=EDGE_LOOP('',(#1037,#1038,#1039,#1040));
#127=EDGE_LOOP('',(#1041,#1042,#1043,#1044));
#128=EDGE_LOOP('',(#1045,#1046,#1047,#1048));
#129=EDGE_LOOP('',(#1049,#1050,#1051,#1052));
#130=EDGE_LOOP('',(#1053,#1054,#1055,#1056));
#131=EDGE_LOOP('',(#1057,#1058,#1059,#1060));
#132=EDGE_LOOP('',(#1061,#1062,#1063,#1064));
#133=EDGE_LOOP('',(#1065,#1066,#1067,#1068));
#134=EDGE_LOOP('',(#1069,#1070,#1071,#1072,#1073,#1074,#1075,#1076,#1077,
#1078,#1079,#1080,#1081,#1082,#1083,#1084,#1085,#1086,#1087,#1088,#1089,
#1090,#1091,#1092,#1093,#1094,#1095,#1096,#1097,#1098,#1099,#1100,#1101,
#1102,#1103,#1104));
#135=EDGE_LOOP('',(#1105,#1106,#1107,#1108));
#136=EDGE_LOOP('',(#1109,#1110,#1111,#1112));
#137=EDGE_LOOP('',(#1113,#1114,#1115,#1116,#1117,#1118,#1119,#1120));
#138=EDGE_LOOP('',(#1121,#1122,#1123,#1124,#1125,#1126,#1127,#1128));
#139=EDGE_LOOP('',(#1129,#1130,#1131,#1132));
#140=EDGE_LOOP('',(#1133,#1134,#1135));
#141=EDGE_LOOP('',(#1136,#1137,#1138));
#142=EDGE_LOOP('',(#1139,#1140,#1141));
#143=EDGE_LOOP('',(#1142,#1143,#1144,#1145));
#144=EDGE_LOOP('',(#1146,#1147,#1148));
#145=EDGE_LOOP('',(#1149,#1150,#1151,#1152,#1153,#1154,#1155,#1156));
#146=EDGE_LOOP('',(#1157,#1158,#1159,#1160));
#147=EDGE_LOOP('',(#1161,#1162,#1163,#1164));
#148=EDGE_LOOP('',(#1165,#1166,#1167,#1168));
#149=EDGE_LOOP('',(#1169,#1170,#1171,#1172));
#150=EDGE_LOOP('',(#1173,#1174,#1175,#1176));
#151=EDGE_LOOP('',(#1177,#1178,#1179,#1180));
#152=LINE('',#1717,#331);
#153=LINE('',#1719,#332);
#154=LINE('',#1721,#333);
#155=LINE('',#1723,#334);
#156=LINE('',#1725,#335);
#157=LINE('',#1727,#336);
#158=LINE('',#1728,#337);
#159=LINE('',#1732,#338);
#160=LINE('',#1734,#339);
#161=LINE('',#1736,#340);
#162=LINE('',#1738,#341);
#163=LINE('',#1740,#342);
#164=LINE('',#1742,#343);
#165=LINE('',#1743,#344);
#166=LINE('',#1749,#345);
#167=LINE('',#1753,#346);
#168=LINE('',#1757,#347);
#169=LINE('',#1759,#348);
#170=LINE('',#1761,#349);
#171=LINE('',#1763,#350);
#172=LINE('',#1764,#351);
#173=LINE('',#1766,#352);
#174=LINE('',#1768,#353);
#175=LINE('',#1770,#354);
#176=LINE('',#1772,#355);
#177=LINE('',#1773,#356);
#178=LINE('',#1776,#357);
#179=LINE('',#1778,#358);
#180=LINE('',#1780,#359);
#181=LINE('',#1781,#360);
#182=LINE('',#1784,#361);
#183=LINE('',#1786,#362);
#184=LINE('',#1788,#363);
#185=LINE('',#1789,#364);
#186=LINE('',#1792,#365);
#187=LINE('',#1793,#366);
#188=LINE('',#1796,#367);
#189=LINE('',#1797,#368);
#190=LINE('',#1800,#369);
#191=LINE('',#1802,#370);
#192=LINE('',#1804,#371);
#193=LINE('',#1805,#372);
#194=LINE('',#1807,#373);
#195=LINE('',#1809,#374);
#196=LINE('',#1811,#375);
#197=LINE('',#1813,#376);
#198=LINE('',#1815,#377);
#199=LINE('',#1817,#378);
#200=LINE('',#1819,#379);
#201=LINE('',#1821,#380);
#202=LINE('',#1823,#381);
#203=LINE('',#1825,#382);
#204=LINE('',#1827,#383);
#205=LINE('',#1829,#384);
#206=LINE('',#1830,#385);
#207=LINE('',#1833,#386);
#208=LINE('',#1835,#387);
#209=LINE('',#1837,#388);
#210=LINE('',#1839,#389);
#211=LINE('',#1841,#390);
#212=LINE('',#1843,#391);
#213=LINE('',#1845,#392);
#214=LINE('',#1847,#393);
#215=LINE('',#1849,#394);
#216=LINE('',#1851,#395);
#217=LINE('',#1853,#396);
#218=LINE('',#1855,#397);
#219=LINE('',#1857,#398);
#220=LINE('',#1859,#399);
#221=LINE('',#1861,#400);
#222=LINE('',#1863,#401);
#223=LINE('',#1865,#402);
#224=LINE('',#1867,#403);
#225=LINE('',#1869,#404);
#226=LINE('',#1871,#405);
#227=LINE('',#1873,#406);
#228=LINE('',#1875,#407);
#229=LINE('',#1877,#408);
#230=LINE('',#1879,#409);
#231=LINE('',#1881,#410);
#232=LINE('',#1883,#411);
#233=LINE('',#1884,#412);
#234=LINE('',#1885,#413);
#235=LINE('',#1888,#414);
#236=LINE('',#1889,#415);
#237=LINE('',#1892,#416);
#238=LINE('',#1893,#417);
#239=LINE('',#1897,#418);
#240=LINE('',#1899,#419);
#241=LINE('',#1901,#420);
#242=LINE('',#1902,#421);
#243=LINE('',#1905,#422);
#244=LINE('',#1906,#423);
#245=LINE('',#1909,#424);
#246=LINE('',#1910,#425);
#247=LINE('',#1913,#426);
#248=LINE('',#1914,#427);
#249=LINE('',#1917,#428);
#250=LINE('',#1918,#429);
#251=LINE('',#1921,#430);
#252=LINE('',#1922,#431);
#253=LINE('',#1925,#432);
#254=LINE('',#1926,#433);
#255=LINE('',#1929,#434);
#256=LINE('',#1930,#435);
#257=LINE('',#1933,#436);
#258=LINE('',#1934,#437);
#259=LINE('',#1937,#438);
#260=LINE('',#1938,#439);
#261=LINE('',#1941,#440);
#262=LINE('',#1942,#441);
#263=LINE('',#1945,#442);
#264=LINE('',#1946,#443);
#265=LINE('',#1949,#444);
#266=LINE('',#1950,#445);
#267=LINE('',#1953,#446);
#268=LINE('',#1954,#447);
#269=LINE('',#1957,#448);
#270=LINE('',#1958,#449);
#271=LINE('',#1961,#450);
#272=LINE('',#1962,#451);
#273=LINE('',#1965,#452);
#274=LINE('',#1966,#453);
#275=LINE('',#1969,#454);
#276=LINE('',#1970,#455);
#277=LINE('',#1972,#456);
#278=LINE('',#1973,#457);
#279=LINE('',#1975,#458);
#280=LINE('',#1978,#459);
#281=LINE('',#1980,#460);
#282=LINE('',#1981,#461);
#283=LINE('',#1984,#462);
#284=LINE('',#1986,#463);
#285=LINE('',#1987,#464);
#286=LINE('',#1989,#465);
#287=LINE('',#1992,#466);
#288=LINE('',#1993,#467);
#289=LINE('',#1996,#468);
#290=LINE('',#1998,#469);
#291=LINE('',#1999,#470);
#292=LINE('',#2001,#471);
#293=LINE('',#2004,#472);
#294=LINE('',#2005,#473);
#295=LINE('',#2008,#474);
#296=LINE('',#2009,#475);
#297=LINE('',#2012,#476);
#298=LINE('',#2014,#477);
#299=LINE('',#2015,#478);
#300=LINE('',#2018,#479);
#301=LINE('',#2020,#480);
#302=LINE('',#2021,#481);
#303=LINE('',#2023,#482);
#304=LINE('',#2026,#483);
#305=LINE('',#2027,#484);
#306=LINE('',#2029,#485);
#307=LINE('',#2031,#486);
#308=LINE('',#2034,#487);
#309=LINE('',#2035,#488);
#310=LINE('',#2037,#489);
#311=LINE('',#2039,#490);
#312=LINE('',#2043,#491);
#313=LINE('',#2045,#492);
#314=LINE('',#2046,#493);
#315=LINE('',#2047,#494);
#316=LINE('',#2048,#495);
#317=LINE('',#2053,#496);
#318=LINE('',#2055,#497);
#319=LINE('',#2061,#498);
#320=LINE('',#2063,#499);
#321=LINE('',#2065,#500);
#322=LINE('',#2066,#501);
#323=LINE('',#2069,#502);
#324=LINE('',#2071,#503);
#325=LINE('',#2072,#504);
#326=LINE('',#2075,#505);
#327=LINE('',#2077,#506);
#328=LINE('',#2078,#507);
#329=LINE('',#2080,#508);
#330=LINE('',#2081,#509);
#331=VECTOR('',#1398,10.);
#332=VECTOR('',#1399,10.);
#333=VECTOR('',#1400,10.);
#334=VECTOR('',#1401,10.);
#335=VECTOR('',#1402,10.);
#336=VECTOR('',#1403,10.);
#337=VECTOR('',#1404,10.);
#338=VECTOR('',#1407,10.);
#339=VECTOR('',#1408,10.);
#340=VECTOR('',#1409,10.);
#341=VECTOR('',#1410,10.);
#342=VECTOR('',#1411,10.);
#343=VECTOR('',#1412,10.);
#344=VECTOR('',#1413,10.);
#345=VECTOR('',#1420,10.);
#346=VECTOR('',#1423,10.);
#347=VECTOR('',#1428,10.);
#348=VECTOR('',#1429,10.);
#349=VECTOR('',#1430,10.);
#350=VECTOR('',#1431,10.);
#351=VECTOR('',#1432,10.);
#352=VECTOR('',#1433,10.);
#353=VECTOR('',#1434,10.);
#354=VECTOR('',#1435,10.);
#355=VECTOR('',#1436,10.);
#356=VECTOR('',#1437,10.);
#357=VECTOR('',#1440,10.);
#358=VECTOR('',#1441,10.);
#359=VECTOR('',#1442,10.);
#360=VECTOR('',#1443,10.);
#361=VECTOR('',#1446,10.);
#362=VECTOR('',#1447,10.);
#363=VECTOR('',#1448,10.);
#364=VECTOR('',#1449,10.);
#365=VECTOR('',#1452,10.);
#366=VECTOR('',#1453,10.);
#367=VECTOR('',#1456,10.);
#368=VECTOR('',#1457,10.);
#369=VECTOR('',#1460,10.);
#370=VECTOR('',#1461,10.);
#371=VECTOR('',#1462,10.);
#372=VECTOR('',#1463,10.);
#373=VECTOR('',#1466,10.);
#374=VECTOR('',#1467,10.);
#375=VECTOR('',#1468,10.);
#376=VECTOR('',#1469,10.);
#377=VECTOR('',#1470,10.);
#378=VECTOR('',#1471,10.);
#379=VECTOR('',#1472,10.);
#380=VECTOR('',#1473,10.);
#381=VECTOR('',#1474,10.);
#382=VECTOR('',#1475,10.);
#383=VECTOR('',#1476,10.);
#384=VECTOR('',#1477,10.);
#385=VECTOR('',#1478,10.);
#386=VECTOR('',#1481,10.);
#387=VECTOR('',#1482,10.);
#388=VECTOR('',#1483,10.);
#389=VECTOR('',#1484,10.);
#390=VECTOR('',#1485,10.);
#391=VECTOR('',#1486,10.);
#392=VECTOR('',#1487,10.);
#393=VECTOR('',#1488,10.);
#394=VECTOR('',#1489,10.);
#395=VECTOR('',#1490,10.);
#396=VECTOR('',#1491,10.);
#397=VECTOR('',#1492,10.);
#398=VECTOR('',#1493,10.);
#399=VECTOR('',#1494,10.);
#400=VECTOR('',#1495,10.);
#401=VECTOR('',#1496,10.);
#402=VECTOR('',#1497,10.);
#403=VECTOR('',#1498,10.);
#404=VECTOR('',#1499,10.);
#405=VECTOR('',#1500,10.);
#406=VECTOR('',#1501,10.);
#407=VECTOR('',#1502,10.);
#408=VECTOR('',#1503,10.);
#409=VECTOR('',#1504,10.);
#410=VECTOR('',#1505,10.);
#411=VECTOR('',#1506,10.);
#412=VECTOR('',#1507,10.);
#413=VECTOR('',#1508,10.);
#414=VECTOR('',#1511,10.);
#415=VECTOR('',#1512,10.);
#416=VECTOR('',#1515,10.);
#417=VECTOR('',#1516,10.);
#418=VECTOR('',#1519,10.);
#419=VECTOR('',#1520,10.);
#420=VECTOR('',#1521,10.);
#421=VECTOR('',#1522,10.);
#422=VECTOR('',#1525,10.);
#423=VECTOR('',#1526,10.);
#424=VECTOR('',#1529,10.);
#425=VECTOR('',#1530,10.);
#426=VECTOR('',#1533,10.);
#427=VECTOR('',#1534,10.);
#428=VECTOR('',#1537,10.);
#429=VECTOR('',#1538,10.);
#430=VECTOR('',#1541,10.);
#431=VECTOR('',#1542,10.);
#432=VECTOR('',#1545,10.);
#433=VECTOR('',#1546,10.);
#434=VECTOR('',#1549,10.);
#435=VECTOR('',#1550,10.);
#436=VECTOR('',#1553,10.);
#437=VECTOR('',#1554,10.);
#438=VECTOR('',#1557,10.);
#439=VECTOR('',#1558,10.);
#440=VECTOR('',#1561,10.);
#441=VECTOR('',#1562,10.);
#442=VECTOR('',#1565,10.);
#443=VECTOR('',#1566,10.);
#444=VECTOR('',#1569,10.);
#445=VECTOR('',#1570,10.);
#446=VECTOR('',#1573,10.);
#447=VECTOR('',#1574,10.);
#448=VECTOR('',#1577,10.);
#449=VECTOR('',#1578,10.);
#450=VECTOR('',#1581,10.);
#451=VECTOR('',#1582,10.);
#452=VECTOR('',#1585,10.);
#453=VECTOR('',#1586,10.);
#454=VECTOR('',#1589,10.);
#455=VECTOR('',#1590,10.);
#456=VECTOR('',#1593,10.);
#457=VECTOR('',#1594,10.);
#458=VECTOR('',#1597,10.);
#459=VECTOR('',#1600,10.);
#460=VECTOR('',#1601,10.);
#461=VECTOR('',#1602,10.);
#462=VECTOR('',#1605,10.);
#463=VECTOR('',#1606,10.);
#464=VECTOR('',#1607,10.);
#465=VECTOR('',#1610,10.);
#466=VECTOR('',#1613,10.);
#467=VECTOR('',#1614,10.);
#468=VECTOR('',#1617,10.);
#469=VECTOR('',#1618,10.);
#470=VECTOR('',#1619,10.);
#471=VECTOR('',#1622,10.);
#472=VECTOR('',#1625,10.);
#473=VECTOR('',#1626,10.);
#474=VECTOR('',#1629,10.);
#475=VECTOR('',#1630,10.);
#476=VECTOR('',#1633,10.);
#477=VECTOR('',#1634,10.);
#478=VECTOR('',#1635,10.);
#479=VECTOR('',#1638,10.);
#480=VECTOR('',#1639,10.);
#481=VECTOR('',#1640,10.);
#482=VECTOR('',#1643,10.);
#483=VECTOR('',#1646,10.);
#484=VECTOR('',#1647,10.);
#485=VECTOR('',#1650,10.);
#486=VECTOR('',#1653,10.);
#487=VECTOR('',#1656,10.);
#488=VECTOR('',#1657,10.);
#489=VECTOR('',#1660,10.);
#490=VECTOR('',#1663,10.);
#491=VECTOR('',#1668,10.);
#492=VECTOR('',#1669,10.);
#493=VECTOR('',#1670,10.);
#494=VECTOR('',#1671,10.);
#495=VECTOR('',#1672,10.);
#496=VECTOR('',#1681,10.);
#497=VECTOR('',#1684,10.);
#498=VECTOR('',#1691,10.);
#499=VECTOR('',#1692,10.);
#500=VECTOR('',#1693,10.);
#501=VECTOR('',#1694,10.);
#502=VECTOR('',#1697,10.);
#503=VECTOR('',#1698,10.);
#504=VECTOR('',#1699,10.);
#505=VECTOR('',#1702,10.);
#506=VECTOR('',#1703,10.);
#507=VECTOR('',#1704,10.);
#508=VECTOR('',#1707,10.);
#509=VECTOR('',#1708,10.);
#510=VERTEX_POINT('',#1715);
#511=VERTEX_POINT('',#1716);
#512=VERTEX_POINT('',#1718);
#513=VERTEX_POINT('',#1720);
#514=VERTEX_POINT('',#1722);
#515=VERTEX_POINT('',#1724);
#516=VERTEX_POINT('',#1726);
#517=VERTEX_POINT('',#1730);
#518=VERTEX_POINT('',#1731);
#519=VERTEX_POINT('',#1733);
#520=VERTEX_POINT('',#1735);
#521=VERTEX_POINT('',#1737);
#522=VERTEX_POINT('',#1739);
#523=VERTEX_POINT('',#1741);
#524=VERTEX_POINT('',#1746);
#525=VERTEX_POINT('',#1748);
#526=VERTEX_POINT('',#1750);
#527=VERTEX_POINT('',#1752);
#528=VERTEX_POINT('',#1756);
#529=VERTEX_POINT('',#1758);
#530=VERTEX_POINT('',#1760);
#531=VERTEX_POINT('',#1762);
#532=VERTEX_POINT('',#1765);
#533=VERTEX_POINT('',#1767);
#534=VERTEX_POINT('',#1769);
#535=VERTEX_POINT('',#1771);
#536=VERTEX_POINT('',#1775);
#537=VERTEX_POINT('',#1777);
#538=VERTEX_POINT('',#1779);
#539=VERTEX_POINT('',#1783);
#540=VERTEX_POINT('',#1785);
#541=VERTEX_POINT('',#1787);
#542=VERTEX_POINT('',#1791);
#543=VERTEX_POINT('',#1795);
#544=VERTEX_POINT('',#1799);
#545=VERTEX_POINT('',#1801);
#546=VERTEX_POINT('',#1803);
#547=VERTEX_POINT('',#1808);
#548=VERTEX_POINT('',#1810);
#549=VERTEX_POINT('',#1812);
#550=VERTEX_POINT('',#1814);
#551=VERTEX_POINT('',#1816);
#552=VERTEX_POINT('',#1818);
#553=VERTEX_POINT('',#1820);
#554=VERTEX_POINT('',#1822);
#555=VERTEX_POINT('',#1824);
#556=VERTEX_POINT('',#1826);
#557=VERTEX_POINT('',#1828);
#558=VERTEX_POINT('',#1832);
#559=VERTEX_POINT('',#1834);
#560=VERTEX_POINT('',#1836);
#561=VERTEX_POINT('',#1838);
#562=VERTEX_POINT('',#1840);
#563=VERTEX_POINT('',#1842);
#564=VERTEX_POINT('',#1844);
#565=VERTEX_POINT('',#1846);
#566=VERTEX_POINT('',#1848);
#567=VERTEX_POINT('',#1850);
#568=VERTEX_POINT('',#1852);
#569=VERTEX_POINT('',#1854);
#570=VERTEX_POINT('',#1856);
#571=VERTEX_POINT('',#1858);
#572=VERTEX_POINT('',#1860);
#573=VERTEX_POINT('',#1862);
#574=VERTEX_POINT('',#1864);
#575=VERTEX_POINT('',#1866);
#576=VERTEX_POINT('',#1868);
#577=VERTEX_POINT('',#1870);
#578=VERTEX_POINT('',#1872);
#579=VERTEX_POINT('',#1874);
#580=VERTEX_POINT('',#1876);
#581=VERTEX_POINT('',#1878);
#582=VERTEX_POINT('',#1880);
#583=VERTEX_POINT('',#1882);
#584=VERTEX_POINT('',#1887);
#585=VERTEX_POINT('',#1891);
#586=VERTEX_POINT('',#1895);
#587=VERTEX_POINT('',#1896);
#588=VERTEX_POINT('',#1898);
#589=VERTEX_POINT('',#1900);
#590=VERTEX_POINT('',#1904);
#591=VERTEX_POINT('',#1908);
#592=VERTEX_POINT('',#1912);
#593=VERTEX_POINT('',#1916);
#594=VERTEX_POINT('',#1920);
#595=VERTEX_POINT('',#1924);
#596=VERTEX_POINT('',#1928);
#597=VERTEX_POINT('',#1932);
#598=VERTEX_POINT('',#1936);
#599=VERTEX_POINT('',#1940);
#600=VERTEX_POINT('',#1944);
#601=VERTEX_POINT('',#1948);
#602=VERTEX_POINT('',#1952);
#603=VERTEX_POINT('',#1956);
#604=VERTEX_POINT('',#1960);
#605=VERTEX_POINT('',#1964);
#606=VERTEX_POINT('',#1968);
#607=VERTEX_POINT('',#1977);
#608=VERTEX_POINT('',#1979);
#609=VERTEX_POINT('',#1983);
#610=VERTEX_POINT('',#1985);
#611=VERTEX_POINT('',#1991);
#612=VERTEX_POINT('',#1995);
#613=VERTEX_POINT('',#1997);
#614=VERTEX_POINT('',#2003);
#615=VERTEX_POINT('',#2007);
#616=VERTEX_POINT('',#2011);
#617=VERTEX_POINT('',#2013);
#618=VERTEX_POINT('',#2017);
#619=VERTEX_POINT('',#2019);
#620=VERTEX_POINT('',#2025);
#621=VERTEX_POINT('',#2033);
#622=VERTEX_POINT('',#2042);
#623=VERTEX_POINT('',#2044);
#624=VERTEX_POINT('',#2059);
#625=VERTEX_POINT('',#2060);
#626=VERTEX_POINT('',#2062);
#627=VERTEX_POINT('',#2064);
#628=VERTEX_POINT('',#2068);
#629=VERTEX_POINT('',#2070);
#630=VERTEX_POINT('',#2074);
#631=VERTEX_POINT('',#2076);
#632=EDGE_CURVE('',#510,#511,#152,.T.);
#633=EDGE_CURVE('',#510,#512,#153,.T.);
#634=EDGE_CURVE('',#513,#512,#154,.T.);
#635=EDGE_CURVE('',#514,#513,#155,.T.);
#636=EDGE_CURVE('',#515,#514,#156,.T.);
#637=EDGE_CURVE('',#516,#515,#157,.T.);
#638=EDGE_CURVE('',#511,#516,#158,.T.);
#639=EDGE_CURVE('',#517,#518,#159,.T.);
#640=EDGE_CURVE('',#519,#517,#160,.T.);
#641=EDGE_CURVE('',#520,#519,#161,.T.);
#642=EDGE_CURVE('',#521,#520,#162,.T.);
#643=EDGE_CURVE('',#522,#521,#163,.T.);
#644=EDGE_CURVE('',#523,#522,#164,.T.);
#645=EDGE_CURVE('',#523,#518,#165,.T.);
#646=EDGE_CURVE('',#518,#510,#17,.T.);
#647=EDGE_CURVE('',#524,#523,#18,.T.);
#648=EDGE_CURVE('',#525,#524,#166,.T.);
#649=EDGE_CURVE('',#526,#525,#19,.T.);
#650=EDGE_CURVE('',#527,#526,#167,.T.);
#651=EDGE_CURVE('',#512,#527,#20,.T.);
#652=EDGE_CURVE('',#516,#528,#168,.T.);
#653=EDGE_CURVE('',#528,#529,#169,.T.);
#654=EDGE_CURVE('',#530,#529,#170,.T.);
#655=EDGE_CURVE('',#531,#530,#171,.T.);
#656=EDGE_CURVE('',#531,#519,#172,.T.);
#657=EDGE_CURVE('',#532,#517,#173,.T.);
#658=EDGE_CURVE('',#533,#532,#174,.T.);
#659=EDGE_CURVE('',#534,#533,#175,.T.);
#660=EDGE_CURVE('',#535,#534,#176,.T.);
#661=EDGE_CURVE('',#511,#535,#177,.T.);
#662=EDGE_CURVE('',#536,#531,#178,.T.);
#663=EDGE_CURVE('',#537,#536,#179,.T.);
#664=EDGE_CURVE('',#538,#537,#180,.T.);
#665=EDGE_CURVE('',#520,#538,#181,.T.);
#666=EDGE_CURVE('',#539,#515,#182,.T.);
#667=EDGE_CURVE('',#540,#539,#183,.T.);
#668=EDGE_CURVE('',#541,#540,#184,.T.);
#669=EDGE_CURVE('',#541,#528,#185,.T.);
#670=EDGE_CURVE('',#542,#538,#186,.T.);
#671=EDGE_CURVE('',#521,#542,#187,.T.);
#672=EDGE_CURVE('',#543,#514,#188,.T.);
#673=EDGE_CURVE('',#539,#543,#189,.T.);
#674=EDGE_CURVE('',#544,#527,#190,.T.);
#675=EDGE_CURVE('',#545,#544,#191,.T.);
#676=EDGE_CURVE('',#545,#546,#192,.T.);
#677=EDGE_CURVE('',#513,#546,#193,.T.);
#678=EDGE_CURVE('',#542,#537,#194,.T.);
#679=EDGE_CURVE('',#536,#547,#195,.T.);
#680=EDGE_CURVE('',#547,#548,#196,.F.);
#681=EDGE_CURVE('',#548,#549,#197,.T.);
#682=EDGE_CURVE('',#549,#550,#198,.T.);
#683=EDGE_CURVE('',#550,#551,#199,.T.);
#684=EDGE_CURVE('',#551,#552,#200,.F.);
#685=EDGE_CURVE('',#552,#553,#201,.T.);
#686=EDGE_CURVE('',#553,#554,#202,.T.);
#687=EDGE_CURVE('',#554,#555,#203,.T.);
#688=EDGE_CURVE('',#555,#556,#204,.F.);
#689=EDGE_CURVE('',#556,#557,#205,.T.);
#690=EDGE_CURVE('',#557,#522,#206,.T.);
#691=EDGE_CURVE('',#546,#558,#207,.T.);
#692=EDGE_CURVE('',#558,#559,#208,.F.);
#693=EDGE_CURVE('',#559,#560,#209,.T.);
#694=EDGE_CURVE('',#560,#561,#210,.F.);
#695=EDGE_CURVE('',#561,#562,#211,.T.);
#696=EDGE_CURVE('',#562,#563,#212,.T.);
#697=EDGE_CURVE('',#563,#564,#213,.T.);
#698=EDGE_CURVE('',#564,#565,#214,.F.);
#699=EDGE_CURVE('',#565,#566,#215,.T.);
#700=EDGE_CURVE('',#566,#567,#216,.T.);
#701=EDGE_CURVE('',#567,#568,#217,.T.);
#702=EDGE_CURVE('',#568,#569,#218,.F.);
#703=EDGE_CURVE('',#569,#570,#219,.T.);
#704=EDGE_CURVE('',#570,#571,#220,.T.);
#705=EDGE_CURVE('',#571,#572,#221,.T.);
#706=EDGE_CURVE('',#572,#573,#222,.F.);
#707=EDGE_CURVE('',#573,#574,#223,.T.);
#708=EDGE_CURVE('',#574,#575,#224,.T.);
#709=EDGE_CURVE('',#575,#576,#225,.T.);
#710=EDGE_CURVE('',#576,#577,#226,.F.);
#711=EDGE_CURVE('',#577,#578,#227,.T.);
#712=EDGE_CURVE('',#578,#579,#228,.T.);
#713=EDGE_CURVE('',#579,#580,#229,.T.);
#714=EDGE_CURVE('',#580,#581,#230,.T.);
#715=EDGE_CURVE('',#581,#582,#231,.T.);
#716=EDGE_CURVE('',#582,#583,#232,.T.);
#717=EDGE_CURVE('',#583,#541,#233,.T.);
#718=EDGE_CURVE('',#540,#543,#234,.T.);
#719=EDGE_CURVE('',#584,#526,#235,.T.);
#720=EDGE_CURVE('',#544,#584,#236,.T.);
#721=EDGE_CURVE('',#525,#585,#237,.T.);
#722=EDGE_CURVE('',#585,#584,#238,.F.);
#723=EDGE_CURVE('',#586,#587,#239,.T.);
#724=EDGE_CURVE('',#588,#586,#240,.T.);
#725=EDGE_CURVE('',#589,#588,#241,.T.);
#726=EDGE_CURVE('',#587,#589,#242,.T.);
#727=EDGE_CURVE('',#558,#590,#243,.T.);
#728=EDGE_CURVE('',#590,#545,#244,.T.);
#729=EDGE_CURVE('',#591,#559,#245,.T.);
#730=EDGE_CURVE('',#590,#591,#246,.F.);
#731=EDGE_CURVE('',#592,#560,#247,.F.);
#732=EDGE_CURVE('',#591,#592,#248,.T.);
#733=EDGE_CURVE('',#593,#561,#249,.T.);
#734=EDGE_CURVE('',#592,#593,#250,.F.);
#735=EDGE_CURVE('',#594,#562,#251,.T.);
#736=EDGE_CURVE('',#594,#593,#252,.T.);
#737=EDGE_CURVE('',#595,#563,#253,.T.);
#738=EDGE_CURVE('',#595,#594,#254,.T.);
#739=EDGE_CURVE('',#564,#596,#255,.T.);
#740=EDGE_CURVE('',#596,#595,#256,.T.);
#741=EDGE_CURVE('',#597,#565,#257,.T.);
#742=EDGE_CURVE('',#596,#597,#258,.F.);
#743=EDGE_CURVE('',#598,#566,#259,.T.);
#744=EDGE_CURVE('',#598,#597,#260,.T.);
#745=EDGE_CURVE('',#599,#567,#261,.T.);
#746=EDGE_CURVE('',#599,#598,#262,.T.);
#747=EDGE_CURVE('',#568,#600,#263,.T.);
#748=EDGE_CURVE('',#600,#599,#264,.T.);
#749=EDGE_CURVE('',#601,#569,#265,.T.);
#750=EDGE_CURVE('',#600,#601,#266,.F.);
#751=EDGE_CURVE('',#602,#570,#267,.T.);
#752=EDGE_CURVE('',#602,#601,#268,.T.);
#753=EDGE_CURVE('',#603,#571,#269,.T.);
#754=EDGE_CURVE('',#603,#602,#270,.T.);
#755=EDGE_CURVE('',#572,#604,#271,.T.);
#756=EDGE_CURVE('',#604,#603,#272,.T.);
#757=EDGE_CURVE('',#605,#573,#273,.T.);
#758=EDGE_CURVE('',#604,#605,#274,.F.);
#759=EDGE_CURVE('',#606,#574,#275,.T.);
#760=EDGE_CURVE('',#606,#605,#276,.T.);
#761=EDGE_CURVE('',#588,#533,#277,.F.);
#762=EDGE_CURVE('',#532,#589,#278,.T.);
#763=EDGE_CURVE('',#586,#534,#279,.T.);
#764=EDGE_CURVE('',#555,#607,#280,.T.);
#765=EDGE_CURVE('',#608,#554,#281,.T.);
#766=EDGE_CURVE('',#607,#608,#282,.T.);
#767=EDGE_CURVE('',#609,#553,#283,.T.);
#768=EDGE_CURVE('',#610,#552,#284,.T.);
#769=EDGE_CURVE('',#609,#610,#285,.T.);
#770=EDGE_CURVE('',#608,#609,#286,.T.);
#771=EDGE_CURVE('',#611,#524,#287,.T.);
#772=EDGE_CURVE('',#585,#611,#288,.T.);
#773=EDGE_CURVE('',#612,#557,#289,.T.);
#774=EDGE_CURVE('',#613,#556,#290,.T.);
#775=EDGE_CURVE('',#612,#613,#291,.T.);
#776=EDGE_CURVE('',#611,#612,#292,.T.);
#777=EDGE_CURVE('',#614,#575,#293,.T.);
#778=EDGE_CURVE('',#614,#606,#294,.T.);
#779=EDGE_CURVE('',#576,#615,#295,.T.);
#780=EDGE_CURVE('',#615,#614,#296,.T.);
#781=EDGE_CURVE('',#551,#616,#297,.T.);
#782=EDGE_CURVE('',#617,#550,#298,.T.);
#783=EDGE_CURVE('',#616,#617,#299,.T.);
#784=EDGE_CURVE('',#618,#549,#300,.T.);
#785=EDGE_CURVE('',#619,#548,#301,.T.);
#786=EDGE_CURVE('',#618,#619,#302,.T.);
#787=EDGE_CURVE('',#617,#618,#303,.T.);
#788=EDGE_CURVE('',#620,#547,#304,.T.);
#789=EDGE_CURVE('',#620,#619,#305,.F.);
#790=EDGE_CURVE('',#616,#610,#306,.F.);
#791=EDGE_CURVE('',#607,#613,#307,.F.);
#792=EDGE_CURVE('',#621,#620,#308,.T.);
#793=EDGE_CURVE('',#615,#621,#309,.F.);
#794=EDGE_CURVE('',#621,#577,#310,.F.);
#795=EDGE_CURVE('',#587,#535,#311,.T.);
#796=EDGE_CURVE('',#622,#582,#312,.T.);
#797=EDGE_CURVE('',#623,#622,#313,.T.);
#798=EDGE_CURVE('',#579,#623,#314,.T.);
#799=EDGE_CURVE('',#530,#578,#315,.T.);
#800=EDGE_CURVE('',#529,#583,#316,.T.);
#801=EDGE_CURVE('',#622,#581,#317,.T.);
#802=EDGE_CURVE('',#623,#580,#318,.F.);
#803=EDGE_CURVE('',#624,#625,#319,.F.);
#804=EDGE_CURVE('',#624,#626,#320,.F.);
#805=EDGE_CURVE('',#627,#626,#321,.F.);
#806=EDGE_CURVE('',#625,#627,#322,.F.);
#807=EDGE_CURVE('',#625,#628,#323,.F.);
#808=EDGE_CURVE('',#629,#627,#324,.F.);
#809=EDGE_CURVE('',#628,#629,#325,.T.);
#810=EDGE_CURVE('',#630,#628,#326,.T.);
#811=EDGE_CURVE('',#631,#629,#327,.F.);
#812=EDGE_CURVE('',#630,#631,#328,.T.);
#813=EDGE_CURVE('',#630,#624,#329,.F.);
#814=EDGE_CURVE('',#626,#631,#330,.F.);
#815=ORIENTED_EDGE('',*,*,#632,.F.);
#816=ORIENTED_EDGE('',*,*,#633,.T.);
#817=ORIENTED_EDGE('',*,*,#634,.F.);
#818=ORIENTED_EDGE('',*,*,#635,.F.);
#819=ORIENTED_EDGE('',*,*,#636,.F.);
#820=ORIENTED_EDGE('',*,*,#637,.F.);
#821=ORIENTED_EDGE('',*,*,#638,.F.);
#822=ORIENTED_EDGE('',*,*,#639,.F.);
#823=ORIENTED_EDGE('',*,*,#640,.F.);
#824=ORIENTED_EDGE('',*,*,#641,.F.);
#825=ORIENTED_EDGE('',*,*,#642,.F.);
#826=ORIENTED_EDGE('',*,*,#643,.F.);
#827=ORIENTED_EDGE('',*,*,#644,.F.);
#828=ORIENTED_EDGE('',*,*,#645,.T.);
#829=ORIENTED_EDGE('',*,*,#646,.F.);
#830=ORIENTED_EDGE('',*,*,#645,.F.);
#831=ORIENTED_EDGE('',*,*,#647,.F.);
#832=ORIENTED_EDGE('',*,*,#648,.F.);
#833=ORIENTED_EDGE('',*,*,#649,.F.);
#834=ORIENTED_EDGE('',*,*,#650,.F.);
#835=ORIENTED_EDGE('',*,*,#651,.F.);
#836=ORIENTED_EDGE('',*,*,#633,.F.);
#837=ORIENTED_EDGE('',*,*,#638,.T.);
#838=ORIENTED_EDGE('',*,*,#652,.T.);
#839=ORIENTED_EDGE('',*,*,#653,.T.);
#840=ORIENTED_EDGE('',*,*,#654,.F.);
#841=ORIENTED_EDGE('',*,*,#655,.F.);
#842=ORIENTED_EDGE('',*,*,#656,.T.);
#843=ORIENTED_EDGE('',*,*,#640,.T.);
#844=ORIENTED_EDGE('',*,*,#657,.F.);
#845=ORIENTED_EDGE('',*,*,#658,.F.);
#846=ORIENTED_EDGE('',*,*,#659,.F.);
#847=ORIENTED_EDGE('',*,*,#660,.F.);
#848=ORIENTED_EDGE('',*,*,#661,.F.);
#849=ORIENTED_EDGE('',*,*,#641,.T.);
#850=ORIENTED_EDGE('',*,*,#656,.F.);
#851=ORIENTED_EDGE('',*,*,#662,.F.);
#852=ORIENTED_EDGE('',*,*,#663,.F.);
#853=ORIENTED_EDGE('',*,*,#664,.F.);
#854=ORIENTED_EDGE('',*,*,#665,.F.);
#855=ORIENTED_EDGE('',*,*,#637,.T.);
#856=ORIENTED_EDGE('',*,*,#666,.F.);
#857=ORIENTED_EDGE('',*,*,#667,.F.);
#858=ORIENTED_EDGE('',*,*,#668,.F.);
#859=ORIENTED_EDGE('',*,*,#669,.T.);
#860=ORIENTED_EDGE('',*,*,#652,.F.);
#861=ORIENTED_EDGE('',*,*,#642,.T.);
#862=ORIENTED_EDGE('',*,*,#665,.T.);
#863=ORIENTED_EDGE('',*,*,#670,.F.);
#864=ORIENTED_EDGE('',*,*,#671,.F.);
#865=ORIENTED_EDGE('',*,*,#636,.T.);
#866=ORIENTED_EDGE('',*,*,#672,.F.);
#867=ORIENTED_EDGE('',*,*,#673,.F.);
#868=ORIENTED_EDGE('',*,*,#666,.T.);
#869=ORIENTED_EDGE('',*,*,#634,.T.);
#870=ORIENTED_EDGE('',*,*,#651,.T.);
#871=ORIENTED_EDGE('',*,*,#674,.F.);
#872=ORIENTED_EDGE('',*,*,#675,.F.);
#873=ORIENTED_EDGE('',*,*,#676,.T.);
#874=ORIENTED_EDGE('',*,*,#677,.F.);
#875=ORIENTED_EDGE('',*,*,#643,.T.);
#876=ORIENTED_EDGE('',*,*,#671,.T.);
#877=ORIENTED_EDGE('',*,*,#678,.T.);
#878=ORIENTED_EDGE('',*,*,#663,.T.);
#879=ORIENTED_EDGE('',*,*,#679,.T.);
#880=ORIENTED_EDGE('',*,*,#680,.T.);
#881=ORIENTED_EDGE('',*,*,#681,.T.);
#882=ORIENTED_EDGE('',*,*,#682,.T.);
#883=ORIENTED_EDGE('',*,*,#683,.T.);
#884=ORIENTED_EDGE('',*,*,#684,.T.);
#885=ORIENTED_EDGE('',*,*,#685,.T.);
#886=ORIENTED_EDGE('',*,*,#686,.T.);
#887=ORIENTED_EDGE('',*,*,#687,.T.);
#888=ORIENTED_EDGE('',*,*,#688,.T.);
#889=ORIENTED_EDGE('',*,*,#689,.T.);
#890=ORIENTED_EDGE('',*,*,#690,.T.);
#891=ORIENTED_EDGE('',*,*,#635,.T.);
#892=ORIENTED_EDGE('',*,*,#677,.T.);
#893=ORIENTED_EDGE('',*,*,#691,.T.);
#894=ORIENTED_EDGE('',*,*,#692,.T.);
#895=ORIENTED_EDGE('',*,*,#693,.T.);
#896=ORIENTED_EDGE('',*,*,#694,.T.);
#897=ORIENTED_EDGE('',*,*,#695,.T.);
#898=ORIENTED_EDGE('',*,*,#696,.T.);
#899=ORIENTED_EDGE('',*,*,#697,.T.);
#900=ORIENTED_EDGE('',*,*,#698,.T.);
#901=ORIENTED_EDGE('',*,*,#699,.T.);
#902=ORIENTED_EDGE('',*,*,#700,.T.);
#903=ORIENTED_EDGE('',*,*,#701,.T.);
#904=ORIENTED_EDGE('',*,*,#702,.T.);
#905=ORIENTED_EDGE('',*,*,#703,.T.);
#906=ORIENTED_EDGE('',*,*,#704,.T.);
#907=ORIENTED_EDGE('',*,*,#705,.T.);
#908=ORIENTED_EDGE('',*,*,#706,.T.);
#909=ORIENTED_EDGE('',*,*,#707,.T.);
#910=ORIENTED_EDGE('',*,*,#708,.T.);
#911=ORIENTED_EDGE('',*,*,#709,.T.);
#912=ORIENTED_EDGE('',*,*,#710,.T.);
#913=ORIENTED_EDGE('',*,*,#711,.T.);
#914=ORIENTED_EDGE('',*,*,#712,.T.);
#915=ORIENTED_EDGE('',*,*,#713,.T.);
#916=ORIENTED_EDGE('',*,*,#714,.T.);
#917=ORIENTED_EDGE('',*,*,#715,.T.);
#918=ORIENTED_EDGE('',*,*,#716,.T.);
#919=ORIENTED_EDGE('',*,*,#717,.T.);
#920=ORIENTED_EDGE('',*,*,#668,.T.);
#921=ORIENTED_EDGE('',*,*,#718,.T.);
#922=ORIENTED_EDGE('',*,*,#672,.T.);
#923=ORIENTED_EDGE('',*,*,#650,.T.);
#924=ORIENTED_EDGE('',*,*,#719,.F.);
#925=ORIENTED_EDGE('',*,*,#720,.F.);
#926=ORIENTED_EDGE('',*,*,#674,.T.);
#927=ORIENTED_EDGE('',*,*,#649,.T.);
#928=ORIENTED_EDGE('',*,*,#721,.T.);
#929=ORIENTED_EDGE('',*,*,#722,.T.);
#930=ORIENTED_EDGE('',*,*,#719,.T.);
#931=ORIENTED_EDGE('',*,*,#723,.F.);
#932=ORIENTED_EDGE('',*,*,#724,.F.);
#933=ORIENTED_EDGE('',*,*,#725,.F.);
#934=ORIENTED_EDGE('',*,*,#726,.F.);
#935=ORIENTED_EDGE('',*,*,#727,.F.);
#936=ORIENTED_EDGE('',*,*,#691,.F.);
#937=ORIENTED_EDGE('',*,*,#676,.F.);
#938=ORIENTED_EDGE('',*,*,#728,.F.);
#939=ORIENTED_EDGE('',*,*,#729,.T.);
#940=ORIENTED_EDGE('',*,*,#692,.F.);
#941=ORIENTED_EDGE('',*,*,#727,.T.);
#942=ORIENTED_EDGE('',*,*,#730,.T.);
#943=ORIENTED_EDGE('',*,*,#731,.T.);
#944=ORIENTED_EDGE('',*,*,#693,.F.);
#945=ORIENTED_EDGE('',*,*,#729,.F.);
#946=ORIENTED_EDGE('',*,*,#732,.T.);
#947=ORIENTED_EDGE('',*,*,#733,.T.);
#948=ORIENTED_EDGE('',*,*,#694,.F.);
#949=ORIENTED_EDGE('',*,*,#731,.F.);
#950=ORIENTED_EDGE('',*,*,#734,.T.);
#951=ORIENTED_EDGE('',*,*,#735,.T.);
#952=ORIENTED_EDGE('',*,*,#695,.F.);
#953=ORIENTED_EDGE('',*,*,#733,.F.);
#954=ORIENTED_EDGE('',*,*,#736,.F.);
#955=ORIENTED_EDGE('',*,*,#737,.T.);
#956=ORIENTED_EDGE('',*,*,#696,.F.);
#957=ORIENTED_EDGE('',*,*,#735,.F.);
#958=ORIENTED_EDGE('',*,*,#738,.F.);
#959=ORIENTED_EDGE('',*,*,#739,.F.);
#960=ORIENTED_EDGE('',*,*,#697,.F.);
#961=ORIENTED_EDGE('',*,*,#737,.F.);
#962=ORIENTED_EDGE('',*,*,#740,.F.);
#963=ORIENTED_EDGE('',*,*,#741,.T.);
#964=ORIENTED_EDGE('',*,*,#698,.F.);
#965=ORIENTED_EDGE('',*,*,#739,.T.);
#966=ORIENTED_EDGE('',*,*,#742,.T.);
#967=ORIENTED_EDGE('',*,*,#743,.T.);
#968=ORIENTED_EDGE('',*,*,#699,.F.);
#969=ORIENTED_EDGE('',*,*,#741,.F.);
#970=ORIENTED_EDGE('',*,*,#744,.F.);
#971=ORIENTED_EDGE('',*,*,#745,.T.);
#972=ORIENTED_EDGE('',*,*,#700,.F.);
#973=ORIENTED_EDGE('',*,*,#743,.F.);
#974=ORIENTED_EDGE('',*,*,#746,.F.);
#975=ORIENTED_EDGE('',*,*,#747,.F.);
#976=ORIENTED_EDGE('',*,*,#701,.F.);
#977=ORIENTED_EDGE('',*,*,#745,.F.);
#978=ORIENTED_EDGE('',*,*,#748,.F.);
#979=ORIENTED_EDGE('',*,*,#749,.T.);
#980=ORIENTED_EDGE('',*,*,#702,.F.);
#981=ORIENTED_EDGE('',*,*,#747,.T.);
#982=ORIENTED_EDGE('',*,*,#750,.T.);
#983=ORIENTED_EDGE('',*,*,#751,.T.);
#984=ORIENTED_EDGE('',*,*,#703,.F.);
#985=ORIENTED_EDGE('',*,*,#749,.F.);
#986=ORIENTED_EDGE('',*,*,#752,.F.);
#987=ORIENTED_EDGE('',*,*,#753,.T.);
#988=ORIENTED_EDGE('',*,*,#704,.F.);
#989=ORIENTED_EDGE('',*,*,#751,.F.);
#990=ORIENTED_EDGE('',*,*,#754,.F.);
#991=ORIENTED_EDGE('',*,*,#755,.F.);
#992=ORIENTED_EDGE('',*,*,#705,.F.);
#993=ORIENTED_EDGE('',*,*,#753,.F.);
#994=ORIENTED_EDGE('',*,*,#756,.F.);
#995=ORIENTED_EDGE('',*,*,#757,.T.);
#996=ORIENTED_EDGE('',*,*,#706,.F.);
#997=ORIENTED_EDGE('',*,*,#755,.T.);
#998=ORIENTED_EDGE('',*,*,#758,.T.);
#999=ORIENTED_EDGE('',*,*,#759,.T.);
#1000=ORIENTED_EDGE('',*,*,#707,.F.);
#1001=ORIENTED_EDGE('',*,*,#757,.F.);
#1002=ORIENTED_EDGE('',*,*,#760,.F.);
#1003=ORIENTED_EDGE('',*,*,#725,.T.);
#1004=ORIENTED_EDGE('',*,*,#761,.T.);
#1005=ORIENTED_EDGE('',*,*,#658,.T.);
#1006=ORIENTED_EDGE('',*,*,#762,.T.);
#1007=ORIENTED_EDGE('',*,*,#724,.T.);
#1008=ORIENTED_EDGE('',*,*,#763,.T.);
#1009=ORIENTED_EDGE('',*,*,#659,.T.);
#1010=ORIENTED_EDGE('',*,*,#761,.F.);
#1011=ORIENTED_EDGE('',*,*,#764,.F.);
#1012=ORIENTED_EDGE('',*,*,#687,.F.);
#1013=ORIENTED_EDGE('',*,*,#765,.F.);
#1014=ORIENTED_EDGE('',*,*,#766,.F.);
#1015=ORIENTED_EDGE('',*,*,#767,.T.);
#1016=ORIENTED_EDGE('',*,*,#685,.F.);
#1017=ORIENTED_EDGE('',*,*,#768,.F.);
#1018=ORIENTED_EDGE('',*,*,#769,.F.);
#1019=ORIENTED_EDGE('',*,*,#765,.T.);
#1020=ORIENTED_EDGE('',*,*,#686,.F.);
#1021=ORIENTED_EDGE('',*,*,#767,.F.);
#1022=ORIENTED_EDGE('',*,*,#770,.F.);
#1023=ORIENTED_EDGE('',*,*,#648,.T.);
#1024=ORIENTED_EDGE('',*,*,#771,.F.);
#1025=ORIENTED_EDGE('',*,*,#772,.F.);
#1026=ORIENTED_EDGE('',*,*,#721,.F.);
#1027=ORIENTED_EDGE('',*,*,#773,.T.);
#1028=ORIENTED_EDGE('',*,*,#689,.F.);
#1029=ORIENTED_EDGE('',*,*,#774,.F.);
#1030=ORIENTED_EDGE('',*,*,#775,.F.);
#1031=ORIENTED_EDGE('',*,*,#644,.T.);
#1032=ORIENTED_EDGE('',*,*,#690,.F.);
#1033=ORIENTED_EDGE('',*,*,#773,.F.);
#1034=ORIENTED_EDGE('',*,*,#776,.F.);
#1035=ORIENTED_EDGE('',*,*,#771,.T.);
#1036=ORIENTED_EDGE('',*,*,#647,.T.);
#1037=ORIENTED_EDGE('',*,*,#777,.T.);
#1038=ORIENTED_EDGE('',*,*,#708,.F.);
#1039=ORIENTED_EDGE('',*,*,#759,.F.);
#1040=ORIENTED_EDGE('',*,*,#778,.F.);
#1041=ORIENTED_EDGE('',*,*,#779,.F.);
#1042=ORIENTED_EDGE('',*,*,#709,.F.);
#1043=ORIENTED_EDGE('',*,*,#777,.F.);
#1044=ORIENTED_EDGE('',*,*,#780,.F.);
#1045=ORIENTED_EDGE('',*,*,#781,.F.);
#1046=ORIENTED_EDGE('',*,*,#683,.F.);
#1047=ORIENTED_EDGE('',*,*,#782,.F.);
#1048=ORIENTED_EDGE('',*,*,#783,.F.);
#1049=ORIENTED_EDGE('',*,*,#784,.T.);
#1050=ORIENTED_EDGE('',*,*,#681,.F.);
#1051=ORIENTED_EDGE('',*,*,#785,.F.);
#1052=ORIENTED_EDGE('',*,*,#786,.F.);
#1053=ORIENTED_EDGE('',*,*,#782,.T.);
#1054=ORIENTED_EDGE('',*,*,#682,.F.);
#1055=ORIENTED_EDGE('',*,*,#784,.F.);
#1056=ORIENTED_EDGE('',*,*,#787,.F.);
#1057=ORIENTED_EDGE('',*,*,#785,.T.);
#1058=ORIENTED_EDGE('',*,*,#680,.F.);
#1059=ORIENTED_EDGE('',*,*,#788,.F.);
#1060=ORIENTED_EDGE('',*,*,#789,.T.);
#1061=ORIENTED_EDGE('',*,*,#768,.T.);
#1062=ORIENTED_EDGE('',*,*,#684,.F.);
#1063=ORIENTED_EDGE('',*,*,#781,.T.);
#1064=ORIENTED_EDGE('',*,*,#790,.T.);
#1065=ORIENTED_EDGE('',*,*,#774,.T.);
#1066=ORIENTED_EDGE('',*,*,#688,.F.);
#1067=ORIENTED_EDGE('',*,*,#764,.T.);
#1068=ORIENTED_EDGE('',*,*,#791,.T.);
#1069=ORIENTED_EDGE('',*,*,#756,.T.);
#1070=ORIENTED_EDGE('',*,*,#754,.T.);
#1071=ORIENTED_EDGE('',*,*,#752,.T.);
#1072=ORIENTED_EDGE('',*,*,#750,.F.);
#1073=ORIENTED_EDGE('',*,*,#748,.T.);
#1074=ORIENTED_EDGE('',*,*,#746,.T.);
#1075=ORIENTED_EDGE('',*,*,#744,.T.);
#1076=ORIENTED_EDGE('',*,*,#742,.F.);
#1077=ORIENTED_EDGE('',*,*,#740,.T.);
#1078=ORIENTED_EDGE('',*,*,#738,.T.);
#1079=ORIENTED_EDGE('',*,*,#736,.T.);
#1080=ORIENTED_EDGE('',*,*,#734,.F.);
#1081=ORIENTED_EDGE('',*,*,#732,.F.);
#1082=ORIENTED_EDGE('',*,*,#730,.F.);
#1083=ORIENTED_EDGE('',*,*,#728,.T.);
#1084=ORIENTED_EDGE('',*,*,#675,.T.);
#1085=ORIENTED_EDGE('',*,*,#720,.T.);
#1086=ORIENTED_EDGE('',*,*,#722,.F.);
#1087=ORIENTED_EDGE('',*,*,#772,.T.);
#1088=ORIENTED_EDGE('',*,*,#776,.T.);
#1089=ORIENTED_EDGE('',*,*,#775,.T.);
#1090=ORIENTED_EDGE('',*,*,#791,.F.);
#1091=ORIENTED_EDGE('',*,*,#766,.T.);
#1092=ORIENTED_EDGE('',*,*,#770,.T.);
#1093=ORIENTED_EDGE('',*,*,#769,.T.);
#1094=ORIENTED_EDGE('',*,*,#790,.F.);
#1095=ORIENTED_EDGE('',*,*,#783,.T.);
#1096=ORIENTED_EDGE('',*,*,#787,.T.);
#1097=ORIENTED_EDGE('',*,*,#786,.T.);
#1098=ORIENTED_EDGE('',*,*,#789,.F.);
#1099=ORIENTED_EDGE('',*,*,#792,.F.);
#1100=ORIENTED_EDGE('',*,*,#793,.F.);
#1101=ORIENTED_EDGE('',*,*,#780,.T.);
#1102=ORIENTED_EDGE('',*,*,#778,.T.);
#1103=ORIENTED_EDGE('',*,*,#760,.T.);
#1104=ORIENTED_EDGE('',*,*,#758,.F.);
#1105=ORIENTED_EDGE('',*,*,#794,.T.);
#1106=ORIENTED_EDGE('',*,*,#710,.F.);
#1107=ORIENTED_EDGE('',*,*,#779,.T.);
#1108=ORIENTED_EDGE('',*,*,#793,.T.);
#1109=ORIENTED_EDGE('',*,*,#723,.T.);
#1110=ORIENTED_EDGE('',*,*,#795,.T.);
#1111=ORIENTED_EDGE('',*,*,#660,.T.);
#1112=ORIENTED_EDGE('',*,*,#763,.F.);
#1113=ORIENTED_EDGE('',*,*,#632,.T.);
#1114=ORIENTED_EDGE('',*,*,#661,.T.);
#1115=ORIENTED_EDGE('',*,*,#795,.F.);
#1116=ORIENTED_EDGE('',*,*,#726,.T.);
#1117=ORIENTED_EDGE('',*,*,#762,.F.);
#1118=ORIENTED_EDGE('',*,*,#657,.T.);
#1119=ORIENTED_EDGE('',*,*,#639,.T.);
#1120=ORIENTED_EDGE('',*,*,#646,.T.);
#1121=ORIENTED_EDGE('',*,*,#796,.F.);
#1122=ORIENTED_EDGE('',*,*,#797,.F.);
#1123=ORIENTED_EDGE('',*,*,#798,.F.);
#1124=ORIENTED_EDGE('',*,*,#712,.F.);
#1125=ORIENTED_EDGE('',*,*,#799,.F.);
#1126=ORIENTED_EDGE('',*,*,#654,.T.);
#1127=ORIENTED_EDGE('',*,*,#800,.T.);
#1128=ORIENTED_EDGE('',*,*,#716,.F.);
#1129=ORIENTED_EDGE('',*,*,#653,.F.);
#1130=ORIENTED_EDGE('',*,*,#669,.F.);
#1131=ORIENTED_EDGE('',*,*,#717,.F.);
#1132=ORIENTED_EDGE('',*,*,#800,.F.);
#1133=ORIENTED_EDGE('',*,*,#664,.T.);
#1134=ORIENTED_EDGE('',*,*,#678,.F.);
#1135=ORIENTED_EDGE('',*,*,#670,.T.);
#1136=ORIENTED_EDGE('',*,*,#667,.T.);
#1137=ORIENTED_EDGE('',*,*,#673,.T.);
#1138=ORIENTED_EDGE('',*,*,#718,.F.);
#1139=ORIENTED_EDGE('',*,*,#796,.T.);
#1140=ORIENTED_EDGE('',*,*,#715,.F.);
#1141=ORIENTED_EDGE('',*,*,#801,.F.);
#1142=ORIENTED_EDGE('',*,*,#797,.T.);
#1143=ORIENTED_EDGE('',*,*,#801,.T.);
#1144=ORIENTED_EDGE('',*,*,#714,.F.);
#1145=ORIENTED_EDGE('',*,*,#802,.F.);
#1146=ORIENTED_EDGE('',*,*,#798,.T.);
#1147=ORIENTED_EDGE('',*,*,#802,.T.);
#1148=ORIENTED_EDGE('',*,*,#713,.F.);
#1149=ORIENTED_EDGE('',*,*,#788,.T.);
#1150=ORIENTED_EDGE('',*,*,#679,.F.);
#1151=ORIENTED_EDGE('',*,*,#662,.T.);
#1152=ORIENTED_EDGE('',*,*,#655,.T.);
#1153=ORIENTED_EDGE('',*,*,#799,.T.);
#1154=ORIENTED_EDGE('',*,*,#711,.F.);
#1155=ORIENTED_EDGE('',*,*,#794,.F.);
#1156=ORIENTED_EDGE('',*,*,#792,.T.);
#1157=ORIENTED_EDGE('',*,*,#803,.F.);
#1158=ORIENTED_EDGE('',*,*,#804,.T.);
#1159=ORIENTED_EDGE('',*,*,#805,.F.);
#1160=ORIENTED_EDGE('',*,*,#806,.F.);
#1161=ORIENTED_EDGE('',*,*,#807,.F.);
#1162=ORIENTED_EDGE('',*,*,#806,.T.);
#1163=ORIENTED_EDGE('',*,*,#808,.F.);
#1164=ORIENTED_EDGE('',*,*,#809,.F.);
#1165=ORIENTED_EDGE('',*,*,#810,.T.);
#1166=ORIENTED_EDGE('',*,*,#809,.T.);
#1167=ORIENTED_EDGE('',*,*,#811,.F.);
#1168=ORIENTED_EDGE('',*,*,#812,.F.);
#1169=ORIENTED_EDGE('',*,*,#813,.F.);
#1170=ORIENTED_EDGE('',*,*,#812,.T.);
#1171=ORIENTED_EDGE('',*,*,#814,.F.);
#1172=ORIENTED_EDGE('',*,*,#804,.F.);
#1173=ORIENTED_EDGE('',*,*,#813,.T.);
#1174=ORIENTED_EDGE('',*,*,#803,.T.);
#1175=ORIENTED_EDGE('',*,*,#807,.T.);
#1176=ORIENTED_EDGE('',*,*,#810,.F.);
#1177=ORIENTED_EDGE('',*,*,#814,.T.);
#1178=ORIENTED_EDGE('',*,*,#811,.T.);
#1179=ORIENTED_EDGE('',*,*,#808,.T.);
#1180=ORIENTED_EDGE('',*,*,#805,.T.);
#1181=PLANE('',#1325);
#1182=PLANE('',#1326);
#1183=PLANE('',#1332);
#1184=PLANE('',#1333);
#1185=PLANE('',#1334);
#1186=PLANE('',#1335);
#1187=PLANE('',#1336);
#1188=PLANE('',#1337);
#1189=PLANE('',#1338);
#1190=PLANE('',#1339);
#1191=PLANE('',#1340);
#1192=PLANE('',#1341);
#1193=PLANE('',#1342);
#1194=PLANE('',#1343);
#1195=PLANE('',#1344);
#1196=PLANE('',#1345);
#1197=PLANE('',#1346);
#1198=PLANE('',#1347);
#1199=PLANE('',#1348);
#1200=PLANE('',#1349);
#1201=PLANE('',#1350);
#1202=PLANE('',#1351);
#1203=PLANE('',#1352);
#1204=PLANE('',#1353);
#1205=PLANE('',#1354);
#1206=PLANE('',#1355);
#1207=PLANE('',#1356);
#1208=PLANE('',#1357);
#1209=PLANE('',#1358);
#1210=PLANE('',#1359);
#1211=PLANE('',#1360);
#1212=PLANE('',#1361);
#1213=PLANE('',#1362);
#1214=PLANE('',#1363);
#1215=PLANE('',#1364);
#1216=PLANE('',#1365);
#1217=PLANE('',#1366);
#1218=PLANE('',#1367);
#1219=PLANE('',#1368);
#1220=PLANE('',#1369);
#1221=PLANE('',#1370);
#1222=PLANE('',#1371);
#1223=PLANE('',#1372);
#1224=PLANE('',#1373);
#1225=PLANE('',#1374);
#1226=PLANE('',#1375);
#1227=PLANE('',#1376);
#1228=PLANE('',#1377);
#1229=PLANE('',#1378);
#1230=PLANE('',#1379);
#1231=PLANE('',#1380);
#1232=PLANE('',#1381);
#1233=PLANE('',#1382);
#1234=PLANE('',#1383);
#1235=PLANE('',#1384);
#1236=PLANE('',#1385);
#1237=PLANE('',#1386);
#1238=PLANE('',#1387);
#1239=PLANE('',#1388);
#1240=PLANE('',#1389);
#1241=PLANE('',#1390);
#1242=PLANE('',#1391);
#1243=PLANE('',#1392);
#1244=PLANE('',#1393);
#1245=ADVANCED_FACE('',(#22),#1181,.F.);
#1246=ADVANCED_FACE('',(#23),#1182,.F.);
#1247=ADVANCED_FACE('',(#24),#21,.F.);
#1248=ADVANCED_FACE('',(#25),#1183,.F.);
#1249=ADVANCED_FACE('',(#26),#1184,.F.);
#1250=ADVANCED_FACE('',(#27),#1185,.F.);
#1251=ADVANCED_FACE('',(#28),#1186,.F.);
#1252=ADVANCED_FACE('',(#29),#1187,.F.);
#1253=ADVANCED_FACE('',(#30),#1188,.F.);
#1254=ADVANCED_FACE('',(#31),#1189,.T.);
#1255=ADVANCED_FACE('',(#32),#1190,.T.);
#1256=ADVANCED_FACE('',(#33),#1191,.F.);
#1257=ADVANCED_FACE('',(#34),#1192,.T.);
#1258=ADVANCED_FACE('',(#35),#1193,.T.);
#1259=ADVANCED_FACE('',(#36),#1194,.F.);
#1260=ADVANCED_FACE('',(#37),#1195,.T.);
#1261=ADVANCED_FACE('',(#38),#1196,.T.);
#1262=ADVANCED_FACE('',(#39),#1197,.T.);
#1263=ADVANCED_FACE('',(#40),#1198,.F.);
#1264=ADVANCED_FACE('',(#41),#1199,.F.);
#1265=ADVANCED_FACE('',(#42),#1200,.F.);
#1266=ADVANCED_FACE('',(#43),#1201,.T.);
#1267=ADVANCED_FACE('',(#44),#1202,.F.);
#1268=ADVANCED_FACE('',(#45),#1203,.F.);
#1269=ADVANCED_FACE('',(#46),#1204,.F.);
#1270=ADVANCED_FACE('',(#47),#1205,.T.);
#1271=ADVANCED_FACE('',(#48),#1206,.F.);
#1272=ADVANCED_FACE('',(#49),#1207,.F.);
#1273=ADVANCED_FACE('',(#50),#1208,.F.);
#1274=ADVANCED_FACE('',(#51),#1209,.T.);
#1275=ADVANCED_FACE('',(#52),#1210,.F.);
#1276=ADVANCED_FACE('',(#53),#1211,.T.);
#1277=ADVANCED_FACE('',(#54),#1212,.F.);
#1278=ADVANCED_FACE('',(#55),#1213,.F.);
#1279=ADVANCED_FACE('',(#56),#1214,.F.);
#1280=ADVANCED_FACE('',(#57),#1215,.F.);
#1281=ADVANCED_FACE('',(#58),#1216,.F.);
#1282=ADVANCED_FACE('',(#59),#1217,.F.);
#1283=ADVANCED_FACE('',(#60),#1218,.F.);
#1284=ADVANCED_FACE('',(#61),#1219,.F.);
#1285=ADVANCED_FACE('',(#62),#1220,.F.);
#1286=ADVANCED_FACE('',(#63),#1221,.F.);
#1287=ADVANCED_FACE('',(#64),#1222,.F.);
#1288=ADVANCED_FACE('',(#65),#1223,.F.);
#1289=ADVANCED_FACE('',(#66),#1224,.T.);
#1290=ADVANCED_FACE('',(#67),#1225,.T.);
#1291=ADVANCED_FACE('',(#68),#1226,.T.);
#1292=ADVANCED_FACE('',(#69),#1227,.F.);
#1293=ADVANCED_FACE('',(#70),#1228,.T.);
#1294=ADVANCED_FACE('',(#71),#1229,.F.);
#1295=ADVANCED_FACE('',(#72),#1230,.F.);
#1296=ADVANCED_FACE('',(#73),#1231,.F.);
#1297=ADVANCED_FACE('',(#74),#1232,.F.);
#1298=ADVANCED_FACE('',(#75),#1233,.T.);
#1299=ADVANCED_FACE('',(#76),#1234,.F.);
#1300=ADVANCED_FACE('',(#77),#1235,.F.);
#1301=ADVANCED_FACE('',(#78),#1236,.F.);
#1302=ADVANCED_FACE('',(#79),#1237,.T.);
#1303=ADVANCED_FACE('',(#80),#1238,.F.);
#1304=ADVANCED_FACE('',(#81),#1239,.T.);
#1305=ADVANCED_FACE('',(#82),#1240,.T.);
#1306=ADVANCED_FACE('',(#83),#1241,.T.);
#1307=ADVANCED_FACE('',(#84),#1242,.T.);
#1308=ADVANCED_FACE('',(#85),#1243,.T.);
#1309=ADVANCED_FACE('',(#86),#1244,.T.);
#1310=CLOSED_SHELL('',(#1245,#1246,#1247,#1248,#1249,#1250,#1251,#1252,
#1253,#1254,#1255,#1256,#1257,#1258,#1259,#1260,#1261,#1262,#1263,#1264,
#1265,#1266,#1267,#1268,#1269,#1270,#1271,#1272,#1273,#1274,#1275,#1276,
#1277,#1278,#1279,#1280,#1281,#1282,#1283,#1284,#1285,#1286,#1287,#1288,
#1289,#1290,#1291,#1292,#1293,#1294,#1295,#1296,#1297,#1298,#1299,#1300,
#1301,#1302,#1303));
#1311=CLOSED_SHELL('',(#1304,#1305,#1306,#1307,#1308,#1309));
#1312=DERIVED_UNIT_ELEMENT(#1314,1.);
#1313=DERIVED_UNIT_ELEMENT(#2089,-3.);
#1314=(
MASS_UNIT()
NAMED_UNIT(*)
SI_UNIT(.KILO.,.GRAM.)
);
#1315=DERIVED_UNIT((#1312,#1313));
#1316=MEASURE_REPRESENTATION_ITEM('density measure',
POSITIVE_RATIO_MEASURE(7850.),#1315);
#1317=PROPERTY_DEFINITION_REPRESENTATION(#1322,#1319);
#1318=PROPERTY_DEFINITION_REPRESENTATION(#1323,#1320);
#1319=REPRESENTATION('material name',(#1321),#2086);
#1320=REPRESENTATION('density',(#1316),#2086);
#1321=DESCRIPTIVE_REPRESENTATION_ITEM('Steel','Steel');
#1322=PROPERTY_DEFINITION('material property','material name',#2096);
#1323=PROPERTY_DEFINITION('material property','density of part',#2096);
#1324=AXIS2_PLACEMENT_3D('',#1713,#1394,#1395);
#1325=AXIS2_PLACEMENT_3D('',#1714,#1396,#1397);
#1326=AXIS2_PLACEMENT_3D('',#1729,#1405,#1406);
#1327=AXIS2_PLACEMENT_3D('',#1744,#1414,#1415);
#1328=AXIS2_PLACEMENT_3D('',#1745,#1416,#1417);
#1329=AXIS2_PLACEMENT_3D('',#1747,#1418,#1419);
#1330=AXIS2_PLACEMENT_3D('',#1751,#1421,#1422);
#1331=AXIS2_PLACEMENT_3D('',#1754,#1424,#1425);
#1332=AXIS2_PLACEMENT_3D('',#1755,#1426,#1427);
#1333=AXIS2_PLACEMENT_3D('',#1774,#1438,#1439);
#1334=AXIS2_PLACEMENT_3D('',#1782,#1444,#1445);
#1335=AXIS2_PLACEMENT_3D('',#1790,#1450,#1451);
#1336=AXIS2_PLACEMENT_3D('',#1794,#1454,#1455);
#1337=AXIS2_PLACEMENT_3D('',#1798,#1458,#1459);
#1338=AXIS2_PLACEMENT_3D('',#1806,#1464,#1465);
#1339=AXIS2_PLACEMENT_3D('',#1831,#1479,#1480);
#1340=AXIS2_PLACEMENT_3D('',#1886,#1509,#1510);
#1341=AXIS2_PLACEMENT_3D('',#1890,#1513,#1514);
#1342=AXIS2_PLACEMENT_3D('',#1894,#1517,#1518);
#1343=AXIS2_PLACEMENT_3D('',#1903,#1523,#1524);
#1344=AXIS2_PLACEMENT_3D('',#1907,#1527,#1528);
#1345=AXIS2_PLACEMENT_3D('',#1911,#1531,#1532);
#1346=AXIS2_PLACEMENT_3D('',#1915,#1535,#1536);
#1347=AXIS2_PLACEMENT_3D('',#1919,#1539,#1540);
#1348=AXIS2_PLACEMENT_3D('',#1923,#1543,#1544);
#1349=AXIS2_PLACEMENT_3D('',#1927,#1547,#1548);
#1350=AXIS2_PLACEMENT_3D('',#1931,#1551,#1552);
#1351=AXIS2_PLACEMENT_3D('',#1935,#1555,#1556);
#1352=AXIS2_PLACEMENT_3D('',#1939,#1559,#1560);
#1353=AXIS2_PLACEMENT_3D('',#1943,#1563,#1564);
#1354=AXIS2_PLACEMENT_3D('',#1947,#1567,#1568);
#1355=AXIS2_PLACEMENT_3D('',#1951,#1571,#1572);
#1356=AXIS2_PLACEMENT_3D('',#1955,#1575,#1576);
#1357=AXIS2_PLACEMENT_3D('',#1959,#1579,#1580);
#1358=AXIS2_PLACEMENT_3D('',#1963,#1583,#1584);
#1359=AXIS2_PLACEMENT_3D('',#1967,#1587,#1588);
#1360=AXIS2_PLACEMENT_3D('',#1971,#1591,#1592);
#1361=AXIS2_PLACEMENT_3D('',#1974,#1595,#1596);
#1362=AXIS2_PLACEMENT_3D('',#1976,#1598,#1599);
#1363=AXIS2_PLACEMENT_3D('',#1982,#1603,#1604);
#1364=AXIS2_PLACEMENT_3D('',#1988,#1608,#1609);
#1365=AXIS2_PLACEMENT_3D('',#1990,#1611,#1612);
#1366=AXIS2_PLACEMENT_3D('',#1994,#1615,#1616);
#1367=AXIS2_PLACEMENT_3D('',#2000,#1620,#1621);
#1368=AXIS2_PLACEMENT_3D('',#2002,#1623,#1624);
#1369=AXIS2_PLACEMENT_3D('',#2006,#1627,#1628);
#1370=AXIS2_PLACEMENT_3D('',#2010,#1631,#1632);
#1371=AXIS2_PLACEMENT_3D('',#2016,#1636,#1637);
#1372=AXIS2_PLACEMENT_3D('',#2022,#1641,#1642);
#1373=AXIS2_PLACEMENT_3D('',#2024,#1644,#1645);
#1374=AXIS2_PLACEMENT_3D('',#2028,#1648,#1649);
#1375=AXIS2_PLACEMENT_3D('',#2030,#1651,#1652);
#1376=AXIS2_PLACEMENT_3D('',#2032,#1654,#1655);
#1377=AXIS2_PLACEMENT_3D('',#2036,#1658,#1659);
#1378=AXIS2_PLACEMENT_3D('',#2038,#1661,#1662);
#1379=AXIS2_PLACEMENT_3D('',#2040,#1664,#1665);
#1380=AXIS2_PLACEMENT_3D('',#2041,#1666,#1667);
#1381=AXIS2_PLACEMENT_3D('',#2049,#1673,#1674);
#1382=AXIS2_PLACEMENT_3D('',#2050,#1675,#1676);
#1383=AXIS2_PLACEMENT_3D('',#2051,#1677,#1678);
#1384=AXIS2_PLACEMENT_3D('',#2052,#1679,#1680);
#1385=AXIS2_PLACEMENT_3D('',#2054,#1682,#1683);
#1386=AXIS2_PLACEMENT_3D('',#2056,#1685,#1686);
#1387=AXIS2_PLACEMENT_3D('',#2057,#1687,#1688);
#1388=AXIS2_PLACEMENT_3D('',#2058,#1689,#1690);
#1389=AXIS2_PLACEMENT_3D('',#2067,#1695,#1696);
#1390=AXIS2_PLACEMENT_3D('',#2073,#1700,#1701);
#1391=AXIS2_PLACEMENT_3D('',#2079,#1705,#1706);
#1392=AXIS2_PLACEMENT_3D('',#2082,#1709,#1710);
#1393=AXIS2_PLACEMENT_3D('',#2083,#1711,#1712);
#1394=DIRECTION('axis',(0.,0.,1.));
#1395=DIRECTION('refdir',(1.,0.,0.));
#1396=DIRECTION('center_axis',(5.29850066644998E-16,0.,1.));
#1397=DIRECTION('ref_axis',(1.,0.,-5.29850066644998E-16));
#1398=DIRECTION('',(-1.,0.,5.29850066644998E-16));
#1399=DIRECTION('',(0.,-1.,0.));
#1400=DIRECTION('',(1.,0.,-5.29850066644998E-16));
#1401=DIRECTION('',(0.,-1.,0.));
#1402=DIRECTION('',(-1.,0.,5.29850066644998E-16));
#1403=DIRECTION('',(-0.782774077722872,0.622305988437446,4.1475289724944E-16));
#1404=DIRECTION('',(0.,-1.,0.));
#1405=DIRECTION('center_axis',(-2.64925033322499E-16,0.,-1.));
#1406=DIRECTION('ref_axis',(-1.,0.,2.64925033322499E-16));
#1407=DIRECTION('',(1.,0.,-2.64925033322499E-16));
#1408=DIRECTION('',(0.,1.,0.));
#1409=DIRECTION('',(0.782774077722872,-0.622305988437446,-2.0737644862472E-16));
#1410=DIRECTION('',(1.,0.,-2.64925033322499E-16));
#1411=DIRECTION('',(0.,1.,0.));
#1412=DIRECTION('',(-1.,0.,2.64925033322499E-16));
#1413=DIRECTION('',(0.,1.,0.));
#1414=DIRECTION('center_axis',(0.,1.,0.));
#1415=DIRECTION('ref_axis',(0.,0.,-1.));
#1416=DIRECTION('center_axis',(0.,-1.,0.));
#1417=DIRECTION('ref_axis',(0.,0.,-1.));
#1418=DIRECTION('center_axis',(0.,1.,0.));
#1419=DIRECTION('ref_axis',(0.,0.,-1.));
#1420=DIRECTION('',(0.,1.,0.));
#1421=DIRECTION('center_axis',(0.,1.,0.));
#1422=DIRECTION('ref_axis',(0.,0.,-1.));
#1423=DIRECTION('',(0.,-1.,0.));
#1424=DIRECTION('center_axis',(0.,1.,0.));
#1425=DIRECTION('ref_axis',(0.,0.,-1.));
#1426=DIRECTION('center_axis',(1.,0.,0.));
#1427=DIRECTION('ref_axis',(0.,1.,0.));
#1428=DIRECTION('',(0.,0.,1.));
#1429=DIRECTION('',(0.,1.,0.));
#1430=DIRECTION('',(0.,0.,1.));
#1431=DIRECTION('',(0.,1.,0.));
#1432=DIRECTION('',(0.,0.,1.));
#1433=DIRECTION('',(0.,0.,1.));
#1434=DIRECTION('',(0.,-1.,0.));
#1435=DIRECTION('',(0.,0.,-1.));
#1436=DIRECTION('',(0.,1.,0.));
#1437=DIRECTION('',(0.,0.,1.));
#1438=DIRECTION('center_axis',(-0.622305988437446,-0.782774077722872,0.));
#1439=DIRECTION('ref_axis',(0.782774077722872,-0.622305988437446,0.));
#1440=DIRECTION('',(0.782774077722872,-0.622305988437446,0.));
#1441=DIRECTION('',(0.,0.,-1.));
#1442=DIRECTION('',(-0.782774077722872,0.622305988437446,0.));
#1443=DIRECTION('',(0.,0.,-1.));
#1444=DIRECTION('center_axis',(-0.622305988437446,-0.782774077722872,0.));
#1445=DIRECTION('ref_axis',(0.782774077722872,-0.622305988437446,0.));
#1446=DIRECTION('',(0.,0.,-1.));
#1447=DIRECTION('',(0.782774077722872,-0.622305988437446,0.));
#1448=DIRECTION('',(0.,0.,-1.));
#1449=DIRECTION('',(0.782774077722872,-0.622305988437446,0.));
#1450=DIRECTION('center_axis',(0.,-1.,0.));
#1451=DIRECTION('ref_axis',(1.,0.,0.));
#1452=DIRECTION('',(1.,0.,0.));
#1453=DIRECTION('',(0.,0.,-1.));
#1454=DIRECTION('center_axis',(0.,-1.,0.));
#1455=DIRECTION('ref_axis',(1.,0.,0.));
#1456=DIRECTION('',(0.,0.,-1.));
#1457=DIRECTION('',(-1.,0.,0.));
#1458=DIRECTION('center_axis',(0.,1.,0.));
#1459=DIRECTION('ref_axis',(0.,0.,-1.));
#1460=DIRECTION('',(-1.,0.,0.));
#1461=DIRECTION('',(0.,0.,-1.));
#1462=DIRECTION('',(-1.,0.,0.));
#1463=DIRECTION('',(0.,0.,1.));
#1464=DIRECTION('center_axis',(-1.,0.,0.));
#1465=DIRECTION('ref_axis',(0.,0.,1.));
#1466=DIRECTION('',(0.,1.,0.));
#1467=DIRECTION('',(0.,-1.,0.));
#1468=DIRECTION('',(0.,0.,-1.));
#1469=DIRECTION('',(0.,1.,0.));
#1470=DIRECTION('',(0.,0.,1.));
#1471=DIRECTION('',(0.,-1.,0.));
#1472=DIRECTION('',(0.,0.,-1.));
#1473=DIRECTION('',(0.,1.,0.));
#1474=DIRECTION('',(0.,4.44089209850063E-15,1.));
#1475=DIRECTION('',(0.,-1.,0.));
#1476=DIRECTION('',(0.,0.,-1.));
#1477=DIRECTION('',(0.,1.,2.1885516543751E-16));
#1478=DIRECTION('',(0.,0.,1.));
#1479=DIRECTION('center_axis',(-1.,0.,0.));
#1480=DIRECTION('ref_axis',(0.,0.,1.));
#1481=DIRECTION('',(0.,-1.,0.));
#1482=DIRECTION('',(0.,0.,-1.));
#1483=DIRECTION('',(0.,1.,0.));
#1484=DIRECTION('',(0.,0.,1.));
#1485=DIRECTION('',(0.,-1.,-1.75130965293947E-15));
#1486=DIRECTION('',(0.,0.,-1.));
#1487=DIRECTION('',(0.,1.,1.75130965293947E-15));
#1488=DIRECTION('',(0.,0.,1.));
#1489=DIRECTION('',(0.,-1.,0.));
#1490=DIRECTION('',(0.,0.,-1.));
#1491=DIRECTION('',(0.,1.,0.));
#1492=DIRECTION('',(0.,0.,1.));
#1493=DIRECTION('',(0.,-1.,0.));
#1494=DIRECTION('',(0.,4.44089209850062E-15,-1.));
#1495=DIRECTION('',(0.,1.,0.));
#1496=DIRECTION('',(0.,0.,1.));
#1497=DIRECTION('',(0.,-1.,0.));
#1498=DIRECTION('',(0.,0.,-1.));
#1499=DIRECTION('',(0.,1.,0.));
#1500=DIRECTION('',(0.,0.,1.));
#1501=DIRECTION('',(0.,-1.,0.));
#1502=DIRECTION('',(0.,0.,1.));
#1503=DIRECTION('',(0.,1.,0.));
#1504=DIRECTION('',(0.,0.,1.));
#1505=DIRECTION('',(0.,-1.,0.));
#1506=DIRECTION('',(0.,0.,1.));
#1507=DIRECTION('',(0.,-1.,0.));
#1508=DIRECTION('',(0.,-1.,0.));
#1509=DIRECTION('center_axis',(0.,0.,-1.));
#1510=DIRECTION('ref_axis',(0.,-1.,0.));
#1511=DIRECTION('',(-1.,0.,0.));
#1512=DIRECTION('',(0.,-1.,0.));
#1513=DIRECTION('center_axis',(0.,-1.,0.));
#1514=DIRECTION('ref_axis',(1.,0.,0.));
#1515=DIRECTION('',(1.,0.,0.));
#1516=DIRECTION('',(0.,0.,-1.));
#1517=DIRECTION('center_axis',(-1.,0.,0.));
#1518=DIRECTION('ref_axis',(0.,0.,1.));
#1519=DIRECTION('',(0.,-1.,0.));
#1520=DIRECTION('',(0.,0.,1.));
#1521=DIRECTION('',(0.,1.,0.));
#1522=DIRECTION('',(0.,0.,-1.));
#1523=DIRECTION('center_axis',(0.,0.,1.));
#1524=DIRECTION('ref_axis',(0.,1.,0.));
#1525=DIRECTION('',(1.,0.,0.));
#1526=DIRECTION('',(0.,1.,0.));
#1527=DIRECTION('center_axis',(0.,-1.,0.));
#1528=DIRECTION('ref_axis',(1.,0.,0.));
#1529=DIRECTION('',(-1.,0.,0.));
#1530=DIRECTION('',(0.,0.,-1.));
#1531=DIRECTION('center_axis',(0.,0.,1.));
#1532=DIRECTION('ref_axis',(1.,0.,0.));
#1533=DIRECTION('',(1.,0.,0.));
#1534=DIRECTION('',(0.,1.,0.));
#1535=DIRECTION('center_axis',(0.,1.,0.));
#1536=DIRECTION('ref_axis',(-1.,0.,0.));
#1537=DIRECTION('',(-1.,0.,0.));
#1538=DIRECTION('',(0.,0.,1.));
#1539=DIRECTION('center_axis',(0.,-1.75130965293947E-15,1.));
#1540=DIRECTION('ref_axis',(0.,1.,1.75130965293947E-15));
#1541=DIRECTION('',(-1.,0.,0.));
#1542=DIRECTION('',(0.,1.,1.75130965293947E-15));
#1543=DIRECTION('center_axis',(0.,-1.,0.));
#1544=DIRECTION('ref_axis',(0.,0.,1.));
#1545=DIRECTION('',(-1.,0.,0.));
#1546=DIRECTION('',(0.,0.,1.));
#1547=DIRECTION('center_axis',(0.,1.75130965293947E-15,-1.));
#1548=DIRECTION('ref_axis',(0.,-1.,-1.75130965293947E-15));
#1549=DIRECTION('',(1.,0.,0.));
#1550=DIRECTION('',(0.,-1.,-1.75130965293947E-15));
#1551=DIRECTION('center_axis',(0.,1.,0.));
#1552=DIRECTION('ref_axis',(-1.,0.,0.));
#1553=DIRECTION('',(-1.,0.,0.));
#1554=DIRECTION('',(0.,0.,1.));
#1555=DIRECTION('center_axis',(0.,0.,1.));
#1556=DIRECTION('ref_axis',(0.,1.,0.));
#1557=DIRECTION('',(-1.,0.,0.));
#1558=DIRECTION('',(0.,1.,0.));
#1559=DIRECTION('center_axis',(0.,-1.,0.));
#1560=DIRECTION('ref_axis',(0.,0.,1.));
#1561=DIRECTION('',(-1.,0.,0.));
#1562=DIRECTION('',(0.,0.,1.));
#1563=DIRECTION('center_axis',(0.,0.,-1.));
#1564=DIRECTION('ref_axis',(0.,-1.,0.));
#1565=DIRECTION('',(1.,0.,0.));
#1566=DIRECTION('',(0.,-1.,0.));
#1567=DIRECTION('center_axis',(0.,1.,0.));
#1568=DIRECTION('ref_axis',(-1.,0.,0.));
#1569=DIRECTION('',(-1.,0.,0.));
#1570=DIRECTION('',(0.,0.,1.));
#1571=DIRECTION('center_axis',(0.,0.,1.));
#1572=DIRECTION('ref_axis',(0.,1.,0.));
#1573=DIRECTION('',(-1.,0.,0.));
#1574=DIRECTION('',(0.,1.,0.));
#1575=DIRECTION('center_axis',(0.,-1.,-4.44089209850062E-15));
#1576=DIRECTION('ref_axis',(0.,-4.44089209850062E-15,1.));
#1577=DIRECTION('',(-1.,0.,0.));
#1578=DIRECTION('',(0.,-4.44089209850062E-15,1.));
#1579=DIRECTION('center_axis',(0.,0.,-1.));
#1580=DIRECTION('ref_axis',(0.,-1.,0.));
#1581=DIRECTION('',(1.,0.,0.));
#1582=DIRECTION('',(0.,-1.,0.));
#1583=DIRECTION('center_axis',(0.,1.,0.));
#1584=DIRECTION('ref_axis',(-1.,0.,0.));
#1585=DIRECTION('',(-1.,0.,0.));
#1586=DIRECTION('',(0.,0.,1.));
#1587=DIRECTION('center_axis',(0.,0.,1.));
#1588=DIRECTION('ref_axis',(0.,1.,0.));
#1589=DIRECTION('',(-1.,0.,0.));
#1590=DIRECTION('',(0.,1.,0.));
#1591=DIRECTION('center_axis',(0.,0.,1.));
#1592=DIRECTION('ref_axis',(1.,0.,0.));
#1593=DIRECTION('',(1.,0.,0.));
#1594=DIRECTION('',(1.,0.,0.));
#1595=DIRECTION('center_axis',(0.,1.,0.));
#1596=DIRECTION('ref_axis',(-1.,0.,0.));
#1597=DIRECTION('',(-1.,0.,0.));
#1598=DIRECTION('center_axis',(0.,0.,1.));
#1599=DIRECTION('ref_axis',(0.,1.,0.));
#1600=DIRECTION('',(1.,0.,0.));
#1601=DIRECTION('',(-1.,0.,0.));
#1602=DIRECTION('',(0.,1.,0.));
#1603=DIRECTION('center_axis',(0.,0.,-1.));
#1604=DIRECTION('ref_axis',(0.,-1.,0.));
#1605=DIRECTION('',(-1.,0.,0.));
#1606=DIRECTION('',(-1.,0.,0.));
#1607=DIRECTION('',(0.,-1.,0.));
#1608=DIRECTION('center_axis',(0.,1.,-4.44089209850063E-15));
#1609=DIRECTION('ref_axis',(0.,-4.44089209850063E-15,-1.));
#1610=DIRECTION('',(0.,-4.44089209850063E-15,-1.));
#1611=DIRECTION('center_axis',(0.,0.,1.));
#1612=DIRECTION('ref_axis',(0.,1.,0.));
#1613=DIRECTION('',(-1.,0.,0.));
#1614=DIRECTION('',(0.,1.,0.));
#1615=DIRECTION('center_axis',(0.,2.1885516543751E-16,-1.));
#1616=DIRECTION('ref_axis',(0.,-1.,-2.1885516543751E-16));
#1617=DIRECTION('',(-1.,0.,0.));
#1618=DIRECTION('',(-1.,0.,0.));
#1619=DIRECTION('',(0.,-1.,-2.1885516543751E-16));
#1620=DIRECTION('center_axis',(0.,1.,0.));
#1621=DIRECTION('ref_axis',(0.,0.,-1.));
#1622=DIRECTION('',(0.,0.,-1.));
#1623=DIRECTION('center_axis',(0.,-1.,0.));
#1624=DIRECTION('ref_axis',(0.,0.,1.));
#1625=DIRECTION('',(-1.,0.,0.));
#1626=DIRECTION('',(0.,0.,1.));
#1627=DIRECTION('center_axis',(0.,0.,-1.));
#1628=DIRECTION('ref_axis',(0.,-1.,0.));
#1629=DIRECTION('',(1.,0.,0.));
#1630=DIRECTION('',(0.,-1.,0.));
#1631=DIRECTION('center_axis',(0.,0.,1.));
#1632=DIRECTION('ref_axis',(0.,1.,0.));
#1633=DIRECTION('',(1.,0.,0.));
#1634=DIRECTION('',(-1.,0.,0.));
#1635=DIRECTION('',(0.,1.,0.));
#1636=DIRECTION('center_axis',(0.,0.,-1.));
#1637=DIRECTION('ref_axis',(0.,-1.,0.));
#1638=DIRECTION('',(-1.,0.,0.));
#1639=DIRECTION('',(-1.,0.,0.));
#1640=DIRECTION('',(0.,-1.,0.));
#1641=DIRECTION('center_axis',(0.,1.,0.));
#1642=DIRECTION('ref_axis',(0.,0.,-1.));
#1643=DIRECTION('',(0.,0.,-1.));
#1644=DIRECTION('center_axis',(0.,-1.,0.));
#1645=DIRECTION('ref_axis',(1.,0.,0.));
#1646=DIRECTION('',(-1.,0.,0.));
#1647=DIRECTION('',(0.,0.,-1.));
#1648=DIRECTION('center_axis',(0.,-1.,0.));
#1649=DIRECTION('ref_axis',(1.,0.,0.));
#1650=DIRECTION('',(0.,0.,-1.));
#1651=DIRECTION('center_axis',(0.,-1.,0.));
#1652=DIRECTION('ref_axis',(1.,0.,0.));
#1653=DIRECTION('',(0.,0.,-1.));
#1654=DIRECTION('center_axis',(-1.,0.,0.));
#1655=DIRECTION('ref_axis',(0.,0.,1.));
#1656=DIRECTION('',(0.,-1.,0.));
#1657=DIRECTION('',(0.,0.,1.));
#1658=DIRECTION('center_axis',(0.,1.,0.));
#1659=DIRECTION('ref_axis',(-1.,0.,0.));
#1660=DIRECTION('',(1.,0.,0.));
#1661=DIRECTION('center_axis',(0.,0.,1.));
#1662=DIRECTION('ref_axis',(1.,0.,0.));
#1663=DIRECTION('',(-1.,0.,0.));
#1664=DIRECTION('center_axis',(0.,-1.,0.));
#1665=DIRECTION('ref_axis',(1.,0.,0.));
#1666=DIRECTION('center_axis',(-0.622305988437446,0.782774077722872,0.));
#1667=DIRECTION('ref_axis',(-0.782774077722872,-0.622305988437446,0.));
#1668=DIRECTION('',(-0.782774077722872,-0.622305988437446,0.));
#1669=DIRECTION('',(0.,0.,1.));
#1670=DIRECTION('',(0.782774077722872,0.622305988437446,0.));
#1671=DIRECTION('',(-0.782774077722872,-0.622305988437446,0.));
#1672=DIRECTION('',(-0.782774077722872,-0.622305988437446,0.));
#1673=DIRECTION('center_axis',(0.,0.,1.));
#1674=DIRECTION('ref_axis',(1.,0.,0.));
#1675=DIRECTION('center_axis',(0.,0.,1.));
#1676=DIRECTION('ref_axis',(1.,0.,0.));
#1677=DIRECTION('center_axis',(0.,0.,1.));
#1678=DIRECTION('ref_axis',(1.,0.,0.));
#1679=DIRECTION('center_axis',(0.,0.,1.));
#1680=DIRECTION('ref_axis',(1.,0.,0.));
#1681=DIRECTION('',(-1.,0.,0.));
#1682=DIRECTION('center_axis',(0.,1.,0.));
#1683=DIRECTION('ref_axis',(-1.,0.,0.));
#1684=DIRECTION('',(1.,0.,0.));
#1685=DIRECTION('center_axis',(0.,0.,1.));
#1686=DIRECTION('ref_axis',(1.,0.,0.));
#1687=DIRECTION('center_axis',(0.,0.,1.));
#1688=DIRECTION('ref_axis',(1.,0.,0.));
#1689=DIRECTION('center_axis',(-0.622305988437446,-0.782774077722872,0.));
#1690=DIRECTION('ref_axis',(0.782774077722872,-0.622305988437446,0.));
#1691=DIRECTION('',(0.782774077722872,-0.622305988437446,0.));
#1692=DIRECTION('',(0.,0.,-1.));
#1693=DIRECTION('',(-0.782774077722872,0.622305988437446,0.));
#1694=DIRECTION('',(0.,0.,-1.));
#1695=DIRECTION('center_axis',(-1.,0.,0.));
#1696=DIRECTION('ref_axis',(0.,-1.,0.));
#1697=DIRECTION('',(0.,-1.,0.));
#1698=DIRECTION('',(0.,1.,0.));
#1699=DIRECTION('',(0.,0.,1.));
#1700=DIRECTION('center_axis',(-0.622305988437446,0.782774077722872,0.));
#1701=DIRECTION('ref_axis',(-0.782774077722872,-0.622305988437446,0.));
#1702=DIRECTION('',(-0.782774077722872,-0.622305988437446,0.));
#1703=DIRECTION('',(0.782774077722872,0.622305988437446,0.));
#1704=DIRECTION('',(0.,0.,1.));
#1705=DIRECTION('center_axis',(1.,0.,0.));
#1706=DIRECTION('ref_axis',(0.,1.,0.));
#1707=DIRECTION('',(0.,1.,0.));
#1708=DIRECTION('',(0.,-1.,0.));
#1709=DIRECTION('center_axis',(0.,0.,-1.));
#1710=DIRECTION('ref_axis',(1.,0.,0.));
#1711=DIRECTION('center_axis',(0.,0.,1.));
#1712=DIRECTION('ref_axis',(1.,0.,0.));
#1713=CARTESIAN_POINT('',(0.,0.,0.));
#1714=CARTESIAN_POINT('Origin',(-25.2441841360941,-18.9000558678784,7.14929264495258));
#1715=CARTESIAN_POINT('',(-21.053477766441,-17.6295437276279,7.14929264495258));
#1716=CARTESIAN_POINT('',(-22.898,-17.6295437276279,7.14929264495258));
#1717=CARTESIAN_POINT('',(-22.8720920680471,-17.6295437276279,7.14929264495258));
#1718=CARTESIAN_POINT('',(-21.053477766441,-18.8805437276279,7.14929264495258));
#1719=CARTESIAN_POINT('',(-21.053477766441,-18.9000558678784,7.14929264495258));
#1720=CARTESIAN_POINT('',(-24.398,-18.8805437276279,7.14929264495258));
#1721=CARTESIAN_POINT('',(-3.39459206804707,-18.8805437276279,7.14929264495257));
#1722=CARTESIAN_POINT('',(-24.398,-17.6295437276279,7.14929264495258));
#1723=CARTESIAN_POINT('',(-24.398,-2.82379979775317,7.14929264495258));
#1724=CARTESIAN_POINT('',(-23.5269302146106,-17.6295437276279,7.14929264495258));
#1725=CARTESIAN_POINT('',(-22.8720920680471,-17.6295437276279,7.14929264495258));
#1726=CARTESIAN_POINT('',(-22.898,-18.1295437276279,7.14929264495258));
#1727=CARTESIAN_POINT('',(-24.1791270078314,-17.1110467798986,7.14929264495258));
#1728=CARTESIAN_POINT('',(-22.898,-18.5147997977532,7.14929264495257));
#1729=CARTESIAN_POINT('Origin',(-21.053477766441,-18.9000558678784,5.56247485907437));
#1730=CARTESIAN_POINT('',(-22.898,-17.6295437276279,5.56247485907437));
#1731=CARTESIAN_POINT('',(-21.053477766441,-17.6295437276279,5.56247485907437));
#1732=CARTESIAN_POINT('',(-20.7767388832205,-17.6295437276279,5.56247485907437));
#1733=CARTESIAN_POINT('',(-22.898,-18.1295437276279,5.56247485907437));
#1734=CARTESIAN_POINT('',(-22.898,-18.5147997977532,5.56247485907437));
#1735=CARTESIAN_POINT('',(-23.5269302146106,-17.6295437276279,5.56247485907437));
#1736=CARTESIAN_POINT('',(-22.8952302361345,-18.1317456920122,5.56247485907437));
#1737=CARTESIAN_POINT('',(-24.398,-17.6295437276279,5.56247485907437));
#1738=CARTESIAN_POINT('',(-20.7767388832205,-17.6295437276279,5.56247485907437));
#1739=CARTESIAN_POINT('',(-24.398,-18.9000558678784,5.56247485907437));
#1740=CARTESIAN_POINT('',(-24.398,-2.82379979775317,5.56247485907437));
#1741=CARTESIAN_POINT('',(-21.053477766441,-18.9000558678784,5.56247485907437));
#1742=CARTESIAN_POINT('',(-1.29923888322052,-18.9000558678784,5.56247485907436));
#1743=CARTESIAN_POINT('',(-21.053477766441,-18.9000558678784,5.56247485907437));
#1744=CARTESIAN_POINT('Origin',(-21.053477766441,-18.9000558678784,6.35588375201347));
#1745=CARTESIAN_POINT('Origin',(-21.053477766441,-17.6295437276279,6.35588375201347));
#1746=CARTESIAN_POINT('',(-20.4913142176172,-18.9000558678784,5.796));
#1747=CARTESIAN_POINT('Origin',(-21.053477766441,-18.9000558678784,6.35588375201347));
#1748=CARTESIAN_POINT('',(-20.4913142176172,-19.8805437276279,5.796));
#1749=CARTESIAN_POINT('',(-20.4913142176172,-18.9000558678784,5.796));
#1750=CARTESIAN_POINT('',(-20.393329783294,-19.8805437276279,6.796));
#1751=CARTESIAN_POINT('Origin',(-21.053477766441,-19.8805437276279,6.35588375201347));
#1752=CARTESIAN_POINT('',(-20.393329783294,-18.8805437276279,6.796));
#1753=CARTESIAN_POINT('',(-20.393329783294,-18.9000558678784,6.796));
#1754=CARTESIAN_POINT('Origin',(-21.053477766441,-18.8805437276279,6.35588375201347));
#1755=CARTESIAN_POINT('Origin',(-22.898,-18.1295437276279,0.));
#1756=CARTESIAN_POINT('',(-22.898,-18.1295437276279,7.7801817933));
#1757=CARTESIAN_POINT('',(-22.898,-18.1295437276279,0.));
#1758=CARTESIAN_POINT('',(-22.898,13.6344562723721,7.7801817933));
#1759=CARTESIAN_POINT('',(-22.898,-2.2475437276279,7.7801817933));
#1760=CARTESIAN_POINT('',(-22.898,13.6344562723721,0.));
#1761=CARTESIAN_POINT('',(-22.898,13.6344562723721,0.));
#1762=CARTESIAN_POINT('',(-22.898,-18.1295437276279,0.));
#1763=CARTESIAN_POINT('',(-22.898,-10.1885437276279,0.));
#1764=CARTESIAN_POINT('',(-22.898,-18.1295437276279,0.));
#1765=CARTESIAN_POINT('',(-22.898,-17.6295437276279,1.2));
#1766=CARTESIAN_POINT('',(-22.898,-17.6295437276279,-0.754));
#1767=CARTESIAN_POINT('',(-22.898,13.1344562723721,1.2));
#1768=CARTESIAN_POINT('',(-22.898,-10.1885437276279,1.2));
#1769=CARTESIAN_POINT('',(-22.898,13.1344562723721,7.392));
#1770=CARTESIAN_POINT('',(-22.898,13.1344562723721,-0.754));
#1771=CARTESIAN_POINT('',(-22.898,-17.6295437276279,7.392));
#1772=CARTESIAN_POINT('',(-22.898,-5.3635437276279,7.392));
#1773=CARTESIAN_POINT('',(-22.898,-17.6295437276279,-0.754));
#1774=CARTESIAN_POINT('Origin',(-24.398,-16.9370425842946,0.));
#1775=CARTESIAN_POINT('',(-24.398,-16.9370425842946,0.));
#1776=CARTESIAN_POINT('',(-20.5010536399241,-20.0351179108939,0.));
#1777=CARTESIAN_POINT('',(-24.398,-16.9370425842946,1.2));
#1778=CARTESIAN_POINT('',(-24.398,-16.9370425842946,-0.754));
#1779=CARTESIAN_POINT('',(-23.5269302146106,-17.6295437276279,1.2));
#1780=CARTESIAN_POINT('',(-20.5010536399241,-20.0351179108939,1.2));
#1781=CARTESIAN_POINT('',(-23.5269302146106,-17.6295437276279,-0.754));
#1782=CARTESIAN_POINT('Origin',(-24.398,-16.9370425842946,0.));
#1783=CARTESIAN_POINT('',(-23.5269302146106,-17.6295437276279,7.392));
#1784=CARTESIAN_POINT('',(-23.5269302146106,-17.6295437276279,-0.754));
#1785=CARTESIAN_POINT('',(-24.398,-16.9370425842946,7.392));
#1786=CARTESIAN_POINT('',(-20.9366340690397,-19.688831137738,7.392));
#1787=CARTESIAN_POINT('',(-24.398,-16.9370425842946,7.7801817933));
#1788=CARTESIAN_POINT('',(-24.398,-16.9370425842946,-0.754));
#1789=CARTESIAN_POINT('',(-22.898,-18.1295437276279,7.7801817933));
#1790=CARTESIAN_POINT('Origin',(-20.5,-17.6295437276279,-1.508));
#1791=CARTESIAN_POINT('',(-24.398,-17.6295437276279,1.2));
#1792=CARTESIAN_POINT('',(-10.25,-17.6295437276279,1.2));
#1793=CARTESIAN_POINT('',(-24.398,-17.6295437276279,-1.508));
#1794=CARTESIAN_POINT('Origin',(-20.5,-17.6295437276279,-1.508));
#1795=CARTESIAN_POINT('',(-24.398,-17.6295437276279,7.392));
#1796=CARTESIAN_POINT('',(-24.398,-17.6295437276279,-1.508));
#1797=CARTESIAN_POINT('',(-22.315,-17.6295437276279,7.392));
#1798=CARTESIAN_POINT('Origin',(18.455,-18.8805437276279,7.796));
#1799=CARTESIAN_POINT('',(18.455,-18.8805437276279,6.796));
#1800=CARTESIAN_POINT('',(18.455,-18.8805437276279,6.796));
#1801=CARTESIAN_POINT('',(18.455,-18.8805437276279,7.796));
#1802=CARTESIAN_POINT('',(18.455,-18.8805437276279,3.144));
#1803=CARTESIAN_POINT('',(-24.398,-18.8805437276279,7.796));
#1804=CARTESIAN_POINT('',(18.455,-18.8805437276279,7.796));
#1805=CARTESIAN_POINT('',(-24.398,-18.8805437276279,3.144));
#1806=CARTESIAN_POINT('Origin',(-24.398,13.2524562723721,-1.508));
#1807=CARTESIAN_POINT('',(-24.398,5.5024562723721,1.2));
#1808=CARTESIAN_POINT('',(-24.398,-19.8805437276279,0.));
#1809=CARTESIAN_POINT('',(-24.398,5.5024562723721,0.));
#1810=CARTESIAN_POINT('',(-24.398,-19.8805437276279,0.795999999999998));
#1811=CARTESIAN_POINT('',(-24.398,-19.8805437276279,-1.508));
#1812=CARTESIAN_POINT('',(-24.398,-18.8805437276279,0.795999999999998));
#1813=CARTESIAN_POINT('',(-24.398,-2.8140437276279,0.795999999999998));
#1814=CARTESIAN_POINT('',(-24.398,-18.8805437276279,1.796));
#1815=CARTESIAN_POINT('',(-24.398,-18.8805437276279,0.143999999999999));
#1816=CARTESIAN_POINT('',(-24.398,-19.8805437276279,1.796));
#1817=CARTESIAN_POINT('',(-24.398,-4.08192119608325,1.796));
#1818=CARTESIAN_POINT('',(-24.398,-19.8805437276279,2.796));
#1819=CARTESIAN_POINT('',(-24.398,-19.8805437276279,-1.508));
#1820=CARTESIAN_POINT('',(-24.398,-18.9000558678784,2.796));
#1821=CARTESIAN_POINT('',(-24.398,-2.82379979775317,2.796));
#1822=CARTESIAN_POINT('',(-24.398,-18.9000558678784,3.796));
#1823=CARTESIAN_POINT('',(-24.398,-18.9000558678784,1.14400000000007));
#1824=CARTESIAN_POINT('',(-24.398,-19.8805437276279,3.796));
#1825=CARTESIAN_POINT('',(-24.398,-4.09201640850316,3.796));
#1826=CARTESIAN_POINT('',(-24.398,-19.8805437276279,4.796));
#1827=CARTESIAN_POINT('',(-24.398,-19.8805437276279,-1.508));
#1828=CARTESIAN_POINT('',(-24.398,-18.9000558678784,4.796));
#1829=CARTESIAN_POINT('',(-24.398,-2.82379979775317,4.796));
#1830=CARTESIAN_POINT('',(-24.398,-18.9000558678784,2.144));
#1831=CARTESIAN_POINT('Origin',(-24.398,13.2524562723721,-1.508));
#1832=CARTESIAN_POINT('',(-24.398,-19.8805437276279,7.796));
#1833=CARTESIAN_POINT('',(-24.398,-4.08192119608325,7.796));
#1834=CARTESIAN_POINT('',(-24.398,-19.8805437276279,8.592));
#1835=CARTESIAN_POINT('',(-24.398,-19.8805437276279,-1.508));
#1836=CARTESIAN_POINT('',(-24.398,15.3854562723721,8.592));
#1837=CARTESIAN_POINT('',(-24.398,5.5024562723721,8.592));
#1838=CARTESIAN_POINT('',(-24.398,15.3854562723721,7.796));
#1839=CARTESIAN_POINT('',(-24.398,15.3854562723721,-1.508));
#1840=CARTESIAN_POINT('',(-24.398,14.3854562723721,7.796));
#1841=CARTESIAN_POINT('',(-24.398,13.8189562723721,7.796));
#1842=CARTESIAN_POINT('',(-24.398,14.3854562723721,6.796));
#1843=CARTESIAN_POINT('',(-24.398,14.3854562723721,2.644));
#1844=CARTESIAN_POINT('',(-24.398,15.3854562723721,6.796));
#1845=CARTESIAN_POINT('',(-24.398,15.0868337408274,6.796));
#1846=CARTESIAN_POINT('',(-24.398,15.3854562723721,5.796));
#1847=CARTESIAN_POINT('',(-24.398,15.3854562723721,-1.508));
#1848=CARTESIAN_POINT('',(-24.398,14.4049684126226,5.796));
#1849=CARTESIAN_POINT('',(-24.398,13.8287123424974,5.796));
#1850=CARTESIAN_POINT('',(-24.398,14.4049684126226,4.796));
#1851=CARTESIAN_POINT('',(-24.398,14.4049684126226,1.644));
#1852=CARTESIAN_POINT('',(-24.398,15.3854562723721,4.796));
#1853=CARTESIAN_POINT('',(-24.398,15.0969289532474,4.796));
#1854=CARTESIAN_POINT('',(-24.398,15.3854562723721,3.796));
#1855=CARTESIAN_POINT('',(-24.398,15.3854562723721,-1.508));
#1856=CARTESIAN_POINT('',(-24.398,14.4049684126226,3.796));
#1857=CARTESIAN_POINT('',(-24.398,13.8287123424974,3.796));
#1858=CARTESIAN_POINT('',(-24.398,14.4049684126226,2.796));
#1859=CARTESIAN_POINT('',(-24.398,14.4049684126227,0.644000000000003));
#1860=CARTESIAN_POINT('',(-24.398,15.3854562723721,2.796));
#1861=CARTESIAN_POINT('',(-24.398,15.0969289532474,2.796));
#1862=CARTESIAN_POINT('',(-24.398,15.3854562723721,1.796));
#1863=CARTESIAN_POINT('',(-24.398,15.3854562723721,-1.508));
#1864=CARTESIAN_POINT('',(-24.398,14.3854562723721,1.796));
#1865=CARTESIAN_POINT('',(-24.398,13.8189562723721,1.796));
#1866=CARTESIAN_POINT('',(-24.398,14.3854562723721,0.796000000000001));
#1867=CARTESIAN_POINT('',(-24.398,14.3854562723721,-0.356));
#1868=CARTESIAN_POINT('',(-24.398,15.3854562723721,0.796000000000001));
#1869=CARTESIAN_POINT('',(-24.398,15.0868337408275,0.796000000000001));
#1870=CARTESIAN_POINT('',(-24.398,15.3854562723721,0.));
#1871=CARTESIAN_POINT('',(-24.398,15.3854562723721,-1.508));
#1872=CARTESIAN_POINT('',(-24.398,12.4419551290388,0.));
#1873=CARTESIAN_POINT('',(-24.398,5.5024562723721,0.));
#1874=CARTESIAN_POINT('',(-24.398,12.4419551290388,1.2));
#1875=CARTESIAN_POINT('',(-24.398,12.4419551290388,-0.754));
#1876=CARTESIAN_POINT('',(-24.398,13.1344562723721,1.2));
#1877=CARTESIAN_POINT('',(-24.398,5.5024562723721,1.2));
#1878=CARTESIAN_POINT('',(-24.398,13.1344562723721,7.392));
#1879=CARTESIAN_POINT('',(-24.398,13.1344562723721,-1.508));
#1880=CARTESIAN_POINT('',(-24.398,12.4419551290388,7.392));
#1881=CARTESIAN_POINT('',(-24.398,10.3274562723721,7.392));
#1882=CARTESIAN_POINT('',(-24.398,12.4419551290388,7.7801817933));
#1883=CARTESIAN_POINT('',(-24.398,12.4419551290388,-0.754));
#1884=CARTESIAN_POINT('',(-24.398,5.5024562723721,7.7801817933));
#1885=CARTESIAN_POINT('',(-24.398,10.3274562723721,7.392));
#1886=CARTESIAN_POINT('Origin',(18.455,-18.8805437276279,6.796));
#1887=CARTESIAN_POINT('',(18.455,-19.8805437276279,6.796));
#1888=CARTESIAN_POINT('',(-1.0225,-19.8805437276279,6.796));
#1889=CARTESIAN_POINT('',(18.455,-18.3140437276279,6.796));
#1890=CARTESIAN_POINT('Origin',(-20.5,-19.8805437276279,-1.508));
#1891=CARTESIAN_POINT('',(18.455,-19.8805437276279,5.796));
#1892=CARTESIAN_POINT('',(-1.0225,-19.8805437276279,5.796));
#1893=CARTESIAN_POINT('',(18.455,-19.8805437276279,-1.508));
#1894=CARTESIAN_POINT('Origin',(17.502,-2.2475437276279,4.296));
#1895=CARTESIAN_POINT('',(17.502,13.1344562723721,7.392));
#1896=CARTESIAN_POINT('',(17.502,-17.6295437276279,7.392));
#1897=CARTESIAN_POINT('',(17.502,2.5774562723721,7.392));
#1898=CARTESIAN_POINT('',(17.502,13.1344562723721,1.2));
#1899=CARTESIAN_POINT('',(17.502,13.1344562723721,1.394));
#1900=CARTESIAN_POINT('',(17.502,-17.6295437276279,1.2));
#1901=CARTESIAN_POINT('',(17.502,-2.2475437276279,1.2));
#1902=CARTESIAN_POINT('',(17.502,-17.6295437276279,1.394));
#1903=CARTESIAN_POINT('Origin',(18.455,-21.4162986645386,7.796));
#1904=CARTESIAN_POINT('',(18.455,-19.8805437276279,7.796));
#1905=CARTESIAN_POINT('',(-1.0225,-19.8805437276279,7.796));
#1906=CARTESIAN_POINT('',(18.455,-19.5819211960833,7.796));
#1907=CARTESIAN_POINT('Origin',(-20.5,-19.8805437276279,-1.508));
#1908=CARTESIAN_POINT('',(18.455,-19.8805437276279,8.592));
#1909=CARTESIAN_POINT('',(-7.125,-19.8805437276279,8.592));
#1910=CARTESIAN_POINT('',(18.455,-19.8805437276279,-1.508));
#1911=CARTESIAN_POINT('Origin',(6.25,7.4024562723721,8.592));
#1912=CARTESIAN_POINT('',(18.455,15.3854562723721,8.592));
#1913=CARTESIAN_POINT('',(13.375,15.3854562723721,8.592));
#1914=CARTESIAN_POINT('',(18.455,-5.1725437276279,8.592));
#1915=CARTESIAN_POINT('Origin',(20.5,15.3854562723721,-1.508));
#1916=CARTESIAN_POINT('',(18.455,15.3854562723721,7.796));
#1917=CARTESIAN_POINT('',(19.4775,15.3854562723721,7.796));
#1918=CARTESIAN_POINT('',(18.455,15.3854562723721,-1.508));
#1919=CARTESIAN_POINT('Origin',(18.455,14.3854562723721,7.796));
#1920=CARTESIAN_POINT('',(18.455,14.3854562723721,7.796));
#1921=CARTESIAN_POINT('',(18.455,14.3854562723721,7.796));
#1922=CARTESIAN_POINT('',(18.455,-1.68104372762791,7.79599999999997));
#1923=CARTESIAN_POINT('Origin',(18.455,14.3854562723721,6.796));
#1924=CARTESIAN_POINT('',(18.455,14.3854562723721,6.796));
#1925=CARTESIAN_POINT('',(18.455,14.3854562723721,6.796));
#1926=CARTESIAN_POINT('',(18.455,14.3854562723721,2.644));
#1927=CARTESIAN_POINT('Origin',(18.455,16.9212112092828,6.79600000000001));
#1928=CARTESIAN_POINT('',(18.455,15.3854562723721,6.796));
#1929=CARTESIAN_POINT('',(19.4775,15.3854562723721,6.796));
#1930=CARTESIAN_POINT('',(18.455,-0.413166259172558,6.79599999999998));
#1931=CARTESIAN_POINT('Origin',(20.5,15.3854562723721,-1.508));
#1932=CARTESIAN_POINT('',(18.455,15.3854562723721,5.796));
#1933=CARTESIAN_POINT('',(19.4775,15.3854562723721,5.796));
#1934=CARTESIAN_POINT('',(18.455,15.3854562723721,-1.508));
#1935=CARTESIAN_POINT('Origin',(18.455,14.4049684126226,5.796));
#1936=CARTESIAN_POINT('',(18.455,14.4049684126226,5.796));
#1937=CARTESIAN_POINT('',(18.455,14.4049684126226,5.796));
#1938=CARTESIAN_POINT('',(18.455,-1.67128765750263,5.796));
#1939=CARTESIAN_POINT('Origin',(18.455,14.4049684126226,4.796));
#1940=CARTESIAN_POINT('',(18.455,14.4049684126226,4.796));
#1941=CARTESIAN_POINT('',(18.455,14.4049684126226,4.796));
#1942=CARTESIAN_POINT('',(18.455,14.4049684126226,1.644));
#1943=CARTESIAN_POINT('Origin',(18.455,16.9414016341226,4.796));
#1944=CARTESIAN_POINT('',(18.455,15.3854562723721,4.796));
#1945=CARTESIAN_POINT('',(19.4775,15.3854562723721,4.796));
#1946=CARTESIAN_POINT('',(18.455,-0.403071046752632,4.796));
#1947=CARTESIAN_POINT('Origin',(20.5,15.3854562723721,-1.508));
#1948=CARTESIAN_POINT('',(18.455,15.3854562723721,3.796));
#1949=CARTESIAN_POINT('',(19.4775,15.3854562723721,3.796));
#1950=CARTESIAN_POINT('',(18.455,15.3854562723721,-1.508));
#1951=CARTESIAN_POINT('Origin',(18.455,14.4049684126226,3.796));
#1952=CARTESIAN_POINT('',(18.455,14.4049684126226,3.796));
#1953=CARTESIAN_POINT('',(18.455,14.4049684126226,3.796));
#1954=CARTESIAN_POINT('',(18.455,-1.67128765750263,3.796));
#1955=CARTESIAN_POINT('Origin',(18.455,14.4049684126226,2.796));
#1956=CARTESIAN_POINT('',(18.455,14.4049684126226,2.796));
#1957=CARTESIAN_POINT('',(18.455,14.4049684126226,2.796));
#1958=CARTESIAN_POINT('',(18.455,14.4049684126227,0.644000000000071));
#1959=CARTESIAN_POINT('Origin',(18.455,16.9414016341226,2.796));
#1960=CARTESIAN_POINT('',(18.455,15.3854562723721,2.796));
#1961=CARTESIAN_POINT('',(19.4775,15.3854562723721,2.796));
#1962=CARTESIAN_POINT('',(18.455,-0.403071046752628,2.796));
#1963=CARTESIAN_POINT('Origin',(20.5,15.3854562723721,-1.508));
#1964=CARTESIAN_POINT('',(18.455,15.3854562723721,1.796));
#1965=CARTESIAN_POINT('',(19.4775,15.3854562723721,1.796));
#1966=CARTESIAN_POINT('',(18.455,15.3854562723721,-1.508));
#1967=CARTESIAN_POINT('Origin',(18.455,14.3854562723721,1.796));
#1968=CARTESIAN_POINT('',(18.455,14.3854562723721,1.796));
#1969=CARTESIAN_POINT('',(18.455,14.3854562723721,1.796));
#1970=CARTESIAN_POINT('',(18.455,-1.6810437276279,1.796));
#1971=CARTESIAN_POINT('Origin',(0.,-2.2475437276279,1.2));
#1972=CARTESIAN_POINT('',(10.25,13.1344562723721,1.2));
#1973=CARTESIAN_POINT('',(-10.25,-17.6295437276279,1.2));
#1974=CARTESIAN_POINT('Origin',(20.5,13.1344562723721,-1.508));
#1975=CARTESIAN_POINT('',(13.375,13.1344562723721,7.392));
#1976=CARTESIAN_POINT('Origin',(18.455,-21.4364890893784,3.796));
#1977=CARTESIAN_POINT('',(18.455,-19.8805437276279,3.796));
#1978=CARTESIAN_POINT('',(-1.0225,-19.8805437276279,3.796));
#1979=CARTESIAN_POINT('',(18.455,-18.9000558678784,3.796));
#1980=CARTESIAN_POINT('',(18.455,-18.9000558678784,3.796));
#1981=CARTESIAN_POINT('',(18.455,-19.5920164085032,3.796));
#1982=CARTESIAN_POINT('Origin',(18.455,-18.9000558678784,2.796));
#1983=CARTESIAN_POINT('',(18.455,-18.9000558678784,2.796));
#1984=CARTESIAN_POINT('',(18.455,-18.9000558678784,2.796));
#1985=CARTESIAN_POINT('',(18.455,-19.8805437276279,2.796));
#1986=CARTESIAN_POINT('',(-1.0225,-19.8805437276279,2.796));
#1987=CARTESIAN_POINT('',(18.455,-18.3237997977532,2.796));
#1988=CARTESIAN_POINT('Origin',(18.455,-18.9000558678784,3.796));
#1989=CARTESIAN_POINT('',(18.455,-18.9000558678784,1.144));
#1990=CARTESIAN_POINT('Origin',(18.455,-21.4364890893784,5.796));
#1991=CARTESIAN_POINT('',(18.455,-18.9000558678784,5.796));
#1992=CARTESIAN_POINT('',(18.455,-18.9000558678784,5.796));
#1993=CARTESIAN_POINT('',(18.455,-19.5920164085032,5.796));
#1994=CARTESIAN_POINT('Origin',(18.455,-18.9000558678784,4.796));
#1995=CARTESIAN_POINT('',(18.455,-18.9000558678784,4.796));
#1996=CARTESIAN_POINT('',(18.455,-18.9000558678784,4.796));
#1997=CARTESIAN_POINT('',(18.455,-19.8805437276279,4.796));
#1998=CARTESIAN_POINT('',(-1.0225,-19.8805437276279,4.796));
#1999=CARTESIAN_POINT('',(18.455,-18.3237997977532,4.796));
#2000=CARTESIAN_POINT('Origin',(18.455,-18.9000558678784,5.796));
#2001=CARTESIAN_POINT('',(18.455,-18.9000558678784,2.144));
#2002=CARTESIAN_POINT('Origin',(18.455,14.3854562723721,0.796000000000001));
#2003=CARTESIAN_POINT('',(18.455,14.3854562723721,0.796000000000001));
#2004=CARTESIAN_POINT('',(18.455,14.3854562723721,0.796000000000001));
#2005=CARTESIAN_POINT('',(18.455,14.3854562723721,-0.356));
#2006=CARTESIAN_POINT('Origin',(18.455,16.9212112092828,0.796000000000001));
#2007=CARTESIAN_POINT('',(18.455,15.3854562723721,0.796000000000001));
#2008=CARTESIAN_POINT('',(19.4775,15.3854562723721,0.796000000000001));
#2009=CARTESIAN_POINT('',(18.455,-0.413166259172544,0.796000000000001));
#2010=CARTESIAN_POINT('Origin',(18.455,-21.4162986645386,1.796));
#2011=CARTESIAN_POINT('',(18.455,-19.8805437276279,1.796));
#2012=CARTESIAN_POINT('',(-1.0225,-19.8805437276279,1.796));
#2013=CARTESIAN_POINT('',(18.455,-18.8805437276279,1.796));
#2014=CARTESIAN_POINT('',(18.455,-18.8805437276279,1.796));
#2015=CARTESIAN_POINT('',(18.455,-19.5819211960832,1.796));
#2016=CARTESIAN_POINT('Origin',(18.455,-18.8805437276279,0.795999999999998));
#2017=CARTESIAN_POINT('',(18.455,-18.8805437276279,0.795999999999998));
#2018=CARTESIAN_POINT('',(18.455,-18.8805437276279,0.795999999999998));
#2019=CARTESIAN_POINT('',(18.455,-19.8805437276279,0.795999999999998));
#2020=CARTESIAN_POINT('',(-1.0225,-19.8805437276279,0.795999999999998));
#2021=CARTESIAN_POINT('',(18.455,-18.3140437276279,0.795999999999998));
#2022=CARTESIAN_POINT('Origin',(18.455,-18.8805437276279,1.796));
#2023=CARTESIAN_POINT('',(18.455,-18.8805437276279,0.143999999999999));
#2024=CARTESIAN_POINT('Origin',(-20.5,-19.8805437276279,-1.508));
#2025=CARTESIAN_POINT('',(18.455,-19.8805437276279,0.));
#2026=CARTESIAN_POINT('',(-10.25,-19.8805437276279,0.));
#2027=CARTESIAN_POINT('',(18.455,-19.8805437276279,-1.508));
#2028=CARTESIAN_POINT('Origin',(-20.5,-19.8805437276279,-1.508));
#2029=CARTESIAN_POINT('',(18.455,-19.8805437276279,-1.508));
#2030=CARTESIAN_POINT('Origin',(-20.5,-19.8805437276279,-1.508));
#2031=CARTESIAN_POINT('',(18.455,-19.8805437276279,-1.508));
#2032=CARTESIAN_POINT('Origin',(18.455,-17.7475437276279,-1.508));
#2033=CARTESIAN_POINT('',(18.455,15.3854562723721,0.));
#2034=CARTESIAN_POINT('',(18.455,-9.9975437276279,0.));
#2035=CARTESIAN_POINT('',(18.455,15.3854562723721,-1.508));
#2036=CARTESIAN_POINT('Origin',(20.5,15.3854562723721,-1.508));
#2037=CARTESIAN_POINT('',(10.25,15.3854562723721,0.));
#2038=CARTESIAN_POINT('Origin',(6.25,7.4024562723721,7.392));
#2039=CARTESIAN_POINT('',(-22.315,-17.6295437276279,7.392));
#2040=CARTESIAN_POINT('Origin',(-20.5,-17.6295437276279,-1.508));
#2041=CARTESIAN_POINT('Origin',(-22.898,13.6344562723721,0.));
#2042=CARTESIAN_POINT('',(-23.5269302146106,13.1344562723721,7.392));
#2043=CARTESIAN_POINT('',(-15.4858778560904,19.5270990264641,7.392));
#2044=CARTESIAN_POINT('',(-23.5269302146106,13.1344562723721,1.2));
#2045=CARTESIAN_POINT('',(-23.5269302146106,13.1344562723721,-0.754));
#2046=CARTESIAN_POINT('',(-19.7510536399241,16.1362810273048,1.2));
#2047=CARTESIAN_POINT('',(-19.7510536399241,16.1362810273048,0.));
#2048=CARTESIAN_POINT('',(-22.898,13.6344562723721,7.7801817933));
#2049=CARTESIAN_POINT('Origin',(-23.648,-2.2475437276279,7.7801817933));
#2050=CARTESIAN_POINT('Origin',(0.,-2.2475437276279,1.2));
#2051=CARTESIAN_POINT('Origin',(6.25,7.4024562723721,7.392));
#2052=CARTESIAN_POINT('Origin',(6.25,7.4024562723721,7.392));
#2053=CARTESIAN_POINT('',(13.375,13.1344562723721,7.392));
#2054=CARTESIAN_POINT('Origin',(20.5,13.1344562723721,-1.508));
#2055=CARTESIAN_POINT('',(10.25,13.1344562723721,1.2));
#2056=CARTESIAN_POINT('Origin',(0.,-2.2475437276279,1.2));
#2057=CARTESIAN_POINT('Origin',(0.,-2.2475437276279,0.));
#2058=CARTESIAN_POINT('Origin',(-24.3793308203469,-16.9135593619629,0.));
#2059=CARTESIAN_POINT('',(-22.928,-18.0673684703752,0.));
#2060=CARTESIAN_POINT('',(-24.368,-16.9225673727753,0.));
#2061=CARTESIAN_POINT('',(-27.7273661361408,-14.25186873396,0.));
#2062=CARTESIAN_POINT('',(-22.928,-18.0673684703752,7.748));
#2063=CARTESIAN_POINT('',(-22.928,-18.0673684703752,0.));
#2064=CARTESIAN_POINT('',(-24.368,-16.9225673727753,7.748));
#2065=CARTESIAN_POINT('',(-27.7273661361408,-14.25186873396,7.748));
#2066=CARTESIAN_POINT('',(-24.368,-16.9225673727753,0.));
#2067=CARTESIAN_POINT('Origin',(-24.368,12.4419551290388,0.));
#2068=CARTESIAN_POINT('',(-24.368,12.4274799175195,0.));
#2069=CARTESIAN_POINT('',(-24.368,5.09720570070547,0.));
#2070=CARTESIAN_POINT('',(-24.368,12.4274799175195,7.748));
#2071=CARTESIAN_POINT('',(-24.368,5.09720570070547,7.748));
#2072=CARTESIAN_POINT('',(-24.368,12.4274799175195,0.));
#2073=CARTESIAN_POINT('Origin',(-22.8793308203469,13.6109730500404,0.));
#2074=CARTESIAN_POINT('',(-22.928,13.5722810151195,0.));
#2075=CARTESIAN_POINT('',(-26.9773661361408,10.3530318503708,0.));
#2076=CARTESIAN_POINT('',(-22.928,13.5722810151195,7.748));
#2077=CARTESIAN_POINT('',(-26.9773661361408,10.3530318503708,7.748));
#2078=CARTESIAN_POINT('',(-22.928,13.5722810151195,0.));
#2079=CARTESIAN_POINT('Origin',(-22.928,-18.1295437276279,0.));
#2080=CARTESIAN_POINT('',(-22.928,-10.1885437276279,0.));
#2081=CARTESIAN_POINT('',(-22.928,-10.1885437276279,7.748));
#2082=CARTESIAN_POINT('Origin',(-23.648,-2.2475437276279,0.));
#2083=CARTESIAN_POINT('Origin',(-23.648,-2.2475437276279,7.748));
#2084=UNCERTAINTY_MEASURE_WITH_UNIT(LENGTH_MEASURE(0.01),#2088,
'DISTANCE_ACCURACY_VALUE',
'Maximum model space distance between geometric entities at asserted c
onnectivities');
#2085=UNCERTAINTY_MEASURE_WITH_UNIT(LENGTH_MEASURE(0.01),#2088,
'DISTANCE_ACCURACY_VALUE',
'Maximum model space distance between geometric entities at asserted c
onnectivities');
#2086=(
GEOMETRIC_REPRESENTATION_CONTEXT(3)
GLOBAL_UNCERTAINTY_ASSIGNED_CONTEXT((#2084))
GLOBAL_UNIT_ASSIGNED_CONTEXT((#2088,#2090,#2091))
REPRESENTATION_CONTEXT('','3D')
);
#2087=(
GEOMETRIC_REPRESENTATION_CONTEXT(3)
GLOBAL_UNCERTAINTY_ASSIGNED_CONTEXT((#2085))
GLOBAL_UNIT_ASSIGNED_CONTEXT((#2088,#2090,#2091))
REPRESENTATION_CONTEXT('','3D')
);
#2088=(
LENGTH_UNIT()
NAMED_UNIT(*)
SI_UNIT(.MILLI.,.METRE.)
);
#2089=(
LENGTH_UNIT()
NAMED_UNIT(*)
SI_UNIT($,.METRE.)
);
#2090=(
NAMED_UNIT(*)
PLANE_ANGLE_UNIT()
SI_UNIT($,.RADIAN.)
);
#2091=(
NAMED_UNIT(*)
SI_UNIT($,.STERADIAN.)
SOLID_ANGLE_UNIT()
);
#2092=SHAPE_DEFINITION_REPRESENTATION(#2093,#2094);
#2093=PRODUCT_DEFINITION_SHAPE('',$,#2096);
#2094=SHAPE_REPRESENTATION('',(#1324),#2086);
#2095=PRODUCT_DEFINITION_CONTEXT('part definition',#2100,'design');
#2096=PRODUCT_DEFINITION('glovecase','glovecase v11',#2097,#2095);
#2097=PRODUCT_DEFINITION_FORMATION('',$,#2102);
#2098=PRODUCT_RELATED_PRODUCT_CATEGORY('glovecase v11','glovecase v11',
(#2102));
#2099=APPLICATION_PROTOCOL_DEFINITION('international standard',
'automotive_design',2009,#2100);
#2100=APPLICATION_CONTEXT(
'Core Data for Automotive Mechanical Design Process');
#2101=PRODUCT_CONTEXT('part definition',#2100,'mechanical');
#2102=PRODUCT('glovecase','glovecase v11',$,(#2101));
#2103=PRESENTATION_STYLE_ASSIGNMENT((#2104));
#2104=SURFACE_STYLE_USAGE(.BOTH.,#2105);
#2105=SURFACE_SIDE_STYLE('',(#2106));
#2106=SURFACE_STYLE_FILL_AREA(#2107);
#2107=FILL_AREA_STYLE('Steel - Satin',(#2108));
#2108=FILL_AREA_STYLE_COLOUR('Steel - Satin',#2109);
#2109=COLOUR_RGB('Steel - Satin',0.627450980392157,0.627450980392157,0.627450980392157);
ENDSEC;
END-ISO-10303-21;
