ISO-10303-21;
HEADER;
/* Generated by software containing ST-Developer
 * from STEP Tools, Inc. (www.steptools.com) 
 */

FILE_DESCRIPTION(
/* description */ (''),
/* implementation_level */ '2;1');

FILE_NAME(
/* name */ 'glovecase-dongle-case.step',
/* time_stamp */ '2026-09-08T19:43:41+01:00',
/* author */ (''),
/* organization */ (''),
/* preprocessor_version */ 'ST-DEVELOPER v20.2',
/* originating_system */ 'Autodesk Translation Framework v15.15.0.0',
/* authorisation */ '');

FILE_SCHEMA (('AUTOMOTIVE_DESIGN { 1 0 10303 214 3 1 1 }'));
ENDSEC;

DATA;
#10=MECHANICAL_DESIGN_GEOMETRIC_PRESENTATION_REPRESENTATION('',(#13,#14),
#1134);
#11=SHAPE_REPRESENTATION_RELATIONSHIP('SRR','None',#1141,#12);
#12=ADVANCED_BREP_SHAPE_REPRESENTATION('',(#15,#16),#1133);
#13=STYLED_ITEM('',(#1150),#15);
#14=STYLED_ITEM('',(#1150),#16);
#15=MANIFOLD_SOLID_BREP('glove_dongle_case_body',#697);
#16=MANIFOLD_SOLID_BREP('glove_case_lid',#698);
#17=CYLINDRICAL_SURFACE('',#732,0.923);
#18=CYLINDRICAL_SURFACE('',#735,0.923);
#19=CYLINDRICAL_SURFACE('',#739,1.797);
#20=CYLINDRICAL_SURFACE('',#742,1.797);
#21=CIRCLE('',#717,0.923);
#22=CIRCLE('',#718,0.923);
#23=CIRCLE('',#729,1.797);
#24=CIRCLE('',#733,0.923);
#25=CIRCLE('',#736,0.923);
#26=CIRCLE('',#740,1.797);
#27=CIRCLE('',#741,1.797);
#28=CIRCLE('',#743,1.797);
#29=FACE_OUTER_BOUND('',#65,.T.);
#30=FACE_OUTER_BOUND('',#66,.T.);
#31=FACE_OUTER_BOUND('',#67,.T.);
#32=FACE_OUTER_BOUND('',#68,.T.);
#33=FACE_OUTER_BOUND('',#69,.T.);
#34=FACE_OUTER_BOUND('',#70,.T.);
#35=FACE_OUTER_BOUND('',#71,.T.);
#36=FACE_OUTER_BOUND('',#72,.T.);
#37=FACE_OUTER_BOUND('',#73,.T.);
#38=FACE_OUTER_BOUND('',#74,.T.);
#39=FACE_OUTER_BOUND('',#75,.T.);
#40=FACE_OUTER_BOUND('',#76,.T.);
#41=FACE_OUTER_BOUND('',#77,.T.);
#42=FACE_OUTER_BOUND('',#78,.T.);
#43=FACE_OUTER_BOUND('',#79,.T.);
#44=FACE_OUTER_BOUND('',#80,.T.);
#45=FACE_OUTER_BOUND('',#81,.T.);
#46=FACE_OUTER_BOUND('',#82,.T.);
#47=FACE_OUTER_BOUND('',#83,.T.);
#48=FACE_OUTER_BOUND('',#84,.T.);
#49=FACE_OUTER_BOUND('',#85,.T.);
#50=FACE_OUTER_BOUND('',#86,.T.);
#51=FACE_OUTER_BOUND('',#87,.T.);
#52=FACE_OUTER_BOUND('',#88,.T.);
#53=FACE_OUTER_BOUND('',#89,.T.);
#54=FACE_OUTER_BOUND('',#90,.T.);
#55=FACE_OUTER_BOUND('',#91,.T.);
#56=FACE_OUTER_BOUND('',#92,.T.);
#57=FACE_OUTER_BOUND('',#93,.T.);
#58=FACE_OUTER_BOUND('',#94,.T.);
#59=FACE_OUTER_BOUND('',#95,.T.);
#60=FACE_OUTER_BOUND('',#96,.T.);
#61=FACE_OUTER_BOUND('',#97,.T.);
#62=FACE_OUTER_BOUND('',#98,.T.);
#63=FACE_OUTER_BOUND('',#99,.T.);
#64=FACE_OUTER_BOUND('',#100,.T.);
#65=EDGE_LOOP('',(#437,#438,#439,#440,#441,#442));
#66=EDGE_LOOP('',(#443,#444,#445,#446));
#67=EDGE_LOOP('',(#447,#448,#449,#450,#451,#452));
#68=EDGE_LOOP('',(#453,#454,#455,#456));
#69=EDGE_LOOP('',(#457,#458,#459,#460,#461,#462,#463,#464,#465,#466));
#70=EDGE_LOOP('',(#467,#468,#469,#470));
#71=EDGE_LOOP('',(#471,#472,#473,#474));
#72=EDGE_LOOP('',(#475,#476,#477,#478,#479,#480,#481,#482));
#73=EDGE_LOOP('',(#483,#484,#485,#486));
#74=EDGE_LOOP('',(#487,#488,#489,#490,#491,#492,#493,#494));
#75=EDGE_LOOP('',(#495,#496,#497,#498,#499,#500,#501,#502));
#76=EDGE_LOOP('',(#503,#504,#505,#506));
#77=EDGE_LOOP('',(#507,#508,#509,#510,#511,#512));
#78=EDGE_LOOP('',(#513,#514,#515,#516,#517,#518));
#79=EDGE_LOOP('',(#519,#520,#521,#522,#523));
#80=EDGE_LOOP('',(#524,#525,#526,#527));
#81=EDGE_LOOP('',(#528,#529,#530,#531));
#82=EDGE_LOOP('',(#532,#533,#534,#535));
#83=EDGE_LOOP('',(#536,#537,#538,#539));
#84=EDGE_LOOP('',(#540,#541,#542,#543));
#85=EDGE_LOOP('',(#544,#545,#546,#547));
#86=EDGE_LOOP('',(#548,#549,#550,#551,#552,#553,#554,#555,#556,#557,#558,
#559,#560,#561));
#87=EDGE_LOOP('',(#562,#563,#564,#565));
#88=EDGE_LOOP('',(#566,#567,#568,#569));
#89=EDGE_LOOP('',(#570,#571,#572,#573,#574));
#90=EDGE_LOOP('',(#575,#576,#577,#578));
#91=EDGE_LOOP('',(#579,#580,#581,#582,#583,#584,#585,#586,#587,#588));
#92=EDGE_LOOP('',(#589,#590,#591,#592));
#93=EDGE_LOOP('',(#593,#594,#595,#596));
#94=EDGE_LOOP('',(#597,#598,#599,#600));
#95=EDGE_LOOP('',(#601,#602,#603,#604,#605,#606));
#96=EDGE_LOOP('',(#607,#608,#609,#610));
#97=EDGE_LOOP('',(#611,#612,#613,#614));
#98=EDGE_LOOP('',(#615,#616,#617,#618));
#99=EDGE_LOOP('',(#619,#620,#621,#622,#623,#624));
#100=EDGE_LOOP('',(#625,#626,#627,#628));
#101=LINE('',#938,#189);
#102=LINE('',#940,#190);
#103=LINE('',#942,#191);
#104=LINE('',#944,#192);
#105=LINE('',#946,#193);
#106=LINE('',#947,#194);
#107=LINE('',#951,#195);
#108=LINE('',#953,#196);
#109=LINE('',#955,#197);
#110=LINE('',#956,#198);
#111=LINE('',#960,#199);
#112=LINE('',#962,#200);
#113=LINE('',#964,#201);
#114=LINE('',#966,#202);
#115=LINE('',#968,#203);
#116=LINE('',#969,#204);
#117=LINE('',#973,#205);
#118=LINE('',#975,#206);
#119=LINE('',#977,#207);
#120=LINE('',#978,#208);
#121=LINE('',#981,#209);
#122=LINE('',#982,#210);
#123=LINE('',#984,#211);
#124=LINE('',#986,#212);
#125=LINE('',#990,#213);
#126=LINE('',#993,#214);
#127=LINE('',#997,#215);
#128=LINE('',#998,#216);
#129=LINE('',#999,#217);
#130=LINE('',#1002,#218);
#131=LINE('',#1004,#219);
#132=LINE('',#1005,#220);
#133=LINE('',#1009,#221);
#134=LINE('',#1011,#222);
#135=LINE('',#1013,#223);
#136=LINE('',#1014,#224);
#137=LINE('',#1015,#225);
#138=LINE('',#1018,#226);
#139=LINE('',#1019,#227);
#140=LINE('',#1022,#228);
#141=LINE('',#1023,#229);
#142=LINE('',#1025,#230);
#143=LINE('',#1026,#231);
#144=LINE('',#1029,#232);
#145=LINE('',#1030,#233);
#146=LINE('',#1032,#234);
#147=LINE('',#1034,#235);
#148=LINE('',#1035,#236);
#149=LINE('',#1037,#237);
#150=LINE('',#1040,#238);
#151=LINE('',#1042,#239);
#152=LINE('',#1043,#240);
#153=LINE('',#1046,#241);
#154=LINE('',#1048,#242);
#155=LINE('',#1049,#243);
#156=LINE('',#1054,#244);
#157=LINE('',#1055,#245);
#158=LINE('',#1058,#246);
#159=LINE('',#1060,#247);
#160=LINE('',#1061,#248);
#161=LINE('',#1065,#249);
#162=LINE('',#1068,#250);
#163=LINE('',#1069,#251);
#164=LINE('',#1073,#252);
#165=LINE('',#1075,#253);
#166=LINE('',#1078,#254);
#167=LINE('',#1079,#255);
#168=LINE('',#1088,#256);
#169=LINE('',#1089,#257);
#170=LINE('',#1091,#258);
#171=LINE('',#1096,#259);
#172=LINE('',#1098,#260);
#173=LINE('',#1100,#261);
#174=LINE('',#1101,#262);
#175=LINE('',#1105,#263);
#176=LINE('',#1106,#264);
#177=LINE('',#1107,#265);
#178=LINE('',#1110,#266);
#179=LINE('',#1112,#267);
#180=LINE('',#1114,#268);
#181=LINE('',#1115,#269);
#182=LINE('',#1118,#270);
#183=LINE('',#1119,#271);
#184=LINE('',#1122,#272);
#185=LINE('',#1123,#273);
#186=LINE('',#1126,#274);
#187=LINE('',#1127,#275);
#188=LINE('',#1129,#276);
#189=VECTOR('',#760,10.);
#190=VECTOR('',#761,10.);
#191=VECTOR('',#762,10.);
#192=VECTOR('',#763,10.);
#193=VECTOR('',#764,10.);
#194=VECTOR('',#765,10.);
#195=VECTOR('',#768,10.);
#196=VECTOR('',#769,10.);
#197=VECTOR('',#770,10.);
#198=VECTOR('',#771,10.);
#199=VECTOR('',#774,10.);
#200=VECTOR('',#775,10.);
#201=VECTOR('',#776,10.);
#202=VECTOR('',#777,10.);
#203=VECTOR('',#778,10.);
#204=VECTOR('',#779,10.);
#205=VECTOR('',#782,10.);
#206=VECTOR('',#783,10.);
#207=VECTOR('',#784,10.);
#208=VECTOR('',#785,10.);
#209=VECTOR('',#788,10.);
#210=VECTOR('',#789,10.);
#211=VECTOR('',#790,10.);
#212=VECTOR('',#791,10.);
#213=VECTOR('',#794,10.);
#214=VECTOR('',#797,10.);
#215=VECTOR('',#800,10.);
#216=VECTOR('',#801,10.);
#217=VECTOR('',#802,10.);
#218=VECTOR('',#805,10.);
#219=VECTOR('',#806,10.);
#220=VECTOR('',#807,10.);
#221=VECTOR('',#810,10.);
#222=VECTOR('',#811,10.);
#223=VECTOR('',#812,10.);
#224=VECTOR('',#813,10.);
#225=VECTOR('',#814,10.);
#226=VECTOR('',#817,10.);
#227=VECTOR('',#818,10.);
#228=VECTOR('',#821,10.);
#229=VECTOR('',#822,10.);
#230=VECTOR('',#823,10.);
#231=VECTOR('',#824,10.);
#232=VECTOR('',#827,10.);
#233=VECTOR('',#828,10.);
#234=VECTOR('',#829,10.);
#235=VECTOR('',#830,10.);
#236=VECTOR('',#831,10.);
#237=VECTOR('',#834,10.);
#238=VECTOR('',#837,10.);
#239=VECTOR('',#838,10.);
#240=VECTOR('',#839,10.);
#241=VECTOR('',#842,10.);
#242=VECTOR('',#843,10.);
#243=VECTOR('',#844,10.);
#244=VECTOR('',#851,10.);
#245=VECTOR('',#852,10.);
#246=VECTOR('',#855,10.);
#247=VECTOR('',#856,10.);
#248=VECTOR('',#857,10.);
#249=VECTOR('',#862,10.);
#250=VECTOR('',#865,10.);
#251=VECTOR('',#866,10.);
#252=VECTOR('',#871,10.);
#253=VECTOR('',#874,10.);
#254=VECTOR('',#877,10.);
#255=VECTOR('',#878,10.);
#256=VECTOR('',#893,10.);
#257=VECTOR('',#894,10.);
#258=VECTOR('',#897,10.);
#259=VECTOR('',#902,10.);
#260=VECTOR('',#903,10.);
#261=VECTOR('',#904,10.);
#262=VECTOR('',#905,10.);
#263=VECTOR('',#908,10.);
#264=VECTOR('',#909,10.);
#265=VECTOR('',#910,10.);
#266=VECTOR('',#913,10.);
#267=VECTOR('',#914,10.);
#268=VECTOR('',#915,10.);
#269=VECTOR('',#916,10.);
#270=VECTOR('',#919,10.);
#271=VECTOR('',#920,10.);
#272=VECTOR('',#923,10.);
#273=VECTOR('',#924,10.);
#274=VECTOR('',#927,10.);
#275=VECTOR('',#928,10.);
#276=VECTOR('',#931,10.);
#277=VERTEX_POINT('',#936);
#278=VERTEX_POINT('',#937);
#279=VERTEX_POINT('',#939);
#280=VERTEX_POINT('',#941);
#281=VERTEX_POINT('',#943);
#282=VERTEX_POINT('',#945);
#283=VERTEX_POINT('',#949);
#284=VERTEX_POINT('',#950);
#285=VERTEX_POINT('',#952);
#286=VERTEX_POINT('',#954);
#287=VERTEX_POINT('',#958);
#288=VERTEX_POINT('',#959);
#289=VERTEX_POINT('',#961);
#290=VERTEX_POINT('',#963);
#291=VERTEX_POINT('',#965);
#292=VERTEX_POINT('',#967);
#293=VERTEX_POINT('',#971);
#294=VERTEX_POINT('',#972);
#295=VERTEX_POINT('',#974);
#296=VERTEX_POINT('',#976);
#297=VERTEX_POINT('',#980);
#298=VERTEX_POINT('',#983);
#299=VERTEX_POINT('',#985);
#300=VERTEX_POINT('',#987);
#301=VERTEX_POINT('',#989);
#302=VERTEX_POINT('',#991);
#303=VERTEX_POINT('',#995);
#304=VERTEX_POINT('',#996);
#305=VERTEX_POINT('',#1001);
#306=VERTEX_POINT('',#1003);
#307=VERTEX_POINT('',#1007);
#308=VERTEX_POINT('',#1008);
#309=VERTEX_POINT('',#1010);
#310=VERTEX_POINT('',#1012);
#311=VERTEX_POINT('',#1017);
#312=VERTEX_POINT('',#1021);
#313=VERTEX_POINT('',#1024);
#314=VERTEX_POINT('',#1028);
#315=VERTEX_POINT('',#1031);
#316=VERTEX_POINT('',#1033);
#317=VERTEX_POINT('',#1039);
#318=VERTEX_POINT('',#1041);
#319=VERTEX_POINT('',#1045);
#320=VERTEX_POINT('',#1047);
#321=VERTEX_POINT('',#1053);
#322=VERTEX_POINT('',#1057);
#323=VERTEX_POINT('',#1059);
#324=VERTEX_POINT('',#1063);
#325=VERTEX_POINT('',#1067);
#326=VERTEX_POINT('',#1071);
#327=VERTEX_POINT('',#1077);
#328=VERTEX_POINT('',#1087);
#329=VERTEX_POINT('',#1094);
#330=VERTEX_POINT('',#1095);
#331=VERTEX_POINT('',#1097);
#332=VERTEX_POINT('',#1099);
#333=VERTEX_POINT('',#1103);
#334=VERTEX_POINT('',#1104);
#335=VERTEX_POINT('',#1109);
#336=VERTEX_POINT('',#1111);
#337=VERTEX_POINT('',#1113);
#338=VERTEX_POINT('',#1117);
#339=VERTEX_POINT('',#1121);
#340=VERTEX_POINT('',#1125);
#341=EDGE_CURVE('',#277,#278,#101,.T.);
#342=EDGE_CURVE('',#279,#278,#102,.T.);
#343=EDGE_CURVE('',#280,#279,#103,.T.);
#344=EDGE_CURVE('',#281,#280,#104,.T.);
#345=EDGE_CURVE('',#282,#281,#105,.T.);
#346=EDGE_CURVE('',#282,#277,#106,.T.);
#347=EDGE_CURVE('',#283,#284,#107,.T.);
#348=EDGE_CURVE('',#285,#283,#108,.T.);
#349=EDGE_CURVE('',#285,#286,#109,.F.);
#350=EDGE_CURVE('',#286,#284,#110,.F.);
#351=EDGE_CURVE('',#287,#288,#111,.T.);
#352=EDGE_CURVE('',#289,#287,#112,.T.);
#353=EDGE_CURVE('',#289,#290,#113,.T.);
#354=EDGE_CURVE('',#290,#291,#114,.T.);
#355=EDGE_CURVE('',#292,#291,#115,.T.);
#356=EDGE_CURVE('',#288,#292,#116,.T.);
#357=EDGE_CURVE('',#293,#294,#117,.T.);
#358=EDGE_CURVE('',#294,#295,#118,.F.);
#359=EDGE_CURVE('',#295,#296,#119,.F.);
#360=EDGE_CURVE('',#293,#296,#120,.T.);
#361=EDGE_CURVE('',#293,#297,#121,.T.);
#362=EDGE_CURVE('',#296,#285,#122,.T.);
#363=EDGE_CURVE('',#283,#298,#123,.T.);
#364=EDGE_CURVE('',#298,#299,#124,.F.);
#365=EDGE_CURVE('',#300,#299,#21,.T.);
#366=EDGE_CURVE('',#300,#301,#125,.T.);
#367=EDGE_CURVE('',#302,#301,#22,.T.);
#368=EDGE_CURVE('',#302,#297,#126,.F.);
#369=EDGE_CURVE('',#303,#304,#127,.T.);
#370=EDGE_CURVE('',#304,#277,#128,.T.);
#371=EDGE_CURVE('',#303,#282,#129,.T.);
#372=EDGE_CURVE('',#290,#305,#130,.T.);
#373=EDGE_CURVE('',#306,#305,#131,.T.);
#374=EDGE_CURVE('',#291,#306,#132,.T.);
#375=EDGE_CURVE('',#307,#308,#133,.T.);
#376=EDGE_CURVE('',#309,#307,#134,.T.);
#377=EDGE_CURVE('',#310,#309,#135,.T.);
#378=EDGE_CURVE('',#286,#310,#136,.T.);
#379=EDGE_CURVE('',#308,#295,#137,.T.);
#380=EDGE_CURVE('',#311,#289,#138,.T.);
#381=EDGE_CURVE('',#305,#311,#139,.T.);
#382=EDGE_CURVE('',#312,#311,#140,.T.);
#383=EDGE_CURVE('',#294,#312,#141,.T.);
#384=EDGE_CURVE('',#313,#297,#142,.T.);
#385=EDGE_CURVE('',#306,#313,#143,.T.);
#386=EDGE_CURVE('',#314,#303,#144,.T.);
#387=EDGE_CURVE('',#298,#314,#145,.T.);
#388=EDGE_CURVE('',#315,#284,#146,.T.);
#389=EDGE_CURVE('',#316,#315,#147,.T.);
#390=EDGE_CURVE('',#316,#304,#148,.T.);
#391=EDGE_CURVE('',#278,#316,#149,.T.);
#392=EDGE_CURVE('',#317,#287,#150,.T.);
#393=EDGE_CURVE('',#318,#317,#151,.T.);
#394=EDGE_CURVE('',#312,#318,#152,.F.);
#395=EDGE_CURVE('',#319,#315,#153,.F.);
#396=EDGE_CURVE('',#320,#319,#154,.T.);
#397=EDGE_CURVE('',#279,#320,#155,.T.);
#398=EDGE_CURVE('',#308,#318,#23,.T.);
#399=EDGE_CURVE('',#321,#314,#156,.T.);
#400=EDGE_CURVE('',#299,#321,#157,.T.);
#401=EDGE_CURVE('',#322,#280,#158,.F.);
#402=EDGE_CURVE('',#323,#322,#159,.T.);
#403=EDGE_CURVE('',#323,#281,#160,.T.);
#404=EDGE_CURVE('',#321,#324,#24,.T.);
#405=EDGE_CURVE('',#324,#300,#161,.T.);
#406=EDGE_CURVE('',#325,#324,#162,.T.);
#407=EDGE_CURVE('',#301,#325,#163,.T.);
#408=EDGE_CURVE('',#325,#326,#25,.T.);
#409=EDGE_CURVE('',#326,#302,#164,.T.);
#410=EDGE_CURVE('',#313,#326,#165,.T.);
#411=EDGE_CURVE('',#323,#327,#166,.F.);
#412=EDGE_CURVE('',#327,#292,#167,.F.);
#413=EDGE_CURVE('',#319,#310,#26,.T.);
#414=EDGE_CURVE('',#309,#320,#27,.T.);
#415=EDGE_CURVE('',#317,#307,#28,.T.);
#416=EDGE_CURVE('',#328,#327,#168,.T.);
#417=EDGE_CURVE('',#328,#288,#169,.T.);
#418=EDGE_CURVE('',#322,#328,#170,.T.);
#419=EDGE_CURVE('',#329,#330,#171,.T.);
#420=EDGE_CURVE('',#331,#329,#172,.T.);
#421=EDGE_CURVE('',#332,#331,#173,.T.);
#422=EDGE_CURVE('',#330,#332,#174,.T.);
#423=EDGE_CURVE('',#333,#334,#175,.T.);
#424=EDGE_CURVE('',#332,#334,#176,.T.);
#425=EDGE_CURVE('',#333,#331,#177,.T.);
#426=EDGE_CURVE('',#329,#335,#178,.T.);
#427=EDGE_CURVE('',#335,#336,#179,.T.);
#428=EDGE_CURVE('',#336,#337,#180,.T.);
#429=EDGE_CURVE('',#333,#337,#181,.T.);
#430=EDGE_CURVE('',#338,#330,#182,.T.);
#431=EDGE_CURVE('',#338,#335,#183,.T.);
#432=EDGE_CURVE('',#339,#338,#184,.T.);
#433=EDGE_CURVE('',#336,#339,#185,.T.);
#434=EDGE_CURVE('',#337,#340,#186,.T.);
#435=EDGE_CURVE('',#340,#339,#187,.T.);
#436=EDGE_CURVE('',#334,#340,#188,.T.);
#437=ORIENTED_EDGE('',*,*,#341,.T.);
#438=ORIENTED_EDGE('',*,*,#342,.F.);
#439=ORIENTED_EDGE('',*,*,#343,.F.);
#440=ORIENTED_EDGE('',*,*,#344,.F.);
#441=ORIENTED_EDGE('',*,*,#345,.F.);
#442=ORIENTED_EDGE('',*,*,#346,.T.);
#443=ORIENTED_EDGE('',*,*,#347,.F.);
#444=ORIENTED_EDGE('',*,*,#348,.F.);
#445=ORIENTED_EDGE('',*,*,#349,.T.);
#446=ORIENTED_EDGE('',*,*,#350,.T.);
#447=ORIENTED_EDGE('',*,*,#351,.F.);
#448=ORIENTED_EDGE('',*,*,#352,.F.);
#449=ORIENTED_EDGE('',*,*,#353,.T.);
#450=ORIENTED_EDGE('',*,*,#354,.T.);
#451=ORIENTED_EDGE('',*,*,#355,.F.);
#452=ORIENTED_EDGE('',*,*,#356,.F.);
#453=ORIENTED_EDGE('',*,*,#357,.T.);
#454=ORIENTED_EDGE('',*,*,#358,.T.);
#455=ORIENTED_EDGE('',*,*,#359,.T.);
#456=ORIENTED_EDGE('',*,*,#360,.F.);
#457=ORIENTED_EDGE('',*,*,#361,.F.);
#458=ORIENTED_EDGE('',*,*,#360,.T.);
#459=ORIENTED_EDGE('',*,*,#362,.T.);
#460=ORIENTED_EDGE('',*,*,#348,.T.);
#461=ORIENTED_EDGE('',*,*,#363,.T.);
#462=ORIENTED_EDGE('',*,*,#364,.T.);
#463=ORIENTED_EDGE('',*,*,#365,.F.);
#464=ORIENTED_EDGE('',*,*,#366,.T.);
#465=ORIENTED_EDGE('',*,*,#367,.F.);
#466=ORIENTED_EDGE('',*,*,#368,.T.);
#467=ORIENTED_EDGE('',*,*,#369,.T.);
#468=ORIENTED_EDGE('',*,*,#370,.T.);
#469=ORIENTED_EDGE('',*,*,#346,.F.);
#470=ORIENTED_EDGE('',*,*,#371,.F.);
#471=ORIENTED_EDGE('',*,*,#354,.F.);
#472=ORIENTED_EDGE('',*,*,#372,.T.);
#473=ORIENTED_EDGE('',*,*,#373,.F.);
#474=ORIENTED_EDGE('',*,*,#374,.F.);
#475=ORIENTED_EDGE('',*,*,#375,.F.);
#476=ORIENTED_EDGE('',*,*,#376,.F.);
#477=ORIENTED_EDGE('',*,*,#377,.F.);
#478=ORIENTED_EDGE('',*,*,#378,.F.);
#479=ORIENTED_EDGE('',*,*,#349,.F.);
#480=ORIENTED_EDGE('',*,*,#362,.F.);
#481=ORIENTED_EDGE('',*,*,#359,.F.);
#482=ORIENTED_EDGE('',*,*,#379,.F.);
#483=ORIENTED_EDGE('',*,*,#380,.F.);
#484=ORIENTED_EDGE('',*,*,#381,.F.);
#485=ORIENTED_EDGE('',*,*,#372,.F.);
#486=ORIENTED_EDGE('',*,*,#353,.F.);
#487=ORIENTED_EDGE('',*,*,#381,.T.);
#488=ORIENTED_EDGE('',*,*,#382,.F.);
#489=ORIENTED_EDGE('',*,*,#383,.F.);
#490=ORIENTED_EDGE('',*,*,#357,.F.);
#491=ORIENTED_EDGE('',*,*,#361,.T.);
#492=ORIENTED_EDGE('',*,*,#384,.F.);
#493=ORIENTED_EDGE('',*,*,#385,.F.);
#494=ORIENTED_EDGE('',*,*,#373,.T.);
#495=ORIENTED_EDGE('',*,*,#386,.F.);
#496=ORIENTED_EDGE('',*,*,#387,.F.);
#497=ORIENTED_EDGE('',*,*,#363,.F.);
#498=ORIENTED_EDGE('',*,*,#347,.T.);
#499=ORIENTED_EDGE('',*,*,#388,.F.);
#500=ORIENTED_EDGE('',*,*,#389,.F.);
#501=ORIENTED_EDGE('',*,*,#390,.T.);
#502=ORIENTED_EDGE('',*,*,#369,.F.);
#503=ORIENTED_EDGE('',*,*,#391,.F.);
#504=ORIENTED_EDGE('',*,*,#341,.F.);
#505=ORIENTED_EDGE('',*,*,#370,.F.);
#506=ORIENTED_EDGE('',*,*,#390,.F.);
#507=ORIENTED_EDGE('',*,*,#382,.T.);
#508=ORIENTED_EDGE('',*,*,#380,.T.);
#509=ORIENTED_EDGE('',*,*,#352,.T.);
#510=ORIENTED_EDGE('',*,*,#392,.F.);
#511=ORIENTED_EDGE('',*,*,#393,.F.);
#512=ORIENTED_EDGE('',*,*,#394,.F.);
#513=ORIENTED_EDGE('',*,*,#391,.T.);
#514=ORIENTED_EDGE('',*,*,#389,.T.);
#515=ORIENTED_EDGE('',*,*,#395,.F.);
#516=ORIENTED_EDGE('',*,*,#396,.F.);
#517=ORIENTED_EDGE('',*,*,#397,.F.);
#518=ORIENTED_EDGE('',*,*,#342,.T.);
#519=ORIENTED_EDGE('',*,*,#358,.F.);
#520=ORIENTED_EDGE('',*,*,#383,.T.);
#521=ORIENTED_EDGE('',*,*,#394,.T.);
#522=ORIENTED_EDGE('',*,*,#398,.F.);
#523=ORIENTED_EDGE('',*,*,#379,.T.);
#524=ORIENTED_EDGE('',*,*,#387,.T.);
#525=ORIENTED_EDGE('',*,*,#399,.F.);
#526=ORIENTED_EDGE('',*,*,#400,.F.);
#527=ORIENTED_EDGE('',*,*,#364,.F.);
#528=ORIENTED_EDGE('',*,*,#344,.T.);
#529=ORIENTED_EDGE('',*,*,#401,.F.);
#530=ORIENTED_EDGE('',*,*,#402,.F.);
#531=ORIENTED_EDGE('',*,*,#403,.T.);
#532=ORIENTED_EDGE('',*,*,#404,.T.);
#533=ORIENTED_EDGE('',*,*,#405,.T.);
#534=ORIENTED_EDGE('',*,*,#365,.T.);
#535=ORIENTED_EDGE('',*,*,#400,.T.);
#536=ORIENTED_EDGE('',*,*,#405,.F.);
#537=ORIENTED_EDGE('',*,*,#406,.F.);
#538=ORIENTED_EDGE('',*,*,#407,.F.);
#539=ORIENTED_EDGE('',*,*,#366,.F.);
#540=ORIENTED_EDGE('',*,*,#367,.T.);
#541=ORIENTED_EDGE('',*,*,#407,.T.);
#542=ORIENTED_EDGE('',*,*,#408,.T.);
#543=ORIENTED_EDGE('',*,*,#409,.T.);
#544=ORIENTED_EDGE('',*,*,#384,.T.);
#545=ORIENTED_EDGE('',*,*,#368,.F.);
#546=ORIENTED_EDGE('',*,*,#409,.F.);
#547=ORIENTED_EDGE('',*,*,#410,.F.);
#548=ORIENTED_EDGE('',*,*,#385,.T.);
#549=ORIENTED_EDGE('',*,*,#410,.T.);
#550=ORIENTED_EDGE('',*,*,#408,.F.);
#551=ORIENTED_EDGE('',*,*,#406,.T.);
#552=ORIENTED_EDGE('',*,*,#404,.F.);
#553=ORIENTED_EDGE('',*,*,#399,.T.);
#554=ORIENTED_EDGE('',*,*,#386,.T.);
#555=ORIENTED_EDGE('',*,*,#371,.T.);
#556=ORIENTED_EDGE('',*,*,#345,.T.);
#557=ORIENTED_EDGE('',*,*,#403,.F.);
#558=ORIENTED_EDGE('',*,*,#411,.T.);
#559=ORIENTED_EDGE('',*,*,#412,.T.);
#560=ORIENTED_EDGE('',*,*,#355,.T.);
#561=ORIENTED_EDGE('',*,*,#374,.T.);
#562=ORIENTED_EDGE('',*,*,#413,.T.);
#563=ORIENTED_EDGE('',*,*,#377,.T.);
#564=ORIENTED_EDGE('',*,*,#414,.T.);
#565=ORIENTED_EDGE('',*,*,#396,.T.);
#566=ORIENTED_EDGE('',*,*,#398,.T.);
#567=ORIENTED_EDGE('',*,*,#393,.T.);
#568=ORIENTED_EDGE('',*,*,#415,.T.);
#569=ORIENTED_EDGE('',*,*,#375,.T.);
#570=ORIENTED_EDGE('',*,*,#388,.T.);
#571=ORIENTED_EDGE('',*,*,#350,.F.);
#572=ORIENTED_EDGE('',*,*,#378,.T.);
#573=ORIENTED_EDGE('',*,*,#413,.F.);
#574=ORIENTED_EDGE('',*,*,#395,.T.);
#575=ORIENTED_EDGE('',*,*,#356,.T.);
#576=ORIENTED_EDGE('',*,*,#412,.F.);
#577=ORIENTED_EDGE('',*,*,#416,.F.);
#578=ORIENTED_EDGE('',*,*,#417,.T.);
#579=ORIENTED_EDGE('',*,*,#351,.T.);
#580=ORIENTED_EDGE('',*,*,#417,.F.);
#581=ORIENTED_EDGE('',*,*,#418,.F.);
#582=ORIENTED_EDGE('',*,*,#401,.T.);
#583=ORIENTED_EDGE('',*,*,#343,.T.);
#584=ORIENTED_EDGE('',*,*,#397,.T.);
#585=ORIENTED_EDGE('',*,*,#414,.F.);
#586=ORIENTED_EDGE('',*,*,#376,.T.);
#587=ORIENTED_EDGE('',*,*,#415,.F.);
#588=ORIENTED_EDGE('',*,*,#392,.T.);
#589=ORIENTED_EDGE('',*,*,#411,.F.);
#590=ORIENTED_EDGE('',*,*,#402,.T.);
#591=ORIENTED_EDGE('',*,*,#418,.T.);
#592=ORIENTED_EDGE('',*,*,#416,.T.);
#593=ORIENTED_EDGE('',*,*,#419,.F.);
#594=ORIENTED_EDGE('',*,*,#420,.F.);
#595=ORIENTED_EDGE('',*,*,#421,.F.);
#596=ORIENTED_EDGE('',*,*,#422,.F.);
#597=ORIENTED_EDGE('',*,*,#423,.T.);
#598=ORIENTED_EDGE('',*,*,#424,.F.);
#599=ORIENTED_EDGE('',*,*,#421,.T.);
#600=ORIENTED_EDGE('',*,*,#425,.F.);
#601=ORIENTED_EDGE('',*,*,#425,.T.);
#602=ORIENTED_EDGE('',*,*,#420,.T.);
#603=ORIENTED_EDGE('',*,*,#426,.T.);
#604=ORIENTED_EDGE('',*,*,#427,.T.);
#605=ORIENTED_EDGE('',*,*,#428,.T.);
#606=ORIENTED_EDGE('',*,*,#429,.F.);
#607=ORIENTED_EDGE('',*,*,#419,.T.);
#608=ORIENTED_EDGE('',*,*,#430,.F.);
#609=ORIENTED_EDGE('',*,*,#431,.T.);
#610=ORIENTED_EDGE('',*,*,#426,.F.);
#611=ORIENTED_EDGE('',*,*,#431,.F.);
#612=ORIENTED_EDGE('',*,*,#432,.F.);
#613=ORIENTED_EDGE('',*,*,#433,.F.);
#614=ORIENTED_EDGE('',*,*,#427,.F.);
#615=ORIENTED_EDGE('',*,*,#434,.F.);
#616=ORIENTED_EDGE('',*,*,#428,.F.);
#617=ORIENTED_EDGE('',*,*,#433,.T.);
#618=ORIENTED_EDGE('',*,*,#435,.F.);
#619=ORIENTED_EDGE('',*,*,#424,.T.);
#620=ORIENTED_EDGE('',*,*,#436,.T.);
#621=ORIENTED_EDGE('',*,*,#435,.T.);
#622=ORIENTED_EDGE('',*,*,#432,.T.);
#623=ORIENTED_EDGE('',*,*,#430,.T.);
#624=ORIENTED_EDGE('',*,*,#422,.T.);
#625=ORIENTED_EDGE('',*,*,#429,.T.);
#626=ORIENTED_EDGE('',*,*,#434,.T.);
#627=ORIENTED_EDGE('',*,*,#436,.F.);
#628=ORIENTED_EDGE('',*,*,#423,.F.);
#629=PLANE('',#712);
#630=PLANE('',#713);
#631=PLANE('',#714);
#632=PLANE('',#715);
#633=PLANE('',#716);
#634=PLANE('',#719);
#635=PLANE('',#720);
#636=PLANE('',#721);
#637=PLANE('',#722);
#638=PLANE('',#723);
#639=PLANE('',#724);
#640=PLANE('',#725);
#641=PLANE('',#726);
#642=PLANE('',#727);
#643=PLANE('',#728);
#644=PLANE('',#730);
#645=PLANE('',#731);
#646=PLANE('',#734);
#647=PLANE('',#737);
#648=PLANE('',#738);
#649=PLANE('',#744);
#650=PLANE('',#745);
#651=PLANE('',#746);
#652=PLANE('',#747);
#653=PLANE('',#748);
#654=PLANE('',#749);
#655=PLANE('',#750);
#656=PLANE('',#751);
#657=PLANE('',#752);
#658=PLANE('',#753);
#659=PLANE('',#754);
#660=PLANE('',#755);
#661=ADVANCED_FACE('',(#29),#629,.T.);
#662=ADVANCED_FACE('',(#30),#630,.F.);
#663=ADVANCED_FACE('',(#31),#631,.T.);
#664=ADVANCED_FACE('',(#32),#632,.F.);
#665=ADVANCED_FACE('',(#33),#633,.F.);
#666=ADVANCED_FACE('',(#34),#634,.F.);
#667=ADVANCED_FACE('',(#35),#635,.F.);
#668=ADVANCED_FACE('',(#36),#636,.F.);
#669=ADVANCED_FACE('',(#37),#637,.F.);
#670=ADVANCED_FACE('',(#38),#638,.F.);
#671=ADVANCED_FACE('',(#39),#639,.F.);
#672=ADVANCED_FACE('',(#40),#640,.F.);
#673=ADVANCED_FACE('',(#41),#641,.F.);
#674=ADVANCED_FACE('',(#42),#642,.F.);
#675=ADVANCED_FACE('',(#43),#643,.F.);
#676=ADVANCED_FACE('',(#44),#644,.F.);
#677=ADVANCED_FACE('',(#45),#645,.T.);
#678=ADVANCED_FACE('',(#46),#17,.F.);
#679=ADVANCED_FACE('',(#47),#646,.F.);
#680=ADVANCED_FACE('',(#48),#18,.F.);
#681=ADVANCED_FACE('',(#49),#647,.F.);
#682=ADVANCED_FACE('',(#50),#648,.T.);
#683=ADVANCED_FACE('',(#51),#19,.F.);
#684=ADVANCED_FACE('',(#52),#20,.F.);
#685=ADVANCED_FACE('',(#53),#649,.F.);
#686=ADVANCED_FACE('',(#54),#650,.T.);
#687=ADVANCED_FACE('',(#55),#651,.T.);
#688=ADVANCED_FACE('',(#56),#652,.F.);
#689=ADVANCED_FACE('',(#57),#653,.F.);
#690=ADVANCED_FACE('',(#58),#654,.F.);
#691=ADVANCED_FACE('',(#59),#655,.T.);
#692=ADVANCED_FACE('',(#60),#656,.F.);
#693=ADVANCED_FACE('',(#61),#657,.F.);
#694=ADVANCED_FACE('',(#62),#658,.F.);
#695=ADVANCED_FACE('',(#63),#659,.T.);
#696=ADVANCED_FACE('',(#64),#660,.T.);
#697=CLOSED_SHELL('',(#661,#662,#663,#664,#665,#666,#667,#668,#669,#670,
#671,#672,#673,#674,#675,#676,#677,#678,#679,#680,#681,#682,#683,#684,#685,
#686,#687,#688));
#698=CLOSED_SHELL('',(#689,#690,#691,#692,#693,#694,#695,#696));
#699=DERIVED_UNIT_ELEMENT(#701,1.);
#700=DERIVED_UNIT_ELEMENT(#1136,-3.);
#701=(
MASS_UNIT()
NAMED_UNIT(*)
SI_UNIT(.KILO.,.GRAM.)
);
#702=DERIVED_UNIT((#699,#700));
#703=MEASURE_REPRESENTATION_ITEM('density measure',
POSITIVE_RATIO_MEASURE(7850.),#702);
#704=PROPERTY_DEFINITION_REPRESENTATION(#709,#706);
#705=PROPERTY_DEFINITION_REPRESENTATION(#710,#707);
#706=REPRESENTATION('material name',(#708),#1133);
#707=REPRESENTATION('density',(#703),#1133);
#708=DESCRIPTIVE_REPRESENTATION_ITEM('Steel','Steel');
#709=PROPERTY_DEFINITION('material property','material name',#1143);
#710=PROPERTY_DEFINITION('material property','density of part',#1143);
#711=AXIS2_PLACEMENT_3D('',#934,#756,#757);
#712=AXIS2_PLACEMENT_3D('',#935,#758,#759);
#713=AXIS2_PLACEMENT_3D('',#948,#766,#767);
#714=AXIS2_PLACEMENT_3D('',#957,#772,#773);
#715=AXIS2_PLACEMENT_3D('',#970,#780,#781);
#716=AXIS2_PLACEMENT_3D('',#979,#786,#787);
#717=AXIS2_PLACEMENT_3D('',#988,#792,#793);
#718=AXIS2_PLACEMENT_3D('',#992,#795,#796);
#719=AXIS2_PLACEMENT_3D('',#994,#798,#799);
#720=AXIS2_PLACEMENT_3D('',#1000,#803,#804);
#721=AXIS2_PLACEMENT_3D('',#1006,#808,#809);
#722=AXIS2_PLACEMENT_3D('',#1016,#815,#816);
#723=AXIS2_PLACEMENT_3D('',#1020,#819,#820);
#724=AXIS2_PLACEMENT_3D('',#1027,#825,#826);
#725=AXIS2_PLACEMENT_3D('',#1036,#832,#833);
#726=AXIS2_PLACEMENT_3D('',#1038,#835,#836);
#727=AXIS2_PLACEMENT_3D('',#1044,#840,#841);
#728=AXIS2_PLACEMENT_3D('',#1050,#845,#846);
#729=AXIS2_PLACEMENT_3D('',#1051,#847,#848);
#730=AXIS2_PLACEMENT_3D('',#1052,#849,#850);
#731=AXIS2_PLACEMENT_3D('',#1056,#853,#854);
#732=AXIS2_PLACEMENT_3D('',#1062,#858,#859);
#733=AXIS2_PLACEMENT_3D('',#1064,#860,#861);
#734=AXIS2_PLACEMENT_3D('',#1066,#863,#864);
#735=AXIS2_PLACEMENT_3D('',#1070,#867,#868);
#736=AXIS2_PLACEMENT_3D('',#1072,#869,#870);
#737=AXIS2_PLACEMENT_3D('',#1074,#872,#873);
#738=AXIS2_PLACEMENT_3D('',#1076,#875,#876);
#739=AXIS2_PLACEMENT_3D('',#1080,#879,#880);
#740=AXIS2_PLACEMENT_3D('',#1081,#881,#882);
#741=AXIS2_PLACEMENT_3D('',#1082,#883,#884);
#742=AXIS2_PLACEMENT_3D('',#1083,#885,#886);
#743=AXIS2_PLACEMENT_3D('',#1084,#887,#888);
#744=AXIS2_PLACEMENT_3D('',#1085,#889,#890);
#745=AXIS2_PLACEMENT_3D('',#1086,#891,#892);
#746=AXIS2_PLACEMENT_3D('',#1090,#895,#896);
#747=AXIS2_PLACEMENT_3D('',#1092,#898,#899);
#748=AXIS2_PLACEMENT_3D('',#1093,#900,#901);
#749=AXIS2_PLACEMENT_3D('',#1102,#906,#907);
#750=AXIS2_PLACEMENT_3D('',#1108,#911,#912);
#751=AXIS2_PLACEMENT_3D('',#1116,#917,#918);
#752=AXIS2_PLACEMENT_3D('',#1120,#921,#922);
#753=AXIS2_PLACEMENT_3D('',#1124,#925,#926);
#754=AXIS2_PLACEMENT_3D('',#1128,#929,#930);
#755=AXIS2_PLACEMENT_3D('',#1130,#932,#933);
#756=DIRECTION('axis',(0.,0.,1.));
#757=DIRECTION('refdir',(1.,0.,0.));
#758=DIRECTION('center_axis',(0.,0.,1.));
#759=DIRECTION('ref_axis',(-1.,0.,0.));
#760=DIRECTION('',(0.,1.,0.));
#761=DIRECTION('',(1.,0.,0.));
#762=DIRECTION('',(0.,1.,0.));
#763=DIRECTION('',(-1.,0.,0.));
#764=DIRECTION('',(0.,-1.,0.));
#765=DIRECTION('',(-1.,0.,0.));
#766=DIRECTION('center_axis',(0.,-1.,0.));
#767=DIRECTION('ref_axis',(1.,0.,0.));
#768=DIRECTION('',(-1.,0.,0.));
#769=DIRECTION('',(0.,0.,1.));
#770=DIRECTION('',(1.,0.,0.));
#771=DIRECTION('',(0.,0.,-1.));
#772=DIRECTION('center_axis',(0.,0.,1.));
#773=DIRECTION('ref_axis',(-1.,0.,0.));
#774=DIRECTION('',(0.,1.,0.));
#775=DIRECTION('',(-1.,0.,0.));
#776=DIRECTION('',(0.,1.,0.));
#777=DIRECTION('',(1.,0.,0.));
#778=DIRECTION('',(0.,-1.,0.));
#779=DIRECTION('',(1.,0.,0.));
#780=DIRECTION('center_axis',(0.,1.,0.));
#781=DIRECTION('ref_axis',(-1.,0.,0.));
#782=DIRECTION('',(-1.,0.,0.));
#783=DIRECTION('',(0.,0.,1.));
#784=DIRECTION('',(-1.,0.,0.));
#785=DIRECTION('',(0.,0.,-1.));
#786=DIRECTION('center_axis',(1.,0.,0.));
#787=DIRECTION('ref_axis',(0.,1.,0.));
#788=DIRECTION('',(0.,-1.,5.49650548186205E-16));
#789=DIRECTION('',(0.,-1.,0.));
#790=DIRECTION('',(0.,1.,5.49650548186205E-16));
#791=DIRECTION('',(0.,0.,1.));
#792=DIRECTION('center_axis',(-1.,0.,0.));
#793=DIRECTION('ref_axis',(0.,-0.707106781186547,-0.707106781186548));
#794=DIRECTION('',(0.,1.,0.));
#795=DIRECTION('center_axis',(-1.,0.,0.));
#796=DIRECTION('ref_axis',(0.,0.707106781186547,-0.707106781186548));
#797=DIRECTION('',(0.,0.,-1.));
#798=DIRECTION('center_axis',(0.,-0.706839146816098,0.707374314297805));
#799=DIRECTION('ref_axis',(0.,0.707374314297805,0.706839146816098));
#800=DIRECTION('',(-1.,0.,0.));
#801=DIRECTION('',(0.,0.707374314297805,0.706839146816098));
#802=DIRECTION('',(0.,0.707374314297805,0.706839146816098));
#803=DIRECTION('center_axis',(0.,0.706839146816098,0.707374314297805));
#804=DIRECTION('ref_axis',(0.,0.707374314297805,-0.706839146816098));
#805=DIRECTION('',(0.,0.707374314297805,-0.706839146816098));
#806=DIRECTION('',(-1.,0.,0.));
#807=DIRECTION('',(0.,0.707374314297805,-0.706839146816098));
#808=DIRECTION('center_axis',(0.,0.,-1.));
#809=DIRECTION('ref_axis',(1.,0.,0.));
#810=DIRECTION('',(1.,0.,0.));
#811=DIRECTION('',(0.,1.,0.));
#812=DIRECTION('',(-1.,0.,0.));
#813=DIRECTION('',(0.,1.,0.));
#814=DIRECTION('',(0.,1.,0.));
#815=DIRECTION('center_axis',(-1.,0.,0.));
#816=DIRECTION('ref_axis',(0.,0.,1.));
#817=DIRECTION('',(0.,0.,1.));
#818=DIRECTION('',(0.,-1.,5.49650548186205E-16));
#819=DIRECTION('center_axis',(0.,-5.49650548186205E-16,-1.));
#820=DIRECTION('ref_axis',(0.,-1.,5.49650548186205E-16));
#821=DIRECTION('',(-1.,0.,0.));
#822=DIRECTION('',(0.,-1.,5.49650548186205E-16));
#823=DIRECTION('',(-1.,0.,0.));
#824=DIRECTION('',(0.,-1.,5.49650548186205E-16));
#825=DIRECTION('center_axis',(0.,-5.49650548186205E-16,-1.));
#826=DIRECTION('ref_axis',(0.,-1.,5.49650548186205E-16));
#827=DIRECTION('',(0.,-1.,-5.49650548186205E-16));
#828=DIRECTION('',(1.,0.,0.));
#829=DIRECTION('',(0.,-1.,-5.49650548186205E-16));
#830=DIRECTION('',(1.,0.,0.));
#831=DIRECTION('',(0.,-1.,-5.49650548186205E-16));
#832=DIRECTION('center_axis',(-1.,0.,0.));
#833=DIRECTION('ref_axis',(0.,0.,1.));
#834=DIRECTION('',(0.,0.,-1.));
#835=DIRECTION('center_axis',(0.,1.,0.));
#836=DIRECTION('ref_axis',(1.,0.,0.));
#837=DIRECTION('',(0.,0.,1.));
#838=DIRECTION('',(-1.,0.,0.));
#839=DIRECTION('',(0.,0.,1.));
#840=DIRECTION('center_axis',(0.,-1.,0.));
#841=DIRECTION('ref_axis',(-1.,0.,0.));
#842=DIRECTION('',(0.,0.,-1.));
#843=DIRECTION('',(1.,0.,0.));
#844=DIRECTION('',(0.,0.,-1.));
#845=DIRECTION('center_axis',(-1.,0.,0.));
#846=DIRECTION('ref_axis',(0.,-1.,0.));
#847=DIRECTION('center_axis',(1.,0.,0.));
#848=DIRECTION('ref_axis',(0.,0.707106781186548,-0.707106781186547));
#849=DIRECTION('center_axis',(0.,-1.,0.));
#850=DIRECTION('ref_axis',(1.,0.,0.));
#851=DIRECTION('',(0.,0.,1.));
#852=DIRECTION('',(1.,0.,0.));
#853=DIRECTION('center_axis',(0.,-1.,0.));
#854=DIRECTION('ref_axis',(1.,0.,0.));
#855=DIRECTION('',(0.,0.,-1.));
#856=DIRECTION('',(-1.,0.,0.));
#857=DIRECTION('',(0.,0.,1.));
#858=DIRECTION('center_axis',(-1.,0.,0.));
#859=DIRECTION('ref_axis',(0.,-0.707106781186547,-0.707106781186548));
#860=DIRECTION('center_axis',(1.,0.,0.));
#861=DIRECTION('ref_axis',(0.,-0.707106781186547,-0.707106781186548));
#862=DIRECTION('',(-1.,0.,0.));
#863=DIRECTION('center_axis',(0.,0.,-1.));
#864=DIRECTION('ref_axis',(-1.,0.,0.));
#865=DIRECTION('',(0.,-1.,0.));
#866=DIRECTION('',(1.,0.,0.));
#867=DIRECTION('center_axis',(1.,0.,0.));
#868=DIRECTION('ref_axis',(0.,0.707106781186547,-0.707106781186548));
#869=DIRECTION('center_axis',(1.,0.,0.));
#870=DIRECTION('ref_axis',(0.,0.707106781186547,-0.707106781186548));
#871=DIRECTION('',(-1.,0.,0.));
#872=DIRECTION('center_axis',(0.,1.,0.));
#873=DIRECTION('ref_axis',(-1.,0.,0.));
#874=DIRECTION('',(0.,0.,-1.));
#875=DIRECTION('center_axis',(1.,0.,0.));
#876=DIRECTION('ref_axis',(0.,1.,0.));
#877=DIRECTION('',(0.,-1.,0.));
#878=DIRECTION('',(0.,0.,-1.));
#879=DIRECTION('center_axis',(-1.,0.,0.));
#880=DIRECTION('ref_axis',(0.,-0.707106781186548,-0.707106781186547));
#881=DIRECTION('center_axis',(1.,0.,0.));
#882=DIRECTION('ref_axis',(0.,-0.707106781186548,-0.707106781186547));
#883=DIRECTION('center_axis',(-1.,0.,0.));
#884=DIRECTION('ref_axis',(0.,-0.707106781186548,-0.707106781186547));
#885=DIRECTION('center_axis',(1.,0.,0.));
#886=DIRECTION('ref_axis',(0.,0.707106781186548,-0.707106781186547));
#887=DIRECTION('center_axis',(-1.,0.,0.));
#888=DIRECTION('ref_axis',(0.,0.707106781186548,-0.707106781186547));
#889=DIRECTION('center_axis',(-1.,0.,0.));
#890=DIRECTION('ref_axis',(0.,-1.,0.));
#891=DIRECTION('center_axis',(0.,1.,0.));
#892=DIRECTION('ref_axis',(-1.,0.,0.));
#893=DIRECTION('',(1.,0.,0.));
#894=DIRECTION('',(0.,0.,1.));
#895=DIRECTION('center_axis',(-1.,0.,0.));
#896=DIRECTION('ref_axis',(0.,-1.,0.));
#897=DIRECTION('',(0.,1.,0.));
#898=DIRECTION('center_axis',(0.,0.,1.));
#899=DIRECTION('ref_axis',(1.,0.,0.));
#900=DIRECTION('center_axis',(0.,0.70683914681612,-0.707374314297784));
#901=DIRECTION('ref_axis',(-1.,0.,0.));
#902=DIRECTION('',(-1.,0.,0.));
#903=DIRECTION('',(0.,-0.707374314297784,-0.70683914681612));
#904=DIRECTION('',(1.,0.,0.));
#905=DIRECTION('',(0.,0.707374314297784,0.70683914681612));
#906=DIRECTION('center_axis',(0.,0.707374314297784,0.70683914681612));
#907=DIRECTION('ref_axis',(1.,0.,0.));
#908=DIRECTION('',(-1.,0.,0.));
#909=DIRECTION('',(0.,-0.70683914681612,0.707374314297784));
#910=DIRECTION('',(0.,0.70683914681612,-0.707374314297784));
#911=DIRECTION('center_axis',(1.,0.,0.));
#912=DIRECTION('ref_axis',(0.,1.,0.));
#913=DIRECTION('',(0.,1.,0.));
#914=DIRECTION('',(0.,-0.707374314297784,0.70683914681612));
#915=DIRECTION('',(0.,0.70683914681612,0.707374314297784));
#916=DIRECTION('',(0.,1.,0.));
#917=DIRECTION('center_axis',(0.,0.,1.));
#918=DIRECTION('ref_axis',(1.,0.,0.));
#919=DIRECTION('',(0.,-1.,0.));
#920=DIRECTION('',(1.,0.,0.));
#921=DIRECTION('center_axis',(0.,-0.70683914681612,-0.707374314297784));
#922=DIRECTION('ref_axis',(-1.,0.,0.));
#923=DIRECTION('',(0.,0.707374314297784,-0.70683914681612));
#924=DIRECTION('',(-1.,0.,0.));
#925=DIRECTION('center_axis',(0.,-0.707374314297784,0.70683914681612));
#926=DIRECTION('ref_axis',(-1.,0.,0.));
#927=DIRECTION('',(-1.,0.,0.));
#928=DIRECTION('',(0.,-0.70683914681612,-0.707374314297784));
#929=DIRECTION('center_axis',(-1.,0.,0.));
#930=DIRECTION('ref_axis',(0.,0.,1.));
#931=DIRECTION('',(0.,1.,0.));
#932=DIRECTION('center_axis',(0.,0.,1.));
#933=DIRECTION('ref_axis',(0.,1.,0.));
#934=CARTESIAN_POINT('',(0.,0.,0.));
#935=CARTESIAN_POINT('Origin',(6.25,39.6270000372529,8.142));
#936=CARTESIAN_POINT('',(-6.6947981321,21.14915083407,8.142));
#937=CARTESIAN_POINT('',(-6.6947981321,29.0809999254942,8.142));
#938=CARTESIAN_POINT('',(-6.6947981321,27.9463383456743,8.142));
#939=CARTESIAN_POINT('',(-7.187,29.0809999254942,8.142));
#940=CARTESIAN_POINT('',(0.624999962747093,29.0809999254942,8.142));
#941=CARTESIAN_POINT('',(-7.187,18.707,8.142));
#942=CARTESIAN_POINT('',(-7.187,38.165,8.142));
#943=CARTESIAN_POINT('',(19.687,18.707,8.142));
#944=CARTESIAN_POINT('',(-0.875,18.707,8.142));
#945=CARTESIAN_POINT('',(19.687,21.14915083407,8.142));
#946=CARTESIAN_POINT('',(19.687,23.465,8.142));
#947=CARTESIAN_POINT('',(12.9685,21.14915083407,8.142));
#948=CARTESIAN_POINT('Origin',(-6.00000000000001,21.1808025391,0.));
#949=CARTESIAN_POINT('',(18.5,21.1808025391,6.622));
#950=CARTESIAN_POINT('',(-6.00000000000001,21.1808025391,6.622));
#951=CARTESIAN_POINT('',(6.8435,21.1808025391,6.62200000000001));
#952=CARTESIAN_POINT('',(18.5,21.1808025391,1.098));
#953=CARTESIAN_POINT('',(18.5,21.1808025391,0.));
#954=CARTESIAN_POINT('',(-6.00000000000001,21.1808025391,1.098));
#955=CARTESIAN_POINT('',(0.124999999999995,21.1808025391,1.098));
#956=CARTESIAN_POINT('',(-6.00000000000001,21.1808025391,0.));
#957=CARTESIAN_POINT('Origin',(6.25,39.6270000372529,8.142));
#958=CARTESIAN_POINT('',(-7.18700000000001,33.3490000745058,8.142));
#959=CARTESIAN_POINT('',(-7.187,43.723,8.142));
#960=CARTESIAN_POINT('',(-7.187,42.3710000186264,8.142));
#961=CARTESIAN_POINT('',(-6.6947981321,33.3490000745058,8.142));
#962=CARTESIAN_POINT('',(-1.37500006705523,33.3490000745058,8.142));
#963=CARTESIAN_POINT('',(-6.6947981321,41.28084916593,8.142));
#964=CARTESIAN_POINT('',(-6.6947981321,38.6896616729521,8.142));
#965=CARTESIAN_POINT('',(19.687,41.28084916593,8.142));
#966=CARTESIAN_POINT('',(12.9685,41.28084916593,8.142));
#967=CARTESIAN_POINT('',(19.687,43.723,8.142));
#968=CARTESIAN_POINT('',(19.687,27.6710000186265,8.142));
#969=CARTESIAN_POINT('',(13.375,43.723,8.142));
#970=CARTESIAN_POINT('Origin',(18.5,41.2491974609,0.));
#971=CARTESIAN_POINT('',(18.5,41.2491974609,6.622));
#972=CARTESIAN_POINT('',(-6.00000000000001,41.2491974609,6.622));
#973=CARTESIAN_POINT('',(19.0935,41.2491974609,6.622));
#974=CARTESIAN_POINT('',(-6.00000000000001,41.2491974609,1.098));
#975=CARTESIAN_POINT('',(-6.00000000000001,41.2491974609,0.));
#976=CARTESIAN_POINT('',(18.5,41.2491974609,1.098));
#977=CARTESIAN_POINT('',(12.375,41.2491974609,1.098));
#978=CARTESIAN_POINT('',(18.5,41.2491974609,0.));
#979=CARTESIAN_POINT('Origin',(18.5,19.315,0.));
#980=CARTESIAN_POINT('',(18.5,35.707,6.622));
#981=CARTESIAN_POINT('',(18.5,31.0585,6.622));
#982=CARTESIAN_POINT('',(18.5,25.265,1.098));
#983=CARTESIAN_POINT('',(18.5,26.723,6.622));
#984=CARTESIAN_POINT('',(18.5,24.5211766913487,6.622));
#985=CARTESIAN_POINT('',(18.5,26.723,2.313));
#986=CARTESIAN_POINT('',(18.5,26.723,3.6));
#987=CARTESIAN_POINT('',(18.5,27.646,1.39));
#988=CARTESIAN_POINT('Origin',(18.5,27.646,2.313));
#989=CARTESIAN_POINT('',(18.5,34.784,1.39));
#990=CARTESIAN_POINT('',(18.5,25.265,1.39));
#991=CARTESIAN_POINT('',(18.5,35.707,2.313));
#992=CARTESIAN_POINT('Origin',(18.5,34.784,2.313));
#993=CARTESIAN_POINT('',(18.5,35.707,3.6));
#994=CARTESIAN_POINT('Origin',(19.687,19.628,6.622));
#995=CARTESIAN_POINT('',(19.687,19.628,6.622));
#996=CARTESIAN_POINT('',(-6.6947981321,19.628,6.622));
#997=CARTESIAN_POINT('',(19.687,19.628,6.622));
#998=CARTESIAN_POINT('',(-6.6947981321,19.628,6.622));
#999=CARTESIAN_POINT('',(19.687,14.4685108175493,1.46641425421197));
#1000=CARTESIAN_POINT('Origin',(19.687,41.28084916593,8.142));
#1001=CARTESIAN_POINT('',(-6.6947981321,42.802,6.622));
#1002=CARTESIAN_POINT('',(-6.6947981321,42.802,6.622));
#1003=CARTESIAN_POINT('',(19.687,42.802,6.622));
#1004=CARTESIAN_POINT('',(19.687,42.802,6.622));
#1005=CARTESIAN_POINT('',(19.687,39.4450482472272,9.97641203457916));
#1006=CARTESIAN_POINT('Origin',(6.25,31.215,1.098));
#1007=CARTESIAN_POINT('',(-7.187,31.5520000745058,1.098));
#1008=CARTESIAN_POINT('',(-6.00000000000001,31.5520000745058,1.098));
#1009=CARTESIAN_POINT('',(-1.37500006705523,31.5520000745058,1.098));
#1010=CARTESIAN_POINT('',(-7.187,30.8779999254942,1.098));
#1011=CARTESIAN_POINT('',(-7.187,38.165,1.098));
#1012=CARTESIAN_POINT('',(-6.00000000000001,30.8779999254942,1.098));
#1013=CARTESIAN_POINT('',(0.624999962747093,30.8779999254942,1.098));
#1014=CARTESIAN_POINT('',(-6.00000000000001,37.165,1.098));
#1015=CARTESIAN_POINT('',(-6.00000000000001,37.165,1.098));
#1016=CARTESIAN_POINT('Origin',(-6.6947981321,37.7523233086513,7.382));
#1017=CARTESIAN_POINT('',(-6.6947981321,33.3490000745058,6.622));
#1018=CARTESIAN_POINT('',(-6.6947981321,33.3490000745058,9.791));
#1019=CARTESIAN_POINT('',(-6.6947981321,32.7026466173027,6.622));
#1020=CARTESIAN_POINT('Origin',(19.687,42.802,6.622));
#1021=CARTESIAN_POINT('',(-6.00000000000001,33.3490000745058,6.622));
#1022=CARTESIAN_POINT('',(5.34349993294477,33.3490000745058,6.622));
#1023=CARTESIAN_POINT('',(-6.,42.9585,6.622));
#1024=CARTESIAN_POINT('',(19.687,35.707,6.622));
#1025=CARTESIAN_POINT('',(20.5935,35.707,6.622));
#1026=CARTESIAN_POINT('',(19.687,29.2585,6.62200000000001));
#1027=CARTESIAN_POINT('Origin',(19.687,42.802,6.622));
#1028=CARTESIAN_POINT('',(19.687,26.723,6.622));
#1029=CARTESIAN_POINT('',(19.687,22.7211766913487,6.622));
#1030=CARTESIAN_POINT('',(18.8435,26.723,6.622));
#1031=CARTESIAN_POINT('',(-6.00000000000001,29.0809999254942,6.622));
#1032=CARTESIAN_POINT('',(-6.,36.4211766913487,6.62200000000001));
#1033=CARTESIAN_POINT('',(-6.6947981321,29.0809999254942,6.622));
#1034=CARTESIAN_POINT('',(7.3434999627471,29.0809999254942,6.622));
#1035=CARTESIAN_POINT('',(-6.6947981321,29.7273533826973,6.622));
#1036=CARTESIAN_POINT('Origin',(-6.6947981321,24.6776766913487,7.382));
#1037=CARTESIAN_POINT('',(-6.6947981321,29.0809999254942,9.791));
#1038=CARTESIAN_POINT('Origin',(-9.00000013411045,33.3490000745058,12.2));
#1039=CARTESIAN_POINT('',(-7.187,33.3490000745058,2.895));
#1040=CARTESIAN_POINT('',(-7.187,33.3490000745058,6.1));
#1041=CARTESIAN_POINT('',(-6.00000000000001,33.3490000745058,2.895));
#1042=CARTESIAN_POINT('',(-1.37500006705523,33.3490000745058,2.895));
#1043=CARTESIAN_POINT('',(-6.00000000000001,33.3490000745058,6.1));
#1044=CARTESIAN_POINT('Origin',(-5.00000007450581,29.0809999254942,12.2));
#1045=CARTESIAN_POINT('',(-6.00000000000001,29.0809999254942,2.895));
#1046=CARTESIAN_POINT('',(-6.00000000000001,29.0809999254942,6.1));
#1047=CARTESIAN_POINT('',(-7.187,29.0809999254942,2.895));
#1048=CARTESIAN_POINT('',(0.624999962747093,29.0809999254942,2.895));
#1049=CARTESIAN_POINT('',(-7.187,29.0809999254942,6.1));
#1050=CARTESIAN_POINT('Origin',(-6.00000000000001,43.115,0.));
#1051=CARTESIAN_POINT('Origin',(-6.00000000000001,31.5520000745058,2.895));
#1052=CARTESIAN_POINT('Origin',(18.,26.723,7.2));
#1053=CARTESIAN_POINT('',(19.687,26.723,2.313));
#1054=CARTESIAN_POINT('',(19.687,26.723,-1.45));
#1055=CARTESIAN_POINT('',(18.875,26.723,2.313));
#1056=CARTESIAN_POINT('Origin',(-8.,18.707,0.));
#1057=CARTESIAN_POINT('',(-7.187,18.707,0.));
#1058=CARTESIAN_POINT('',(-7.187,18.707,0.));
#1059=CARTESIAN_POINT('',(19.687,18.707,0.));
#1060=CARTESIAN_POINT('',(-4.45375,18.707,0.));
#1061=CARTESIAN_POINT('',(19.687,18.707,-5.05));
#1062=CARTESIAN_POINT('Origin',(18.875,27.646,2.313));
#1063=CARTESIAN_POINT('',(19.687,27.646,1.39));
#1064=CARTESIAN_POINT('Origin',(19.687,27.646,2.313));
#1065=CARTESIAN_POINT('',(18.875,27.646,1.39));
#1066=CARTESIAN_POINT('Origin',(19.75,31.215,1.39));
#1067=CARTESIAN_POINT('',(19.687,34.784,1.39));
#1068=CARTESIAN_POINT('',(19.687,23.465,1.39));
#1069=CARTESIAN_POINT('',(20.625,34.784,1.39));
#1070=CARTESIAN_POINT('Origin',(20.625,34.784,2.313));
#1071=CARTESIAN_POINT('',(19.687,35.707,2.313));
#1072=CARTESIAN_POINT('Origin',(19.687,34.784,2.313));
#1073=CARTESIAN_POINT('',(20.625,35.707,2.313));
#1074=CARTESIAN_POINT('Origin',(21.5,35.707,7.2));
#1075=CARTESIAN_POINT('',(19.687,35.707,-1.45));
#1076=CARTESIAN_POINT('Origin',(19.687,15.715,-10.1));
#1077=CARTESIAN_POINT('',(19.687,43.723,0.));
#1078=CARTESIAN_POINT('',(19.687,23.465,0.));
#1079=CARTESIAN_POINT('',(19.687,43.723,-5.05));
#1080=CARTESIAN_POINT('Origin',(0.624999962747093,30.8779999254942,2.895));
#1081=CARTESIAN_POINT('Origin',(-6.00000000000001,30.8779999254942,2.895));
#1082=CARTESIAN_POINT('Origin',(-7.187,30.8779999254942,2.895));
#1083=CARTESIAN_POINT('Origin',(-1.37500006705523,31.5520000745058,2.895));
#1084=CARTESIAN_POINT('Origin',(-7.187,31.5520000745058,2.895));
#1085=CARTESIAN_POINT('Origin',(-6.00000000000001,43.115,0.));
#1086=CARTESIAN_POINT('Origin',(20.5,43.723,0.));
#1087=CARTESIAN_POINT('',(-7.187,43.723,0.));
#1088=CARTESIAN_POINT('',(9.79625,43.723,0.));
#1089=CARTESIAN_POINT('',(-7.187,43.723,0.));
#1090=CARTESIAN_POINT('Origin',(-7.187,45.115,0.));
#1091=CARTESIAN_POINT('',(-7.187,38.165,0.));
#1092=CARTESIAN_POINT('Origin',(-0.907500000000003,31.215,0.));
#1093=CARTESIAN_POINT('Origin',(19.687,19.6350683914682,6.61492625685702));
#1094=CARTESIAN_POINT('',(19.687,19.6521550616146,6.632));
#1095=CARTESIAN_POINT('',(-6.695,19.6521550616146,6.632));
#1096=CARTESIAN_POINT('',(19.687,19.6521550616146,6.632));
#1097=CARTESIAN_POINT('',(19.687,21.1562192255382,8.13492625685702));
#1098=CARTESIAN_POINT('',(19.687,22.7240107163818,9.70153162741482));
#1099=CARTESIAN_POINT('',(-6.695,21.1562192255382,8.13492625685702));
#1100=CARTESIAN_POINT('',(19.687,21.1562192255382,8.13492625685702));
#1101=CARTESIAN_POINT('',(-6.695,22.7240107163818,9.70153162741482));
#1102=CARTESIAN_POINT('Origin',(-6.695,21.14915083407,8.142));
#1103=CARTESIAN_POINT('',(19.687,21.14915083407,8.142));
#1104=CARTESIAN_POINT('',(-6.695,21.14915083407,8.142));
#1105=CARTESIAN_POINT('',(19.687,21.14915083407,8.142));
#1106=CARTESIAN_POINT('',(-6.695,23.8537085091563,5.43539462944222));
#1107=CARTESIAN_POINT('',(19.687,23.8537085091563,5.43539462944222));
#1108=CARTESIAN_POINT('Origin',(19.687,31.215,7.382));
#1109=CARTESIAN_POINT('',(19.687,42.7778449383854,6.632));
#1110=CARTESIAN_POINT('',(19.687,37.0085,6.632));
#1111=CARTESIAN_POINT('',(19.687,41.2737807744618,8.13492625685702));
#1112=CARTESIAN_POINT('',(19.687,38.9454138665832,10.4615316274148));
#1113=CARTESIAN_POINT('',(19.687,41.28084916593,8.142));
#1114=CARTESIAN_POINT('',(19.687,38.5762914908437,5.43539462944222));
#1115=CARTESIAN_POINT('',(19.687,21.14915083407,8.142));
#1116=CARTESIAN_POINT('Origin',(19.687,42.802,6.632));
#1117=CARTESIAN_POINT('',(-6.695,42.7778449383854,6.632));
#1118=CARTESIAN_POINT('',(-6.695,37.0085,6.632));
#1119=CARTESIAN_POINT('',(19.687,42.7778449383854,6.632));
#1120=CARTESIAN_POINT('Origin',(19.687,41.2737807744618,8.13492625685707));
#1121=CARTESIAN_POINT('',(-6.695,41.2737807744618,8.13492625685702));
#1122=CARTESIAN_POINT('',(-6.695,38.9454138665832,10.4615316274148));
#1123=CARTESIAN_POINT('',(19.687,41.2737807744618,8.13492625685702));
#1124=CARTESIAN_POINT('Origin',(19.687,41.28084916593,8.142));
#1125=CARTESIAN_POINT('',(-6.695,41.28084916593,8.142));
#1126=CARTESIAN_POINT('',(19.687,41.28084916593,8.142));
#1127=CARTESIAN_POINT('',(-6.695,38.5762914908437,5.43539462944222));
#1128=CARTESIAN_POINT('Origin',(-6.695,31.215,7.382));
#1129=CARTESIAN_POINT('',(-6.695,21.14915083407,8.142));
#1130=CARTESIAN_POINT('Origin',(19.687,21.14915083407,8.142));
#1131=UNCERTAINTY_MEASURE_WITH_UNIT(LENGTH_MEASURE(0.01),#1135,
'DISTANCE_ACCURACY_VALUE',
'Maximum model space distance between geometric entities at asserted c
onnectivities');
#1132=UNCERTAINTY_MEASURE_WITH_UNIT(LENGTH_MEASURE(0.01),#1135,
'DISTANCE_ACCURACY_VALUE',
'Maximum model space distance between geometric entities at asserted c
onnectivities');
#1133=(
GEOMETRIC_REPRESENTATION_CONTEXT(3)
GLOBAL_UNCERTAINTY_ASSIGNED_CONTEXT((#1131))
GLOBAL_UNIT_ASSIGNED_CONTEXT((#1135,#1137,#1138))
REPRESENTATION_CONTEXT('','3D')
);
#1134=(
GEOMETRIC_REPRESENTATION_CONTEXT(3)
GLOBAL_UNCERTAINTY_ASSIGNED_CONTEXT((#1132))
GLOBAL_UNIT_ASSIGNED_CONTEXT((#1135,#1137,#1138))
REPRESENTATION_CONTEXT('','3D')
);
#1135=(
LENGTH_UNIT()
NAMED_UNIT(*)
SI_UNIT(.MILLI.,.METRE.)
);
#1136=(
LENGTH_UNIT()
NAMED_UNIT(*)
SI_UNIT($,.METRE.)
);
#1137=(
NAMED_UNIT(*)
PLANE_ANGLE_UNIT()
SI_UNIT($,.RADIAN.)
);
#1138=(
NAMED_UNIT(*)
SI_UNIT($,.STERADIAN.)
SOLID_ANGLE_UNIT()
);
#1139=SHAPE_DEFINITION_REPRESENTATION(#1140,#1141);
#1140=PRODUCT_DEFINITION_SHAPE('',$,#1143);
#1141=SHAPE_REPRESENTATION('',(#711),#1133);
#1142=PRODUCT_DEFINITION_CONTEXT('part definition',#1147,'design');
#1143=PRODUCT_DEFINITION('glovecase','glovecase v11',#1144,#1142);
#1144=PRODUCT_DEFINITION_FORMATION('',$,#1149);
#1145=PRODUCT_RELATED_PRODUCT_CATEGORY('glovecase v11','glovecase v11',
(#1149));
#1146=APPLICATION_PROTOCOL_DEFINITION('international standard',
'automotive_design',2009,#1147);
#1147=APPLICATION_CONTEXT(
'Core Data for Automotive Mechanical Design Process');
#1148=PRODUCT_CONTEXT('part definition',#1147,'mechanical');
#1149=PRODUCT('glovecase','glovecase v11',$,(#1148));
#1150=PRESENTATION_STYLE_ASSIGNMENT((#1151));
#1151=SURFACE_STYLE_USAGE(.BOTH.,#1152);
#1152=SURFACE_SIDE_STYLE('',(#1153));
#1153=SURFACE_STYLE_FILL_AREA(#1154);
#1154=FILL_AREA_STYLE('Steel - Satin',(#1155));
#1155=FILL_AREA_STYLE_COLOUR('Steel - Satin',#1156);
#1156=COLOUR_RGB('Steel - Satin',0.627450980392157,0.627450980392157,0.627450980392157);
ENDSEC;
END-ISO-10303-21;
